<svg viewBox="0 0 16 16" fill="none" xmlns="http://www.w3.org/2000/svg"><path d="M5 13V3h3.36226c1.11604 0 1.95424.22436 2.51464.67308.5651.44871.8476 1.11263.8476 1.99176 0 .46703-.1365.88141-.4097 1.24313-.2731.35714-.6451.63415-1.116.83104.5557.1511.9936.43956 1.3138.86539.3249.42124.4874.9249.4874 1.511 0 .8974-.299 1.6025-.8971 2.1154-.598.5128-1.4433.7692-2.5358.7692H5zm1.35621-4.6772v3.5989h2.23915c.63101 0 1.12782-.158 1.49044-.4739.3673-.3205.5509-.7601.5509-1.3187 0-1.20419-.67336-1.8063-2.02015-1.8063H6.35621zm0-1.05769h2.04843c.59334 0 1.0666-.14423 1.41978-.43269.35788-.28846.53688-.67995.53688-1.17445 0-.54945-.1649-.94781-.4945-1.19506-.32963-.25183-.83115-.37775-1.50454-.37775H6.35621v3.17995z" fill="#424242"/></svg>