<svg viewBox="0 0 16 16" fill="none" xmlns="http://www.w3.org/2000/svg"><path fill-rule="evenodd" clip-rule="evenodd" d="M7.495 9.052l.891 2.35h1.091L6.237 3h-1.02L2 11.402h1.095l.838-2.35h3.562zM5.811 4.453l.044.135 1.318 3.574H4.255l1.307-3.574.044-.135.038-.156.032-.152.021-.126h.023l.024.126.029.152.038.156zm7.984 6.011v.936h.96V7.498c0-.719-.18-1.272-.539-1.661-.359-.389-.889-.583-1.588-.583-.199 0-.401.019-.606.056-.205.037-.4.084-.583.141-.183.057-.348.118-.495.185-.147.067-.261.129-.343.188v.984c.266-.23.566-.411.904-.54.338-.129.689-.193 1.052-.193.188 0 .358.028.513.085.155.057.287.146.396.267.109.121.193.279.252.472.059.193.088.427.088.7l-1.811.252c-.344.047-.64.126-.888.237-.248.111-.453.251-.615.419-.162.168-.282.361-.36.58-.078.219-.117.459-.117.721 0 .246.042.475.124.688.082.213.203.397.363.551.16.154.36.276.598.366.238.09.513.135.826.135.402 0 .76-.092 1.075-.278.315-.186.572-.454.771-.806h.023zm-2.128-1.743c.176-.064.401-.114.674-.149l1.465-.205v.609c0 .246-.041.475-.123.688-.082.213-.197.399-.343.557-.146.158-.321.282-.524.372-.203.09-.426.135-.668.135-.187 0-.353-.025-.495-.076-.142-.051-.261-.122-.357-.211-.096-.089-.169-.194-.22-.316-.051-.122-.076-.252-.076-.393 0-.164.018-.311.055-.44.037-.129.105-.241.202-.334.097-.093.234-.173.41-.237z" fill="#424242"/></svg>