<svg viewBox="0 0 16 16" fill="none" xmlns="http://www.w3.org/2000/svg"><path d="M11.34 9.70998h.71l2.67-2.66993v-.71008l-1.34-1.32996h-.7l-1.82 1.81006h-5v-1.25l1.85999-1.8501V3L5.71998 1h-.71997L1 5.00001v.70996l2 2.00001h.71003l1.13995-1.14991V12.35l.5.5H10v.52l1.33 1.34h.71l2.6701-2.6699V11.33L13.37 10h-.7l-1.86 1.85H5.81001V7.84999H10v.47998l1.34 1.38001zm1.6901-3.64991l.6299.62988-2 2.00001-.6299-.62989 2-2zm0 5.00003l.6299.6299-2 2-.6299-.6299 2-2zM3.34998 6.65004L2.06 5.34998l3.28998-3.28992 1.30006 1.28992-3.30006 3.30006z" fill="#EE9D28"/></svg>