<svg viewBox="0 0 16 16" fill="none" xmlns="http://www.w3.org/2000/svg"><path fill-rule="evenodd" clip-rule="evenodd" d="M11.9564 6h.0499c.794 0 1.5554.31607 2.1168.87868.5614.56261.8768 1.32567.8768 2.12132s-.3154 1.5587-.8768 2.1213c-.5614.5626-1.3228.8787-2.1168.8787h-1.9957v-1h1.9957c.5293 0 1.0369-.2107 1.4112-.5858.3743-.3751.5845-.88376.5845-1.4142 0-.53043-.2102-1.03914-.5845-1.41421S12.5356 7 12.0063 7h-.914l-.1237-.857c-.0749-.53759-.3231-1.03589-.7069-1.41893-.38378-.38304-.88202-.6298-1.41875-.70264a2.47813 2.47813 0 00-1.55412.29917c-.4716.26694-.84316.68113-1.05801 1.1794l-.33328.762-.80825-.189A2.4897 2.4897 0 004.52251 6c-.66161 0-1.29612.2634-1.76395.73224-.46783.46884-.73065 1.10472-.73065 1.76776 0 .66304.26282 1.29893.73065 1.7678.46783.4688 1.10234.7322 1.76395.7322h2.49461v1H4.52251a3.48557 3.48557 0 01-1.4385-.2971 3.49382 3.49382 0 01-1.18941-.8635 3.50203 3.50203 0 01-.72995-1.27729 3.50715 3.50715 0 01-.14141-1.46507 3.50517 3.50517 0 01.47215-1.39378A3.49687 3.49687 0 012.4976 5.62727a3.48829 3.48829 0 011.35501-.5679A3.48526 3.48526 0 015.32079 5.1c.30326-.69499.82427-1.27201 1.48411-1.64365a3.4751 3.4751 0 012.17262-.41591c.75007.10173 1.44658.44566 1.98418.9797.5375.53404.8867 1.22909.9947 1.97986zm-1.6636 3.85348L8.97879 8.53944v5.43546h-.99387l.00001-5.39922L6.7071 9.85347l-.70711-.70711 2.14644-2.14638h.70711l2.14636 2.14639-.7071.70711z" fill="#424242"/></svg>