<svg viewBox="0 0 16 16" fill="none" xmlns="http://www.w3.org/2000/svg"><path fill-rule="evenodd" clip-rule="evenodd" d="M3.8888 2.09545A6.49997 6.49997 0 017.5 1c1.72391 0 3.3772.68482 4.5962 1.90381C13.3152 4.12279 14 5.77609 14 7.5a6.50011 6.50011 0 01-1.0954 3.6112 6.50059 6.50059 0 01-2.91716 2.394 6.49975 6.49975 0 01-3.75552.3699 6.50025 6.50025 0 01-3.32811-1.7789A6.49999 6.49999 0 013.8888 2.09545zm.55557 9.97765A5.50036 5.50036 0 007.5 13a5.506 5.506 0 003.8873-1.6127A5.50603 5.50603 0 0013 7.5a5.50037 5.50037 0 00-.9269-3.05564 5.50006 5.50006 0 00-5.64609-2.33868A5.50004 5.50004 0 002.10568 6.427a5.50002 5.50002 0 002.33869 5.6461zM10.2932 4l.707.707-2.15002 2.15a1.51397 1.51397 0 01-1.49123 2.16566 1.51402 1.51402 0 01-1.1075-2.38481A1.51395 1.51395 0 018.14318 6.15L10.2932 4zM7.2224 7.91573a.50001.50001 0 10.46912-.87767.49994.49994 0 00-.54489.10839.50005.50005 0 00-.10839.54489.50002.50002 0 00.18416.22439zm4.2856-2.44869l-.763.763c.1661.40292.2527.83418.255 1.27a3.4627 3.4627 0 01-.5 1.777l.735.73496a4.47679 4.47679 0 00.7579-2.23502 4.47704 4.47704 0 00-.4839-2.30994h-.001zM8.73285 4.24196a3.3732 3.3732 0 00-1.233-.242 3.5 3.5 0 00-3.5 3.5 3.46296 3.46296 0 00.5 1.777l-.734.73504a4.50002 4.50002 0 015.734-6.53904l-.767.769z" fill="#424242"/></svg>