<svg viewBox="0 0 16 16" fill="none" xmlns="http://www.w3.org/2000/svg"><path d="M5.03891 2.49055a1.49986 1.49986 0 00-.25-.82996 1.55025 1.55025 0 00-.67999-.56006 1.49006 1.49006 0 00-.86002-.07995 1.48995 1.48995 0 00-1.17999 1.17993 1.4899 1.4899 0 00.07999.85998 1.55022 1.55022 0 00.56002.68006 1.5 1.5 0 00.75956.2489 1.5 1.5 0 00.77954-.17651 1.50012 1.50012 0 00.79089-1.32239z" fill="#424242"/><path d="M6.11891 10.7205l1.27002 1.2701h-1.85a1.50008 1.50008 0 01-1.5-1.5V4.99056a2.44015 2.44015 0 00.45999-.14002 2.49987 2.49987 0 001.12014-.92151 2.49995 2.49995 0 00.41987-1.38842 2.44991 2.44991 0 00-.19001-1 2.48031 2.48031 0 00-.53988-.81019 2.48019 2.48019 0 00-.81012-.53991 2.44995 2.44995 0 00-1-.18994 2.49999 2.49999 0 00-1.3884.41992 2.50005 2.50005 0 00-.9216 1.12012 2.51995 2.51995 0 00.54001 2.72998 2.58995 2.58995 0 001.26999.67993v5.55008a2.48972 2.48972 0 00.18762.9582c.12517.3039.30925.5801.54166.8125.23241.2324.50855.4165.81247.5416a2.4898 2.4898 0 00.95825.1877h1.85l-1.26999 1.27.71.7099 2.13-2.13v-.6999l-2.13-2.13-.67002.6999zM3.53893 3.99056a1.49999 1.49999 0 01-.82999-.25 1.55018 1.55018 0 01-.56003-.68006 1.48999 1.48999 0 01-.07999-.85998 1.48978 1.48978 0 01.40931-.77063 1.48995 1.48995 0 01.77069-.4093 1.49 1.49 0 01.86001.07995 1.55015 1.55015 0 01.68.56006 1.49992 1.49992 0 01.07235 1.53906 1.49996 1.49996 0 01-1.32235.7909zM14.3089 10.7206a2.51061 2.51061 0 00-1.27-.68v-5.55a2.48973 2.48973 0 00-.1876-.95825 2.48972 2.48972 0 00-1.3541-1.35413 2.49004 2.49004 0 00-.9583-.18762H8.68893L9.95889.72058 9.24893.01062l-2.13003 2.13v.69996l2.13003 2.13.70996-.70996L8.68893 2.9906h1.84997c.3978 0 .7794.15803 1.0607.43933.2813.28131.4393.66285.4393 1.06067v5.55c-.3185.0622-.6213.188-.89.37a2.57083 2.57083 0 00-.92 1.12 2.49945 2.49945 0 00-.1454 1.4473 2.499 2.499 0 00.6848 1.2833 2.499 2.499 0 001.2833.6848c.4862.0961.99.0455 1.4473-.1453a2.49937 2.49937 0 001.1201-.9217c.2741-.4111.4202-.8943.4199-1.3884a2.50971 2.50971 0 00-.73-1.77zm-.71 2.8301a1.49982 1.49982 0 01-.9111.4322 1.5003 1.5003 0 01-.9789-.2423 1.55004 1.55004 0 01-.56-.6801 1.4898 1.4898 0 01-.08-.8599c.0565-.292.199-.5604.4093-.7707a1.4902 1.4902 0 01.7707-.4093c.2883-.0588.5875-.031.86.08.2761.117.5123.3115.68.56.1913.2886.277.6344.2423.9789a1.5002 1.5002 0 01-.4323.9112z" fill="#424242"/></svg>