<svg viewBox="0 0 16 16" fill="none" xmlns="http://www.w3.org/2000/svg"><path fill-rule="evenodd" clip-rule="evenodd" d="M7.38893 12.9906l-1.27002-1.2701.67002-.6999 2.13 2.13v.6999l-2.13 2.13-.71-.7099 1.26999-1.27h-1.85a2.4898 2.4898 0 01-.95825-.1877 2.48888 2.48888 0 01-.81247-.5416 2.49023 2.49023 0 01-.54166-.8125 2.48972 2.48972 0 01-.18762-.9582V5.95052a2.58995 2.58995 0 01-1.26999-.67993 2.51995 2.51995 0 01-.54001-2.72998 2.50002 2.50002 0 01.9216-1.12012 2.49994 2.49994 0 011.3884-.41992 2.44995 2.44995 0 011 .18994c.30305.12467.5784.3082.81012.53991a2.48037 2.48037 0 01.53988.81019 2.44991 2.44991 0 01.19001 1 2.49995 2.49995 0 01-.41987 1.38842 2.49987 2.49987 0 01-1.12014.92151 2.44015 2.44015 0 01-.45999.14002v5.50004a1.50008 1.50008 0 001.5 1.5h1.85zM2.70894 4.74056a1.49999 1.49999 0 00.82999.25 1.49996 1.49996 0 001.25-2.32996 1.55015 1.55015 0 00-.68-.56006 1.49 1.49 0 00-.86001-.07995 1.48995 1.48995 0 00-.77069.4093 1.48978 1.48978 0 00-.40931.77063 1.48999 1.48999 0 00.07999.85998 1.55018 1.55018 0 00.56003.68006zM13.0389 11.0406c.4807.0978.9223.3341 1.2701.68.4676.4704.73 1.1067.7299 1.77.0004.4941-.1457.9773-.4198 1.3884a2.50043 2.50043 0 01-1.1201.9217 2.50033 2.50033 0 01-1.4474.1453 2.499 2.499 0 01-1.2833-.6848 2.49973 2.49973 0 01-.6848-1.2833 2.50052 2.50052 0 01.1454-1.4473c.1929-.4538.5123-.8426.92-1.12.2688-.182.5715-.3078.89-.37v-5.55c0-.39782-.158-.77936-.4393-1.06067a1.49996 1.49996 0 00-1.0607-.43933H8.68896l1.26996 1.27002-.70996.70996-2.13003-2.13v-.69995l2.13003-2.13001.70996.70996L8.68896 2.9906h1.84994a2.49004 2.49004 0 012.3124 1.54175c.1252.30391.189.62958.1876.95825v5.55zm-.351 3.9423c.3445-.0346.6663-.1873.911-.4322.245-.2447.3977-.5667.4324-.9112a1.49978 1.49978 0 00-.2424-.9789 1.54978 1.54978 0 00-.68-.56 1.4898 1.4898 0 00-.8599-.08 1.4902 1.4902 0 00-.7707.4093 1.48947 1.48947 0 00-.4093.7707c-.0589.2882-.0311.5875.0799.8599.117.2761.3115.5124.56.6801.2886.1913.6345.2769.979.2423z" fill="#424242"/></svg>