<svg viewBox="0 0 16 16" fill="none" xmlns="http://www.w3.org/2000/svg"><path d="M10.9788 5a3.42015 3.42015 0 00-2.00004-1V0h-1v4a3.49991 3.49991 0 00-2.97757 3.36951A3.50012 3.50012 0 007.79877 10.89h.17999v4h1v-4a3.07906 3.07906 0 00.84-.23 3.42032 3.42032 0 001.57004-1.29 3.5108 3.5108 0 00.59-1.93995c-.0009-.90998-.3601-1.78307-1-2.43005zm-.7 4.23999a2.51015 2.51015 0 01-1.77004.72998 2.49988 2.49988 0 01-1.38842-.4198 2.49982 2.49982 0 01-.92157-1.12012 2.48987 2.48987 0 01.09838-2.13818 2.49026 2.49026 0 01.71717-.83044 2.48985 2.48985 0 011.00445-.44141 2.72025 2.72025 0 01.48999 0 2.45002 2.45002 0 011 .18994 2.50019 2.50019 0 011.54004 2.31006 2.50987 2.50987 0 01-.2257.95471 2.51007 2.51007 0 01-.5743.79529l.03-.03003z" fill="#424242"/></svg>