<svg viewBox="0 0 16 16" fill="none" xmlns="http://www.w3.org/2000/svg"><path d="M13.2729 7.73055a2.51022 2.51022 0 00-1.7701-.72998 2.50015 2.50015 0 00-2.30996 1.54004 2.2296 2.2296 0 00-.13.43994 4.51997 4.51997 0 01-4-4 2.22992 2.22992 0 00.44-.13001 2.49981 2.49981 0 001.53998-2.30993 2.45007 2.45007 0 00-.19-1 2.48026 2.48026 0 00-.53986-.81019 2.48008 2.48008 0 00-.81012-.53991 2.44995 2.44995 0 00-1-.18994 2.50009 2.50009 0 00-2.31 1.54004 2.51996 2.51996 0 00-.14099 1.44628 2.51995 2.51995 0 00.68097 1.2837 2.59004 2.59004 0 001.27002.67993v5.10008a2.41101 2.41101 0 00-.89001.37 2.56955 2.56955 0 00-.91999 1.12 2.49996 2.49996 0 00-.14544 1.4473 2.49974 2.49974 0 001.96814 1.9681c.48619.096.98997.0455 1.44732-.1454a2.49995 2.49995 0 001.53998-2.31 2.44979 2.44979 0 00-.19-1 2.47915 2.47915 0 00-.53986-.8101 2.48065 2.48065 0 00-.81012-.5399 2.43943 2.43943 0 00-.46002-.14V7.61055a5.51984 5.51984 0 002 1.72998 5.64997 5.64997 0 002.09003.59998 2.5 2.5 0 00.44452 1.00149c.22039.2968.50391.541.83001.7151.3261.174.6868.2736 1.0561.2915.3693.0179.7379-.0463 1.0793-.188a2.50016 2.50016 0 001.1202-.9217 2.4999 2.4999 0 00.4198-1.38838 2.50979 2.50979 0 00-.7699-1.71997zM5.07285 11.1106c.27605.1169.51225.3115.67999.56a1.4996 1.4996 0 01.24432.9796 1.50004 1.50004 0 01-.432.9127 1.50022 1.50022 0 01-.9126.4321 1.50033 1.50033 0 01-.97974-.2444 1.55037 1.55037 0 01-.55999-.6801 1.48996 1.48996 0 01-.07996-.86 1.48968 1.48968 0 01.4093-.7706 1.49016 1.49016 0 01.77069-.4093 1.49011 1.49011 0 01.85999.08zm-.57001-7.11003a1.50014 1.50014 0 01-.83002-.25 1.55016 1.55016 0 01-.55999-.68006 1.4899 1.4899 0 01-.07996-.85998A1.48995 1.48995 0 014.21286 1.0306a1.48993 1.48993 0 01.85999.07995 1.55018 1.55018 0 01.67999.56006 1.49995 1.49995 0 01-1.25 2.32996zm8.05996 6.56003a1.50023 1.50023 0 01-.911.4323 1.50058 1.50058 0 01-.979-.2423 1.5506 1.5506 0 01-.56-.6801 1.4895 1.4895 0 01-.0799-.85997 1.48926 1.48926 0 01.4093-.77063 1.48998 1.48998 0 01.7707-.4093 1.48963 1.48963 0 01.8599.07995 1.5497 1.5497 0 01.68.56006c.1914.28856.277.6344.2423.97888a1.49945 1.49945 0 01-.4323.91111z" fill="#424242"/></svg>