<svg viewBox="0 0 16 16" fill="none" xmlns="http://www.w3.org/2000/svg"><path fill-rule="evenodd" clip-rule="evenodd" d="M8.5 1a6.49996 6.49996 0 016.0052 4.01257 6.50019 6.50019 0 01-.6006 6.09863 6.4992 6.4992 0 01-2.9172 2.394 6.49875 6.49875 0 01-3.75548.3699 6.50025 6.50025 0 01-3.32811-1.7789 6.50048 6.50048 0 01-1.77892-3.32813 6.50013 6.50013 0 01.36989-3.7555A6.50006 6.50006 0 018.5 1zm4.894 4c-.6413-1.24719-1.7327-2.20374-3.0528-2.67627A9.9219 9.9219 0 0111.294 5h2.1zm.5825 2.99524A5.45255 5.45255 0 0014 7.5a5.46446 5.46446 0 00-.213-1.5h-2.342c.032.33105.055.66406.055 1a10.11372 10.11372 0 01-.0079.37769 2.09169 2.09169 0 00-.001.02502 10.1341 10.1341 0 01-.0375.53992A10.04778 10.04778 0 0111.294 9h2.493a5.46818 5.46818 0 00.1895-1.00476zm-3.5357 0c.002-.01709.0039-.03418.0058-.05127A9.03981 9.03981 0 0010.5 7a8.9939 8.9939 0 00-.076-1H6.576A8.98671 8.98671 0 006.5 7a9.01514 9.01514 0 00.233 2h3.534a9.01798 9.01798 0 00.1738-1.00476zM10.249 5c-.0883-.39648-.2025-.78601-.34303-1.16553A9.00127 9.00127 0 008.994 2.03003C8.83 2.01599 8.666 2 8.5 2c-.10449 0-.20818.00635-.31157.01453-.06088.00476-.12166.01025-.18244.0155L8 2.03918A8.97064 8.97064 0 006.75101 5H10.249zM5.70601 5A9.95855 9.95855 0 016.672 2.31897 5.52725 5.52725 0 003.606 5h2.10001zM3.213 6A5.46446 5.46446 0 003 7.5 5.46446 5.46446 0 003.213 9h2.49301A10.0164 10.0164 0 015.5 7c0-.33594.02301-.66895.05501-1H3.213zm2.75401 4h-2.36c.378.7384.91771 1.382 1.57893 1.8829a5.5168 5.5168 0 002.24007 1.0102A10.02319 10.02319 0 015.96701 10zM8.5 12.644A8.94223 8.94223 0 009.97799 10H7.022A8.94316 8.94316 0 008.5 12.644zM11.033 10a10.0242 10.0242 0 01-1.459 2.8931 5.51722 5.51722 0 002.2401-1.0102A5.51496 5.51496 0 0013.393 10h-2.36z" fill="#424242"/></svg>