<svg viewBox="0 0 16 16" fill="none" xmlns="http://www.w3.org/2000/svg"><path fill-rule="evenodd" clip-rule="evenodd" d="M3.89002 2.10001A6.50012 6.50012 0 019.06983 1.215a6.50017 6.50017 0 014.14157 3.23442c.4271.7977.683 1.67581.7513 2.5781a6.49921 6.49921 0 01-.3549 2.6618 6.49943 6.49943 0 01-1.4006 2.29118A6.4988 6.4988 0 0110 13.51a6.5002 6.5002 0 01-4.69022.1345 6.50048 6.50048 0 01-3.55871-3.0582 6.5 6.5 0 012.13895-8.48629zm.55 9.99999a5.50084 5.50084 0 002.10354.7886 5.50155 5.50155 0 002.24337-.1183 5.50124 5.50124 0 002.00897-1.0055 5.49866 5.49866 0 001.4393-1.7248 5.49867 5.49867 0 00.6296-2.15645 5.50031 5.50031 0 00-.2851-2.22832 5.50029 5.50029 0 00-2.97968-3.23522 5.38007 5.38007 0 00-3.17-.31 5.47005 5.47005 0 00-4.32 4.32 5.5 5.5 0 002.33 5.63999v.03zm3.97-8.09999a2.26007 2.26007 0 00-.85-.17 2.09025 2.09025 0 00-.85.17 2.33008 2.33008 0 00-.7.47 2.13992 2.13992 0 00-.46.69 1.92982 1.92982 0 00-.17.84h.87a1.29995 1.29995 0 01.8-1.21 1.30011 1.30011 0 01.51-.11 1.35017 1.35017 0 01.52.11 1.33004 1.33004 0 01.7.7 1.45022 1.45022 0 01.1.51 1.18008 1.18008 0 01-.13.52 2.34013 2.34013 0 01-.33.43l-.42.37a4.47018 4.47018 0 00-.42.45 2.14017 2.14017 0 00-.32.55 1.56983 1.56983 0 00-.13.68v.44h.87v-.44a1.06 1.06 0 01.13-.52 2.24024 2.24024 0 01.33-.43 5.42203 5.42203 0 01.42-.4 4.47033 4.47033 0 00.42-.45 2.14012 2.14012 0 00.32-.55 1.72017 1.72017 0 00.13-.65 2.26007 2.26007 0 00-.17-.85 2.30003 2.30003 0 00-1.17-1.15zm-.41 7.21999v-.88h-.87v.88h.87z" fill="#424242"/></svg>