<svg viewBox="0 0 16 16" fill="none" xmlns="http://www.w3.org/2000/svg"><path fill-rule="evenodd" clip-rule="evenodd" d="M8.56844 1.03128a6.80018 6.80018 0 014.19166 2.01868 7.06038 7.06038 0 012.0203 4.6073 7.05976 7.05976 0 01-1.5603 4.78254 6.84939 6.84939 0 01-3.97575 2.4196A6.85006 6.85006 0 014.6401 14.18a7.0005 7.0005 0 01-3.12-3.5 7.1204 7.1204 0 01-.23001-4.71012 6.99976 6.99976 0 012.76999-3.78992 6.80004 6.80004 0 014.50836-1.14868zm.47168 12.84862A5.89 5.89 0 0012.4501 11.81a6.07071 6.07071 0 001.3334-4.10623 6.07016 6.07016 0 00-1.7334-3.95386A5.82022 5.82022 0 008.46938 2.0314a5.82 5.82 0 00-3.8493.97852 6.05991 6.05991 0 00-1.99311 2.30273 6.06006 6.06006 0 00.28614 5.88865A6.0604 6.0604 0 005.12008 13.3a5.8103 5.8103 0 003.92004.5799zm-.53004-6.87993h-1V11h1V6.99997zm0-2h-1v1h1v-1z" fill="#007ACC"/></svg>