<svg viewBox="0 0 16 16" fill="none" xmlns="http://www.w3.org/2000/svg"><path d="M11.4965 4a3.49023 3.49023 0 00-2.29093.85315A3.4899 3.4899 0 008.0365 7H4.9364a1.99988 1.99988 0 00-2.18848-1.48401 1.99991 1.99991 0 00-1.24865.66187A1.99998 1.99998 0 001 7.5a2 2 0 00.49927 1.32215 1.9999 1.9999 0 001.24865.66186A1.9999 1.9999 0 004.9364 8h3.1001a3.5001 3.5001 0 00.82043 1.7937 3.49959 3.49959 0 001.65987 1.0652 3.5001 3.5001 0 001.9725-.0015 3.4996 3.4996 0 001.6584-1.0676 3.5005 3.5005 0 00.8178-1.79492 3.50064 3.50064 0 00-.2828-1.95203 3.49892 3.49892 0 00-1.2932-1.48926A3.4998 3.4998 0 0011.4965 4zm0 6a2.5004 2.5004 0 01-1.389-.42138 2.50021 2.50021 0 01-.92073-1.12195 2.4996 2.4996 0 01-.14221-1.44434 2.50013 2.50013 0 01.68408-1.28015 2.50008 2.50008 0 011.28016-.68408 2.49958 2.49958 0 011.4443.14221 2.50013 2.50013 0 011.122.92078c.2747.41112.4214.89446.4214 1.38891a2.5003 2.5003 0 01-.7322 1.76783A2.5002 2.5002 0 0111.4965 10z" fill="#007ACC"/></svg>