<svg viewBox="0 0 16 16" fill="none" xmlns="http://www.w3.org/2000/svg"><path fill-rule="evenodd" clip-rule="evenodd" d="M2.28711 2.326l.405-.326h.677v3h-.708V2.792l-.374.281v-.747zM5 3h10v1H5V3zm0 4h10v1H5V7zm10 4H5v1h10v-1zM3.742 7.62606l.02855-.03891c.02234-.0303.04439-.0602.06545-.09109a.80028.80028 0 00.081-.142.8407.8407 0 00.055-.165.91752.91752 0 00.02-.2 1.11498 1.11498 0 00-.057-.353.84806.84806 0 00-.492-.529 1.12284 1.12284 0 00-.452-.082 1.09388 1.09388 0 00-.458.087.89988.89988 0 00-.307.222.86691.86691 0 00-.172.3 1.03804 1.03804 0 00-.054.323v.049h.81v-.049a.3001.3001 0 01.012-.08.21886.21886 0 01.034-.077.17394.17394 0 01.057-.054.18996.18996 0 01.172 0 .18796.18796 0 01.056.06.23992.23992 0 01.031.081.44512.44512 0 01.009.083.43802.43802 0 01-.045.206 1.30855 1.30855 0 01-.12.183l-1 1.138-.012.013v.54h1.988v-.7h-.9l.65-.724zM3.705 11.443a.5349.5349 0 01.12.114.84145.84145 0 01.115.212.93386.93386 0 01.052.338 1.04008 1.04008 0 01-.05.314.79226.79226 0 01-.17.29.87979.87979 0 01-.317.21 1.28751 1.28751 0 01-.48.079 1.17518 1.17518 0 01-.341-.049.93938.93938 0 01-.258-.123.75097.75097 0 01-.182-.177 1.0632 1.0632 0 01-.116-.2 1.03843 1.03843 0 01-.061-.2.9847.9847 0 01-.017-.173v-.049h.814v.049a.40106.40106 0 00.009.082.20688.20688 0 00.03.074.13908.13908 0 00.053.052.19981.19981 0 00.07768.02.20023.20023 0 00.07932-.012.15877.15877 0 00.056-.039.2201.2201 0 00.042-.075.41719.41719 0 00.017-.126.48268.48268 0 00-.022-.163.1999.1999 0 00-.051-.08.13819.13819 0 00-.06-.029.53713.53713 0 00-.077-.007h-.161v-.645h.168a.241.241 0 00.069-.011.16396.16396 0 00.065-.034.1753.1753 0 00.048-.067.28643.28643 0 00.021-.121.27937.27937 0 00-.016-.1.16582.16582 0 00-.04-.063.15296.15296 0 00-.057-.036.19946.19946 0 00-.156.007.16362.16362 0 00-.055.053.25058.25058 0 00-.03.075.34388.34388 0 00-.01.081v.049H2v-.049a.98732.98732 0 01.07-.344 1.03733 1.03733 0 01.11-.2.79957.79957 0 01.179-.186.87055.87055 0 01.262-.133 1.10576 1.10576 0 01.354-.05104 1.49608 1.49608 0 01.344.03604c.09172.0215.18016.0551.263.1a.75716.75716 0 01.194.146.79858.79858 0 01.126.172.73073.73073 0 01.069.179.72137.72137 0 01.021.168.8624.8624 0 01-.053.323.81025.81025 0 01-.114.205.56201.56201 0 01-.12.114z" fill="#424242"/></svg>