<svg viewBox="0 0 16 16" fill="none" xmlns="http://www.w3.org/2000/svg"><path fill-rule="evenodd" clip-rule="evenodd" d="M1.99977 6.77002L14.3298 3.33997l.67.53V12.47l-.67.53-6.08829-1.5949a2.15979 2.15979 0 01-.20793.5172 2.16071 2.16071 0 01-.65462.7188c-.27.1868-.57901.3095-.90356.3589a2.16004 2.16004 0 01-2.34679-1.3746 2.16022 2.16022 0 01-.06607-1.315l-2.06277-.54038-.42-.53v-1.94l.42-.53zm3.00615 3.78748a1.12926 1.12926 0 00-.03929.2416c0 .3103.12327.6079.34268.8274.21942.2194.51702.3426.82732.3426s.6079-.1232.82731-.3426a1.17035 1.17035 0 00.28997-.4801l-2.24799-.5889zM2.57977 8.82002L13.9998 11.83V4.49997L2.57977 7.72002v1.1z" fill="#424242"/></svg>