<svg viewBox="0 0 16 16" fill="none" xmlns="http://www.w3.org/2000/svg"><path fill-rule="evenodd" clip-rule="evenodd" d="M4 2h8v4a4.16113 4.16113 0 011 .22998V1H3v8.47998l1-1.75V2zm2.14001 8L5 8 4 9.75 3.29004 11 1 15h8l-2.29004-4-.56995-1zm-3.42004 4l1.71997-3L5 10l.56006 1 1.71997 3H2.71997zm6.83555-6.41016A3.49983 3.49983 0 0111.5 7a3.4998 3.4998 0 012.4748 1.02515A3.4999 3.4999 0 0115 10.5c0 .6922-.2053 1.3689-.5899 1.9445a3.49961 3.49961 0 01-1.5708 1.289 3.49952 3.49952 0 01-2.0222.1992 3.5 3.5 0 01-1.79197-.9578 3.50002 3.50002 0 01-.95789-1.792 3.5001 3.5001 0 01.19922-2.02226 3.50015 3.50015 0 011.28906-1.5708zm.55558 4.98876c.4111.2747.8944.4214 1.3889.4214.663 0 1.299-.2633 1.7678-.7322A2.50022 2.50022 0 0014 10.5c0-.4945-.1467-.97779-.4214-1.38892a2.49964 2.49964 0 00-1.122-.92077 2.49941 2.49941 0 00-1.4443-.14221 2.50034 2.50034 0 00-1.28014.68408 2.50016 2.50016 0 00-.68408 1.28012 2.49983 2.49983 0 00.14221 1.4444c.18922.4568.50965.8472.92081 1.1219z" fill="#424242"/></svg>