<svg viewBox="0 0 16 16" fill="none" xmlns="http://www.w3.org/2000/svg"><path d="M14.9998 5.66L8.17976 3h-.36l-6.82 2.66V12h1V7l2.31.9a4.34993 4.34993 0 00-.79 2.48 1.8389 1.8389 0 000 .33v.11l.28.4 3.98 1.78h.41l3.94004-1.81.28-.4v-.12-.32a4.39037 4.39037 0 00-.78-2.47l3.37-1.31v-.91zm-3.52 4.68v.07L7.99976 12l-3.5-1.6a.12996.12996 0 010-.06 3.44 3.44 0 01.75-2.12l2.58 1h.36l2.56004-1c.476.6038.7333 1.35112.73 2.12zM7.99976 8.25l-5.48-2.13 5.48-2.12 5.48004 2.14-5.48004 2.11z" fill="#424242"/></svg>