<svg viewBox="0 0 16 16" fill="none" xmlns="http://www.w3.org/2000/svg"><path fill-rule="evenodd" clip-rule="evenodd" d="M10.2322 10.7071L8.5 12.4393V9.00001h-1v3.43929l-1.73223-1.7322-.70711.7071L7.64644 14h.70711l2.58575-2.5858-.7071-.7071zM5.06066 3.58579l.70711.7071L7.5 2.56066v3.43933h1V2.56066l1.7322 1.73223.7071-.70711L8.35355 1h-.70711L5.06066 3.58578v.00001zm-.26777 1.68197L3.06066 6.99999h3.43933v1H3.06066l1.73223 1.73223-.7071.70708L1.5 7.85355v-.70711l2.58579-2.58579.7071.70711zm4.70712 1.73223h3.43929l-1.7322-1.73223.7071-.70711L14.5 7.14644v.7071l-2.5858 2.58576-.7071-.70708 1.7322-1.73223H9.50001v-1z" fill="#424242"/></svg>