<svg viewBox="0 0 16 16" fill="none" xmlns="http://www.w3.org/2000/svg"><path fill-rule="evenodd" clip-rule="evenodd" d="M2 1h11l1 1v5.30005A3.20965 3.20965 0 0013 7V2H8v10.88L6.88 14H2l-1-1V2l1-1zm0 12h5V2H2v11zm10.4087-4.99798a2.53008 2.53008 0 00-1.1887.3479h-.0301a2.51036 2.51036 0 00-.7385.67981 2.50969 2.50969 0 00-.4131.9148 2.511 2.511 0 00-.0217 1.00367c.0604.3326.1875.6495.3734.9318l-2.35997 2.3499.70996.71 2.35001-2.36c.3251.2205.6995.3579 1.0901.4.3849.0472.7754.0026 1.1398-.13a2.50924 2.50924 0 001-.63c.2701-.2825.469-.6253.5801-1 .1081-.3734.1319-.7662.07-1.15a2.52889 2.52889 0 00-.46-1.05994 2.47987 2.47987 0 00-.89-.75 2.52986 2.52986 0 00-1.2113-.25794zm.241 3.99228a1.49974 1.49974 0 01-.9797-.2444 1.55033 1.55033 0 01-.56-.68 1.49014 1.49014 0 01-.08-.86 1.49 1.49 0 011.18-1.17992 1.48963 1.48963 0 01.8599.07995c.2761.11697.5124.31156.6801.56006a1.49996 1.49996 0 01-.1876 1.89231 1.49991 1.49991 0 01-.9127.432z" fill="#424242"/></svg>