<svg viewBox="0 0 16 16" fill="none" xmlns="http://www.w3.org/2000/svg"><path fill-rule="evenodd" clip-rule="evenodd" d="M11 6h-1v-.5c0-.27614-.22384-.5-.49999-.5H8.47902v5.5c0 .2761.22386.5.5.5h.5v1h-3v-1h.5c.27614 0 .5-.2239.5-.5V5h-.97901c-.27614 0-.5.22386-.5.5V6h-1V4H11v2zm2.9142 2.0481l-1.4623-1.46229.7071-.7071 1.8159 1.81583v.70711l-1.7678 1.76775-.7071-.70709 1.4142-1.41421zM3.5481 9.4623L2.08581 8.00002l1.41421-1.41421-.70711-.70711-1.76776 1.76777v.7071L2.841 10.1694l.7071-.7071z" fill="#424242"/></svg>