<svg viewBox="0 0 16 16" fill="none" xmlns="http://www.w3.org/2000/svg"><path d="M8.00003 2a1.00002 1.00002 0 01.98078 1.19509.99995.99995 0 01-.78569.7857 1.00005 1.00005 0 01-1.02656-.42522A1.00002 1.00002 0 018.00003 2zm0-1a1.99998 1.99998 0 00-1.96157 2.39018 2 2 0 003.62451.72096A2 2 0 0010 3a1.99998 1.99998 0 00-1.99997-2zm1.23 4.49h-2.46a1.76999 1.76999 0 00-1.77 1.77V9.9a1.06004 1.06004 0 00.27484.7547c.18706.2058.4475.3298.72516.3453v2.33c0 .3183.12642.6235.35147.8485.22504.2251.53027.3515.84853.3515h1.6a1.19963 1.19963 0 00.46865-.095 1.20023 1.20023 0 00.39434-.2705 1.19926 1.19926 0 00.2574-.403A1.19923 1.19923 0 0010 13.29V11c.2777-.0155.5381-.1395.7252-.3453.187-.2058.2858-.4768.2748-.7547V7.26c0-.46943-.1865-.91964-.5184-1.25158A1.76991 1.76991 0 009.23003 5.49zm-3.23 4.51V7.26a.7599.7599 0 01.22253-.54747.76.76 0 01.54747-.22253h2.46a.76005.76005 0 01.71412.47375A.75898.75898 0 0110 7.26V10h-.99997v3.31a.20005.20005 0 01-.2.2h-1.6a.20006.20006 0 01-.2-.2V10h-1z" fill="#424242"/></svg>