<svg viewBox="0 0 16 16" fill="none" xmlns="http://www.w3.org/2000/svg"><path d="M8.53437 12.4673H7.4361l-.89751-2.3737H2.94854l-.84436 2.3737H1L4.24757 4h1.02742l3.25938 8.4673zM6.21383 9.20202L4.88528 5.59426c-.0433-.11809-.0866-.30704-.1299-.56685h-.02362c-.03937.24013-.08463.42908-.13581.56685L3.27921 9.20202h2.93462zM9.78617 12.4673V4h2.40913c.7322 0 1.3128.17911 1.7419.53733.429.35821.6436.82468.6436 1.39941 0 .48024-.1299.89751-.3897 1.25179-.2598.35428-.6181.60621-1.0747.7558v.02362c.5708.06692 1.0274.28342 1.3699.64951.3425.36216.5137.83453.5137 1.41714 0 .7243-.2598 1.3108-.7794 1.7596-.5196.4487-1.175.6731-1.9663.6731H9.78617zm.99203-7.56979v2.73387h1.0156c.5432 0 .9703-.1299 1.2813-.38971.311-.26374.4664-.63377.4664-1.11008 0-.82272-.5412-1.23408-1.6237-1.23408h-1.1396zm0 3.62548v3.04681h1.3462c.5826 0 1.0333-.1378 1.3522-.4133.3228-.2756.4842-.6535.4842-1.1337 0-.99988-.681-1.49981-2.043-1.49981h-1.1396z" fill="#424242"/></svg>