<svg viewBox="0 0 16 16" fill="none" xmlns="http://www.w3.org/2000/svg"><path fill-rule="evenodd" clip-rule="evenodd" d="M7.50001 1a6.50001 6.50001 0 00-4.59619 11.0962 6.50032 6.50032 0 003.32812 1.7789 6.49968 6.49968 0 003.7555-.3699 6.49916 6.49916 0 002.91706-2.394A6.49941 6.49941 0 0014 7.5c0-1.72391-.6848-3.3772-1.9038-4.59619C10.8772 1.68482 9.22392 1 7.50001 1zm0 12a5.49967 5.49967 0 01-3.05567-.9269 5.49998 5.49998 0 01-2.02569-2.46836A5.49996 5.49996 0 012.10566 6.427a5.50008 5.50008 0 014.32135-4.32129 5.49992 5.49992 0 013.17773.31299 5.5004 5.5004 0 012.46836 2.02564A5.50043 5.50043 0 0113 7.5c0 1.45869-.5794 2.8576-1.6109 3.889C10.3577 12.4205 8.9587 13 7.50001 13zm1.54998-8.42006A1.83974 1.83974 0 008.44 4.16002a2.24978 2.24978 0 00-.90997-.16003 2.16003 2.16003 0 00-.88001.17004 1.67987 1.67987 0 00-.61999.44995 1.8899 1.8899 0 00-.38001.62A2.9997 2.9997 0 005.5 5.95995h1.22998a.83986.83986 0 01.25-.56995.71981.71981 0 01.25592-.17126.71985.71985 0 01.30408-.04871.85989.85989 0 01.27002 0 .64015.64015 0 01.22003.14001.59985.59985 0 01.15997.21997.7297.7297 0 01.06.29993 1.17986 1.17986 0 01-.10999.5 2.40013 2.40013 0 01-.27001.46008l-.34998.41993c-.12.13-.24004.27003-.35004.41003a2.32941 2.32941 0 00-.26996.44995 1.18006 1.18006 0 00-.10003.5v.66004H8v-.48999a.94017.94017 0 01.10999-.42005 2.9985 2.9985 0 01.28002-.40991L8.75 7.46996a4.29034 4.29034 0 00.35999-.47998 2.59034 2.59034 0 00.28002-.55005A1.90949 1.90949 0 009.5 5.80003a2.18004 2.18004 0 00-.09998-.67004 1.52019 1.52019 0 00-.35003-.55005zM6.8 9.82996h1.17V11H6.8V9.82996z" fill="#424242"/></svg>