<svg viewBox="0 0 16 16" fill="none" xmlns="http://www.w3.org/2000/svg"><path fill-rule="evenodd" clip-rule="evenodd" d="M12 1h-1v3H8v1h3v3h1V5h3V4h-3V1zM6 4.02242C3.19675 4.27504 1 6.63098 1 9.5 1 12.5376 3.46243 15 6.5 15c2.86902 0 5.225-2.1967 5.4776-5h-1.0051c-.2487 2.25-2.15622 4-4.4725 4C4.01472 14 2 11.9853 2 9.5c0-2.31628 1.75002-4.22381 4-4.47253V4.02242zM4.5 9c.55228 0 1-.44771 1-1 0-.55228-.44772-1-1-1-.55229 0-1 .44772-1 1 0 .55229.44771 1 1 1zm2 2.5c.71218 0 1.3548-.2978 1.81014-.7756l.70726.7072C8.38096 12.0904 7.48832 12.5 6.5 12.5c-1.00804 0-1.91655-.4261-2.5552-1.1081l.70764-.7077c.45721.5013 1.11565.8158 1.84756.8158zm2-2.5c.55229 0 1-.44772 1-1 0-.55229-.44771-1-1-1-.55228 0-1 .44771-1 1 0 .55228.44772 1 1 1z" fill="#424242"/></svg>