<svg viewBox="0 0 16 16" fill="none" xmlns="http://www.w3.org/2000/svg"><path fill-rule="evenodd" clip-rule="evenodd" d="M3.221 3.739l2.261 2.269L7.7 3.784l-.7-.7-1.012 1.007-.008-1.6a.523.523 0 01.5-.526H8V1H6.48A1.48201 1.48201 0 005 2.489V4.1L3.927 3.033l-.706.706zm6.66914 1.79377h.01127C10.0836 5.84426 10.3521 6 10.707 6c.3925 0 .7061-.16764.9409-.50292.2347-.33528.3521-.7798.3521-1.33355 0-.51049-.1005-.91283-.3014-1.20701-.2009-.29418-.4873-.44127-.8592-.44127-.4056 0-.7183.1936-.93799.58079h-.01127V1H9v4.91888h.89014v-.38611zm-.01408-1.061v-.34069c0-.24659.05821-.44668.17464-.60026.1183-.15358.2667-.23037.4451-.23037.1896 0 .3352.07788.4366.23362.1033.15358.1549.36773.1549.64244 0 .33095-.0563.58728-.169.76898-.1108.17954-.2676.26931-.4704.26931-.1671 0-.3042-.07031-.4113-.21091-.10702-.1406-.16054-.31797-.16054-.53212zM11 8H4v6h7V8z" fill="#424242"/></svg>