<svg viewBox="0 0 16 16" fill="none" xmlns="http://www.w3.org/2000/svg"><path d="M14 4.00002a1.99897 1.99897 0 00-.303-1.06237 2.00006 2.00006 0 00-.8207-.73945 2.00012 2.00012 0 00-1.0882-.19091 2.00017 2.00017 0 00-1.67 1.31167 1.99997 1.99997 0 00-.0723 1.10237c.0798.36696.2614.70402.5239.97261.2625.26858.5953.45783.9603.54608v1.06a.48017.48017 0 01-.0708.25939.47952.47952 0 01-.1992.18061l-2.76997 1.44-2.76-1.4a.49004.49004 0 01-.27-.48v-1.06a1.99997 1.99997 0 001.48406-2.1885 2.00002 2.00002 0 00-3.30618-1.24866 2 2 0 00.82212 3.43716v1.06a1.50997 1.50997 0 00.82 1.34l2.72 1.4V11.06a2 2 0 00-1.48406 2.1885 1.99994 1.99994 0 001.98406 1.748c.48678 0 .95686-.1775 1.32211-.4993a2.00042 2.00042 0 00.66196-1.2487 2.00029 2.00029 0 00-.3288-1.3745 1.9998 1.9998 0 00-1.15527-.814V9.74002l2.69997-1.36a1.4904 1.4904 0 00.6118-.57013 1.49002 1.49002 0 00.2082-.80987v-1.08a2.00012 2.00012 0 001.0641-.71021A1.99995 1.99995 0 0014 4.00002zm-9.99997 0a1.00002 1.00002 0 011.19509-.98078.99988.99988 0 01.51201.27368 1.00005 1.00005 0 01.21678 1.08979 1.00002 1.00002 0 01-1.63099.32442.99999.99999 0 01-.29289-.70711zM9.47003 13c0 .1978-.05865.3911-.16853.5556a1.00036 1.00036 0 01-.44879.3683.99976.99976 0 01-.57777.0569.9998.9998 0 01-.51202-.2737.99973.99973 0 01-.27368-.512 1.00016 1.00016 0 01.05691-.5778.99943.99943 0 01.36831-.4487A.99992.99992 0 018.47003 12c.13132 0 .26135.0259.38268.0761.12133.0503.23156.124.32442.2168a1.0007 1.0007 0 01.21678.3244c.05025.1214.07612.2514.07612.3827zM12 5.00002a.99962.99962 0 01-.5555-.16853.99995.99995 0 01-.3684-.44878 1.00146 1.00146 0 01-.0569-.57778 1.0005 1.0005 0 01.2737-.51201 1.00036 1.00036 0 01.512-.27368 1.00007 1.00007 0 011.0266.42521.99983.99983 0 01.1685.55557.99975.99975 0 01-.2929.70711.99993.99993 0 01-.7071.29289z" fill="#424242"/></svg>