<svg viewBox="0 0 16 16" fill="none" xmlns="http://www.w3.org/2000/svg"><path fill-rule="evenodd" clip-rule="evenodd" d="M9.59454 6.25211L8 1 6.40546 6.25211H1l4.37311 3.40036L3.7496 15 8 11.695 12.2504 15l-1.6235-5.34753L15 6.25211H9.59454zm-7.2465.46957h4.3724L8 2.50706l.00002.00002L6.72046 6.7217H2.34805l-.00001-.00002zM5.88539 9.4722l-1.30691 4.3047h.00003L5.8854 9.47221l-.00001-.00001zm7.76651-2.7505l.0001-.00002H9.27956l.00002.00002h4.37232zm-8.75077.9012h2.36734l.73155-2.40958.73154 2.40958h2.36734L9.18369 9.1121l.73154 2.4096-1.91521-1.4892-1.91522 1.4892.73155-2.4096-1.91522-1.4892z" fill="#424242"/></svg>