<svg viewBox="0 0 16 16" fill="none" xmlns="http://www.w3.org/2000/svg"><path fill-rule="evenodd" clip-rule="evenodd" d="M2 2L1 3v9l1 1h12l1-1V3l-1-1H2zm0 10V3h12v9H2zm3.3556-3.06983H6v-1.7095C6 6.40689 5.68534 6 5.05603 6c-.13505 0-.2852.02421-.45043.07263-.16379.04841-.2931.10428-.38793.16759v.66481c.23707-.20298.48707-.30447.75-.30447.2615 0 .39224.15642.39224.46927l-.59913.10335C4.25359 7.25885 4 7.57914 4 8.13408c0 .26257.06106.473.18319.63128.12356.15643.29238.23464.50647.23464.29023 0 .50933-.16015.65732-.48045h.00862v.41062zm.00431-1.35475v.19274c0 .17504-.04023.32029-.12069.43575-.08046.11359-.18462.17039-.3125.17039-.09195 0-.16523-.03166-.21982-.09497-.05316-.06518-.07974-.14805-.07974-.2486 0-.22161.11063-.35103.33189-.38827l.40086-.06704zm2.24103 1.0508h-.00751v.30889H7V5h.59343v1.67683h.00751c.14648-.30975.35493-.46463.62535-.46463.24789 0 .43881.11767.57277.35302.13396.23534.20094.55721.20094.9656 0 .44301-.07825.79862-.23474 1.06684C8.60876 8.86589 8.39969 9 8.13803 9c-.23662 0-.41565-.12459-.53709-.37378zm-.0169-1.12135v.27255c0 .17131.03568.31321.10704.42569.07136.11249.16275.16873.27418.16873.13521 0 .23975-.07182.31361-.21545.07512-.14536.11268-.35042.11268-.61518 0-.21977-.03443-.39109-.10329-.51395-.0676-.1246-.16463-.1869-.29108-.1869-.11893 0-.21784.06144-.29671.1843-.07762.12286-.11643.28293-.11643.48021zM11.2616 9c.3218 0 .5679-.05773.7384-.17318v-.7095c-.18.1378-.364.2067-.552.2067-.2118 0-.3783-.07169-.4994-.21508-.121-.14525-.1816-.34451-.1816-.59777 0-.2607.0629-.46461.1888-.61173.1274-.14897.2995-.22346.5161-.22346.1944 0 .3704.0689.5281.2067v-.7486C11.871 6.04469 11.6623 6 11.374 6c-.4174 0-.7511.1406-1.0012.42179C10.1243 6.70112 10 7.0838 10 7.56983c0 .42086.1163.76443.3489 1.03073.2325.26629.5368.39944.9127.39944z" fill="#424242"/></svg>