<svg viewBox="0 0 16 16" fill="none" xmlns="http://www.w3.org/2000/svg"><path fill-rule="evenodd" clip-rule="evenodd" d="M11.24 1l.59.24 2.11 4.93-.23.59-3.29 1.41-.59001-.24-.17-.41L6.1 9l-.58001-.19L5.36 8.43 2.8 9.49l-.58-.24-.72-1.67.28-.59 2.49999-1.06-.18-.41.24-.58L7.9 3.41 7.72 3l.27999-.58L11.24 1zM2.5 7.64l.35.85 2.22-.91-.37-.85-2.2.91zm2.73999-2.12L6.35 7.97l3-1.28-1.11001-2.44-3 1.27zm3.55-2.52L10.65 7.11l2.29-1.01L11.18 2 8.72 3h.06999zm-.28998 6.09998L11.52 14h-1.17l-1.87999-3.03v4h-1V9.81997L5.58001 14h-1.1l1.7-3.9 2.32-1.00002z" fill="#424242"/></svg>