<svg viewBox="0 0 16 16" fill="none" xmlns="http://www.w3.org/2000/svg"><path d="M5.45994 14.11a1.46016 1.46016 0 01-.81-.25 1.38009 1.38009 0 01-.52689-.7646 1.38008 1.38008 0 01.07689-.9254l.97-2.17h-2.79a1.36 1.36 0 01-1.16-.61 1.35005 1.35005 0 01-.09-1.32c.67-1.45 1.87-4.07 2.27-5.17a1.38 1.38 0 011.29-.9h8.92996a1.4001 1.4001 0 01.9771.41706c.2582.26198.403.61508.4029.98294v3.51c0 .18122-.0357.36067-.105.5281a1.38012 1.38012 0 01-.2992.44771 1.37879 1.37879 0 01-.4477.29914 1.37944 1.37944 0 01-.5281.10505h-1.38l-5.83996 5.46a1.41 1.41 0 01-.94.36zM4.68994 3a.38996.38996 0 00-.36.25c-.4 1.09-1.47 3.45-2.33 5.24a.39.39 0 000 .36.37.37 0 00.38.15h3.3l.52.68v.46l-1.09 2.44a.37002.37002 0 00.13.46.38018.38018 0 00.24.0854.38016.38016 0 00.24-.0854l6.05996-5.59.47-.13h1.37a.37965.37965 0 00.1527-.03151.3796.3796 0 00.1272-.09018.37978.37978 0 00.1001-.28831V3.4a.39942.39942 0 00-.11-.276.39988.39988 0 00-.27-.124H4.68994z" fill="#424242"/></svg>