<svg viewBox="0 0 16 16" fill="none" xmlns="http://www.w3.org/2000/svg"><path d="M15 3.78418c-.1914.28711-.4079.55484-.6494.80322-.2416.24837-.5036.4751-.7862.68017.0046.06381.008.12647.0103.18799.0023.06153.0034.12419.0034.18799 0 .57422-.0615 1.1416-.1846 1.70215-.123.56054-.3007 1.10286-.5332 1.62695-.3372.76107-.7587 1.44125-1.2646 2.04055-.5059.5993-1.0789 1.1063-1.71924 1.521-.6403.4147-1.33871.7314-2.09521.9502-.75651.2187-1.54948.3281-2.37891.3281-.78386 0-1.54834-.1082-2.29346-.3247-.74511-.2165-1.44808-.5389-2.10888-.9673.22331.0273.45117.041.68359.041.6517 0 1.28174-.1048 1.89014-.3144.60839-.2097 1.1678-.515 1.67822-.9161-.30534-.0045-.59929-.0558-.88184-.1538-.28255-.0979-.54118-.2347-.77588-.4101-.2347-.1755-.43978-.384-.61523-.6255-.17546-.24154-.31104-.50814-.40674-.79981a5.82587 5.82587 0 00.27002.03418 2.64335 2.64335 0 00.27002.01367c.25521 0 .50585-.03417.75195-.10253-.33724-.06836-.64599-.18913-.92627-.36231-.28027-.17318-.52295-.38395-.72802-.63232-.20508-.24837-.36459-.52865-.47852-.84082-.11393-.31218-.1709-.63916-.1709-.98096v-.03418c.40104.22787.83626.34863 1.30566.36231-.20052-.13672-.37939-.29281-.53661-.46827-.15723-.17545-.29053-.36572-.39991-.5708-.10937-.20507-.19368-.42154-.25293-.64941-.05924-.22786-.08886-.46256-.08886-.7041 0-.25521.0319-.50472.0957-.74853.0638-.24382.16178-.4751.29394-.69385.36459.45117.77019.85563 1.2168 1.21338.44661.35774.92171.66422 1.42529.91943.50358.25521 1.03109.45687 1.58252.60498.55143.14811 1.11654.23584 1.69531.26318-.02734-.10481-.04671-.21305-.05811-.3247a3.2655 3.2655 0 01-.01709-.33155c0-.39648.0752-.76904.22559-1.11767.15039-.34864.35547-.65283.61523-.9126.25977-.25977.56397-.46484.9126-.61523.34864-.15039.72123-.22559 1.11763-.22559.4011 0 .7828.07861 1.1451.23584.3623.15723.6801.38167.9536.67334.3235-.0638.6369-.15381.9399-.27002.3031-.11621.5959-.25863.8784-.42725-.1048.33269-.2654.63575-.4819.90918-.2165.27344-.4751.49903-.7759.67676.5742-.06836 1.1234-.21875 1.6475-.45117z" fill="#424242"/></svg>