<svg viewBox="0 0 16 16" fill="none" xmlns="http://www.w3.org/2000/svg"><path fill-rule="evenodd" clip-rule="evenodd" d="M7.67 14.72h.71L10.1 13h2.4l.5-.5v-2.42l1.74-1.71996v-.71l-1.71-1.72v-2.44l-.5-.49H10.1l-1.72-1.71h-.71L6 3.00004H3.53l-.53.5v2.43l-1.69 1.72v.71L3 10.08v2.42l.53.5H6l1.67 1.72zM6.16 12H4V9.87004l-.12-.35-1.51-1.52 1.48-1.51.15-.35v-2.14h2.16l.36-.14 1.48-1.51 1.54 1.51.35.14H12v2.14l.17.35 1.52 1.51-1.55 1.52-.14.35V12H9.89l-.38.15L8 13.66l-1.48-1.52-.36-.14zm1.44288-5.85899c-.05667.08505-.09951.18191-.12823.29102-.02939.10876-.04997.21458-.06166.31688l-.00491.04295h-.89476l.00287-.05117c.01828-.32596.08845-.61424.21168-.86382.05232-.10771.11681-.21358.1933-.31761.08107-.10602.17965-.20003.29432-.28062.11834-.08407.25469-.15055.40855-.19982C7.78275 5.02596 7.96334 5 8.16511 5c.2807 0 .5232.04573.72587.13921.20065.08956.36563.21064.49371.36371.12721.15203.2202.32574.27898.52064.05834.19345.08749.39299.08749.59845 0 .19142-.03244.37126-.09771.53909-.06411.16486-.14353.32065-.23824.46731a4.034 4.034 0 01-.3097.40994c-.11042.12833-.2118.25207-.30415.37124-.09148.11508-.16821.22871-.22967.33993-.05955.10776-.08837.21366-.08837.31825v.48006h-.88819v-.53851c0-.16797.03114-.32312.09409-.46477.06444-.14115.1444-.27502.23941-.40069a5.09267 5.09267 0 01.30877-.3678c.10686-.11577.20625-.23445.29818-.35603.09361-.11995.1699-.24604.22815-.3771.05975-.12803.09024-.26866.09024-.42092 0-.11542-.01587-.22122-.0471-.31777l-.0004-.00124c-.02822-.09593-.07215-.17717-.12998-.24326-.05783-.06885-.12939-.12126-.21541-.15733l-.00177-.00074c-.08231-.03841-.17994-.05843-.2942-.05843-.13702 0-.24912.02848-.33876.08272-.09006.05634-.16442.12794-.22347.21505zM8.5 11h-.8882v-.8882H8.5V11z" fill="#424242"/></svg>