<svg viewBox="0 0 16 16" fill="none" xmlns="http://www.w3.org/2000/svg"><path d="M14.9991 5.50088a4.39427 4.39427 0 01-1.1084 3.04251 4.39493 4.39493 0 01-2.8916 1.45751 2.95523 2.95523 0 00-.2-1.00002 3.56505 3.56505 0 002.2664-1.14074 3.56473 3.56473 0 00.9336-2.35926 3.5067 3.5067 0 00-.979-2.41798 3.50696 3.50696 0 00-2.3778-1.07301 3.50698 3.50698 0 00-3.64315 3.19099 3.55202 3.55202 0 00-1-.2 4.62198 4.62198 0 014.49995-4 4.4812 4.4812 0 011.7251.33742 4.48029 4.48029 0 011.4625.97499c.4184.41837.7498.91544.975 1.46254.2253.5471.34 1.1334.3374 1.72505zm-9.49995.5A4.49997 4.49997 0 001.34169 8.7788a4.50014 4.50014 0 00-.25608 2.6 4.50042 4.50042 0 001.23156 2.3041 4.49992 4.49992 0 002.30407 1.2315 4.50022 4.50022 0 002.59998-.2561 4.49956 4.49956 0 002.01954-1.6574c.49447-.74.75839-1.61.75839-2.5a4.50017 4.50017 0 00-.34254-1.7221 4.50012 4.50012 0 00-2.43539-2.43538 4.50006 4.50006 0 00-1.72207-.34254z" fill="#424242"/></svg>