<svg viewBox="0 0 16 16" fill="none" xmlns="http://www.w3.org/2000/svg"><path d="M13.8929 13.558L9.99994 6.006v-4h.99996v-1H9.99394V1l-.456.005h-4.538V2h1v3.952l-3.894 7.609a.9999.9999 0 00.04512.9711c.08951.1447.21444.2641.36298.3471.14854.0829.31578.1265.4859.1268h9.99996a.9996.9996 0 00.4868-.1271.9997.9997 0 00.3634-.348c.0894-.1451.1403-.3106.1478-.4809a.9997.9997 0 00-.105-.492zm-6.99996-7.15l.107-.215V2.036l2-.024v4.237l.111.215 1.82596 3.542H5.04894l1.844-3.598zm-3.893 7.609l1.541-3.011h6.91496l1.547 3-10.00296.011z" fill="#424242"/></svg>