<svg viewBox="0 0 16 16" fill="none" xmlns="http://www.w3.org/2000/svg"><path fill-rule="evenodd" clip-rule="evenodd" d="M8.00003 1a7.00031 7.00031 0 014.44067 1.58924 6.9997 6.9997 0 012.4244 4.04559 7.00036 7.00036 0 01-.6923 4.66537c-.7636 1.4282-1.9986 2.5475-3.4949 3.1671a6.99974 6.99974 0 01-4.71077.2312 7 7 0 01-4.93386-7.38499 6.99995 6.99995 0 014.28787-5.78083A6.99999 6.99999 0 018.00003 1zm-6 7a5.99996 5.99996 0 001.42 3.87L11.87 3.42a5.99965 5.99965 0 00-3.06997-1.37 5.99998 5.99998 0 00-6.26454 3.46876A5.99996 5.99996 0 002.00003 8zM14 8a5.9995 5.9995 0 00-1.42-3.87l-8.44997 8.45a5.99951 5.99951 0 003.07 1.42 6.00045 6.00045 0 002.5424-.2049A5.99888 5.99888 0 0011.97 12.5526a6.0002 6.0002 0 001.5102-2.0555A6.00043 6.00043 0 0014 8z" fill="#424242"/></svg>