<svg viewBox="0 0 16 16" fill="none" xmlns="http://www.w3.org/2000/svg"><path fill-rule="evenodd" clip-rule="evenodd" d="M3.75 4.48h-.71L2 3.43l.71-.7.69.68L4.81 2l.71.71-1.77 1.77zM6.98999 3H14.99v1H6.98999V3zm0 3H14.99v1H6.98999V6zM14.99 9H6.98999v1H14.99V9zm-8.00001 3H14.99v1H6.98999v-1zM3.04 7.48001h.71l1.77-1.77-.71-.7-1.41 1.41-.69-.69-.71.71 1.04 1.04zM3.75 10.49h-.71L2 9.45001l.71-.71.69.69 1.41-1.42.71.71L3.75 10.49zm-.71 3.01h.71l1.77-1.77-.71-.71-1.41 1.42-.69-.69-.71.7 1.04 1.05z" fill="#424242"/></svg>