<svg viewBox="0 0 16 16" fill="none" xmlns="http://www.w3.org/2000/svg"><path d="M8 4c.36719 0 .72135.04818 1.0625.14453.34115.09375.65885.22787.9531.40235.2969.17447.5664.38411.8086.6289.2448.24219.4544.51172.6289.8086.1745.29427.3086.61197.4024.95312C11.9518 7.27865 12 7.63281 12 8s-.0482.72135-.1445 1.0625c-.0938.34115-.2279.66016-.4024.957-.1745.2943-.3841.5638-.6289.8086-.2422.2422-.5117.4505-.8086.625-.29425.1745-.61195.3099-.9531.4063C8.72135 11.9531 8.36719 12 8 12s-.72135-.0469-1.0625-.1406c-.34115-.0964-.66016-.2318-.95703-.4063-.29427-.1745-.5638-.3828-.80859-.625-.24219-.2448-.45053-.5143-.625-.8086-.17448-.29684-.3099-.61585-.40626-.957C4.04688 8.72135 4 8.36719 4 8s.04688-.72135.14062-1.0625c.09636-.34115.23178-.65885.40626-.95312.17447-.29688.38281-.56641.625-.8086.24479-.24479.51432-.45443.80859-.6289.29687-.17448.61588-.3086.95703-.40235C7.27865 4.04818 7.63281 4 8 4z" fill="#424242"/></svg>