<svg viewBox="0 0 16 16" fill="none" xmlns="http://www.w3.org/2000/svg"><path fill-rule="evenodd" clip-rule="evenodd" d="M14.5 1h-13l-.5.53846V14.4615L1.5 15h13l.5-.5385V1.53846L14.5 1zM14 5.30769v8.61541H2V2.07692h12V5.30769z" fill="#424242"/><path d="M12 7.511a.99997.99997 0 001-1 .99997.99997 0 00-1-1 .9871.9871 0 00-.4844.13393A.98669.98669 0 0011.16 6H10V2H9v5h2.146a.98659.98659 0 00.3579.37102A.9867.9867 0 0012 7.511zM4.979 3.51099a.99997.99997 0 00-1 1 .99998.99998 0 00.2929.7071.99998.99998 0 00.7071.2929.98303.98303 0 00.839-.49H7V14h1V4.02099H5.833a.989.989 0 00-.854-.51z" fill="#424242"/><path d="M5 10.182V7H1v1h3v2.167a.98765.98765 0 00-.37088.358.98787.98787 0 00-.14012.496.99997.99997 0 001 1 .99997.99997 0 001-1 .98369.98369 0 00-.13379-.484A.98365.98365 0 005 10.182zM12 8.48901a.98661.98661 0 00-.4961.13999.98649.98649 0 00-.3579.37101H9V14h1v-4h1.16a.98654.98654 0 00.3556.3551.98696.98696 0 00.4844.1339c.2652 0 .5196-.1053.7071-.2929A1.00005 1.00005 0 0013 9.48901c0-.26521-.1054-.51957-.2929-.7071A.99994.99994 0 0012 8.48901z" fill="#424242"/></svg>