<svg viewBox="0 0 16 16" fill="none" xmlns="http://www.w3.org/2000/svg"><path fill-rule="evenodd" clip-rule="evenodd" d="M7 13.9916H4V4.99159h8v2h1v-2.5l-.5-.5H11v-1h-1a1.99997 1.99997 0 00-.59-1.41 1.99998 1.99998 0 00-2.82 0 1.99997 1.99997 0 00-.59 1.41H4.94v1H3.5l-.5.5V14.4916l.5.5H7v-1zM7 2.79159a.99995.99995 0 01.8-.8.99988.99988 0 01.58.06.93994.93994 0 01.45.36 1.00005 1.00005 0 01-.12 1.27 1.00002 1.00002 0 01-1.27.12.94006.94006 0 01-.36-.45.99997.99997 0 01-.08-.56zm7.08 9.46001l-1.08 1.09V7.99158h-1v5.34002l-1.08-1.08-.71.71 1.94 1.93h.71l1.93-1.93-.71-.71zM8.16 8.09155h.71l1.93 1.93005-.71.71-1.08-1.08005v5.34005h-1V9.64155L6.93 10.7316l-.71-.71 1.94-1.93005z" fill="#424242"/></svg>