<svg viewBox="0 0 16 16" fill="none" xmlns="http://www.w3.org/2000/svg"><path fill-rule="evenodd" clip-rule="evenodd" d="M10.707 3H14.5l.5.5v9l-.5.5h-13l-.5-.5v-9l.5-.5h3.793l.853-.854L6.5 2h3l.354.146.853.854zM2 12h12V4h-3.5l-.354-.146L9.293 3H6.707l-.853.854L5.5 4H2v8zm1.5-7a.4999.4999 0 00-.27778.08427.49996.49996 0 00-.07577.76928.49994.49994 0 00.76929-.07576.50003.50003 0 00-.06219-.63134A.49997.49997 0 003.5 5zM8 6a2.00003 2.00003 0 011.84776 1.23463 1.99994 1.99994 0 01-.43355 2.17958 1.99994 1.99994 0 01-2.17958.43355A2.00007 2.00007 0 016 8c0-.53043.21071-1.03914.58579-1.41421A1.99997 1.99997 0 018 6zm0-1a3.00005 3.00005 0 00-2.77164 1.85195 2.99999 2.99999 0 00.65032 3.26935 3.00014 3.00014 0 001.53605.8211 3.00018 3.00018 0 001.73332-.1708 2.99898 2.99898 0 001.34635-1.10489A2.99958 2.99958 0 0011 8a3.00006 3.00006 0 00-3-3z" fill="#424242"/></svg>