<svg viewBox="0 0 16 16" fill="none" xmlns="http://www.w3.org/2000/svg"><path fill-rule="evenodd" clip-rule="evenodd" d="M8.6.99999c1.6.1 3.1.9 4.2 2 1.3 1.4 2 3.1 2 5.1 0 1.6-.6 3.10001-1.6 4.40001-1 1.2-2.4 2.1-4 2.4-1.6.3-3.2.1-4.6-.7-1.4-.8-2.5-2-3.1-3.5-.6-1.50001-.7-3.20001-.2-4.70001.5-1.6 1.4-2.9 2.8-3.8 1.3-.9 2.9-1.3 4.5-1.2zM9.1 13.9c1.3-.3 2.5-1 3.4-2.1.8-1.1 1.3-2.40001 1.2-3.80001 0-1.6-.6-3.2-1.7-4.3-1-1-2.2-1.6-3.6-1.7-1.3-.1-2.7.2-3.8 1-1.1.8-1.9 1.9-2.3 3.3-.4 1.3-.4 2.7.2 4.00001.6 1.3 1.5 2.3 2.7 3 1.2.7 2.6.9 3.9.6zM7.89999 7.5L10.3 5l.7.7-2.40001 2.5L11 10.7l-.7.7-2.40001-2.5-2.4 2.5-.7-.7 2.4-2.5-2.4-2.5.7-.7 2.4 2.5z" fill="#A1260D"/></svg>