<svg viewBox="0 0 16 16" fill="none" xmlns="http://www.w3.org/2000/svg"><path fill-rule="evenodd" clip-rule="evenodd" d="M9.41155 1l-2.8231.00002-.4845 2.42252-2.05558-1.37039-1.99623 1.99624 1.37038 2.05557L1 6.58846v2.8231l2.42253.4845-1.37039 2.05554 1.99624 1.9963 2.05557-1.3704L6.58845 15h2.08289a4.52636 4.52636 0 01-.91687-1.0049h-.34216l-.28827-1.4414a4.47308 4.47308 0 01-.0668-.334l-.11656-.5828-.7633-.3162-2.00095 1.334-.83112-.8311 1.33398-2.00097-.3162-.76331-2.35814-.47162V7.41232l2.35814-.47163.31619-.7633-1.33397-2.00096.83111-.83111 2.00095 1.33396.76332-.31615.47162-2.35816 1.17538-.00001.47162 2.35815.76332.31616L11.8236 3.3453l.8311.83112-1.334 2.00095.3162.76332.5825.1165c.113.01816.2246.04052.3346.06692l1.441.28821v.34215A4.5246 4.5246 0 0115 8.67133V6.58846l-2.4225-.4845 1.3704-2.05559-1.9963-1.99623-2.05555 1.37038L9.41155 1zM8 6c.8592 0 1.59185.54179 1.87496 1.30237a4.48678 4.48678 0 00-.90039.47256C8.87247 7.33103 8.47489 7 8 7c-.55228 0-1 .44772-1 1 0 .47489.33103.87247.77493.97457a4.48678 4.48678 0 00-.47256.90039C6.54179 9.59185 6 8.8592 6 8c0-1.10457.89543-2 2-2zm1.27944 2.79462a3.5 3.5 0 013.55976-.52828 3.50048 3.50048 0 011.1356.75866 3.4998 3.4998 0 011.0083 2.1318 3.50002 3.50002 0 01-.5728 2.2875 3.5002 3.5002 0 01-4.2495 1.2894 3.50003 3.50003 0 01-.88136-5.93908zM8.99975 11v1h5.00005v-1H8.99975z" fill="#424242"/></svg>