<svg viewBox="0 0 16 16" fill="none" xmlns="http://www.w3.org/2000/svg"><path fill-rule="evenodd" clip-rule="evenodd" d="M13.85 4.44l-3.28-3.3-.35-.14H2.5l-.5.5V7h1V2h6v3.5l.5.5H13v1h1V4.8l-.15-.36zM10 5V2l3 3h-3zM2.5 8l-.5.5v6l.5.5h11l.5-.5v-6l-.5-.5h-11zM13 13v1H3V9h10v4zm-8-1h-.32v1H4v-3h1.06c.75 0 1.13.36 1.13 1a.93973.93973 0 01-.08092.3951.93925.93925 0 01-.23908.3249A1.32966 1.32966 0 015 12zm-.06-1.45h-.26v.93h.26c.36 0 .54-.16.54-.47 0-.31-.18-.46-.54-.46zM9 12.58a1.4799 1.4799 0 00.33896-.5133A1.47972 1.47972 0 009.44 11.46c0-1-.53-1.46-1.6-1.46H6.78v3h1.06A1.6 1.6 0 009 12.58zm-1.55-.13v-1.9h.33a.93983.93983 0 01.37576.0529A.9397.9397 0 018.48 10.8a.91036.91036 0 01.19357.3094.91016.91016 0 01.05643.3606 1.00002 1.00002 0 01-.25.72.93977.93977 0 01-.69.26h-.34zm4.45-.61h-.97V13h-.68v-3h1.74v.55h-1.06v.74h.97v.55z" fill="#424242"/></svg>