<svg viewBox="0 0 16 16" fill="none" xmlns="http://www.w3.org/2000/svg"><g clip-path="url(#clip0)" fill-rule="evenodd" clip-rule="evenodd"><path d="M7.70996 3H14.5l.51.5v4.50717c-.3105-.23441-.6491-.43345-1.01-.59113V5.98999H7.68994l-.85998.85999L6.47998 7H1.98999V13h5.11003c.0706.3478.1773.6825.31602 1H1.51001l-.5-.5v-11l.5-.5h5l.34998.15002L7.70996 3zm-.21997 2H13.99l.01-.98999H7.5l-.35999-.15002-.84997-.84998H2v3h4.28003l.85998-.85999L7.48999 5z" fill="#424242"/><path d="M9.77772 8.67412A4.00006 4.00006 0 0112 8a4.00496 4.00496 0 012.827 1.17301A4.00468 4.00468 0 0116 12c0 .7911-.2346 1.5645-.6741 2.2223a3.9996 3.9996 0 01-1.7952 1.4732 3.99904 3.99904 0 01-2.3111.2276 3.99974 3.99974 0 01-2.04803-1.0947 3.99985 3.99985 0 01-.86709-4.3591 3.9999 3.9999 0 011.47324-1.79518zm2.13098 4.98958l2.3863-3.1819-.8-.59996-2.0768 2.76916-1.3017-1.0414-.62471.7809 1.70451 1.3636.7124-.0904z" fill="#388A34"/></g><defs><clipPath id="clip0"><path fill="#fff" d="M0 0h16v16H0z"/></clipPath></defs></svg>