<svg viewBox="0 0 16 16" fill="none" xmlns="http://www.w3.org/2000/svg"><path d="M14.88 4.78006a3.48864 3.48864 0 00-.37-.90003 3.2405 3.2405 0 00-.6-.79004 3.77978 3.77978 0 00-1.21-.80993 3.74003 3.74003 0 00-2.84001 0 3.99995 3.99995 0 00-1.15997.75l-.04999.05993-.65002.65003-.65002-.65003L7.3 3.03006a3.99986 3.99986 0 00-1.15998-.75 3.74005 3.74005 0 00-2.84002 0 3.77961 3.77961 0 00-1.20996.80993 3.55052 3.55052 0 00-.61002.79004 3.8505 3.8505 0 00-.36002.90003 3.7502 3.7502 0 00-.11999 1A3.7901 3.7901 0 001.12 6.72a4.00016 4.00016 0 00.36002.89001 3.80022 3.80022 0 00.61002.79004l5.90997 5.91005L13.91 8.40005a3.44127 3.44127 0 00.6-.79004 3.57765 3.57765 0 00.37-.89001 3.7873 3.7873 0 00.12-.93994 3.74732 3.74732 0 00-.12-1zm-1 1.63a2.6908 2.6908 0 01-.26.64002 2.83802 2.83802 0 01-.43.56994L7.97999 12.82 2.77003 7.62002a2.8992 2.8992 0 01-.44-.56994 2.99975 2.99975 0 01-.27002-.65003 3.25045 3.25045 0 01-.07999-.69006 3.35955 3.35955 0 01.07999-.70996A2.79996 2.79996 0 012.33003 4.35a2.63958 2.63958 0 01.44-.56994 2.90987 2.90987 0 01.88995-.59998 2.80012 2.80012 0 012.08002 0 2.72005 2.72005 0 01.88001.58997l1.35998 1.36999 1.36005-1.36999a2.71952 2.71952 0 01.87996-.58997 2.80007 2.80007 0 012.08 0 2.9101 2.9101 0 01.89.59998c.1743.16458.3196.3572.43.56994a2.6908 2.6908 0 01.26.64002c.0601.22848.0903.46371.09.69995a2.59363 2.59363 0 01-.06.72009h-.03z" fill="#424242"/></svg>