<svg viewBox="0 0 16 16" fill="none" xmlns="http://www.w3.org/2000/svg"><path fill-rule="evenodd" clip-rule="evenodd" d="M2 6.99994l3.28-1.35-.39-.93-2.32 1a5.48003 5.48003 0 019.1124-2.03961A5.47997 5.47997 0 0113.21 6.99994h1a6.47986 6.47986 0 00-1.7007-3.92034 6.47979 6.47979 0 00-3.77156-2.00908A6.48 6.48 0 001.73 5.06994l-.81-1.95-.92.38 1.34 3.24.66.26zM7.24001 4h1v5h-1V4zm0 6h1v1h-1v-1zM14.14 8.33l1.34 3.23-.92.44-.82-2a6.4901 6.4901 0 01-7.04873 3.9921 6.4903 6.4903 0 01-3.77528-2.0411A6.49027 6.49027 0 011.24001 8h1v-.5a5.49015 5.49015 0 001.28601 3.5189 5.48995 5.48995 0 003.24381 1.8745A5.48988 5.48988 0 0012.88 9.39l-2.25.93-.39-.92 3.25-1.35.65.28z" fill="#424242"/></svg>