<svg viewBox="0 0 16 16" fill="none" xmlns="http://www.w3.org/2000/svg"><path fill-rule="evenodd" clip-rule="evenodd" d="M3.88882 3.09546A6.5 6.5 0 017.50002 2c1.72391 0 3.37718.68482 4.59618 1.90381C13.3152 5.1228 14 6.77609 14 8.5a6.50011 6.50011 0 01-1.0954 3.6112 6.49997 6.49997 0 01-2.91715 2.394 6.49966 6.49966 0 01-3.75549.3699 6.5003 6.5003 0 01-3.32813-1.7789A6.50017 6.50017 0 011.1249 9.76807a6.4999 6.4999 0 012.76392-6.67261zm.55554 9.97764A5.49966 5.49966 0 007.50002 14c1.45869 0 2.85758-.5795 3.88908-1.611A5.49991 5.49991 0 0013 8.5a5.49964 5.49964 0 00-.9269-3.05566A5.4994 5.4994 0 009.60476 3.4187a5.49987 5.49987 0 00-5.99377 1.19226 5.4997 5.4997 0 00-1.19226 5.99374 5.49975 5.49975 0 002.02563 2.4684zM8 5H7v5h1V5zm0 6H7v1h1v-1z" fill="#424242"/></svg>