<svg viewBox="0 0 16 16" fill="none" xmlns="http://www.w3.org/2000/svg"><path d="M11.91 14.22H4.06l-.5-.5V7.06H2.15l-.48-.38L1 4l.33-.6L5.59 2l.64.32a.94007.94007 0 00.06.15c.0441.0996.0942.19645.15.29a2.16964 2.16964 0 00.24.29 1.73999 1.73999 0 00.59.39 1.82004 1.82004 0 001.43 0 1.73999 1.73999 0 00.59-.39 3.31139 3.31139 0 00.25-.3l.15-.29a1.20977 1.20977 0 00.05-.14l.64-.32 4.26 1.42L15 4l-.66 2.66-.49.38h-1.44v6.66l-.5.52zm-7.35-1h6.85V6.56l.5-.5h1.52l.46-1.83-3.4-1.14a1.13168 1.13168 0 01-.12.21 3.16124 3.16124 0 01-.37.45 2.74984 2.74984 0 01-.91.61 2.84996 2.84996 0 01-2.22 0A2.91981 2.91981 0 016 3.75a2.16986 2.16986 0 01-.36-.44l-.13-.22-3.43 1.14.46 1.83h1.52l.5.5v6.66z" fill="#424242"/></svg>