<svg viewBox="0 0 16 16" fill="none" xmlns="http://www.w3.org/2000/svg"><path d="M12 9c-.5933 0-1.1734.17597-1.6667.50562a2.99988 2.99988 0 00-1.10489 1.34628 3.00024 3.00024 0 00-.17078 1.7334 2.99944 2.99944 0 00.82105 1.536 2.99966 2.99966 0 001.53602.8211 3.0005 3.0005 0 001.7334-.1708 2.99934 2.99934 0 001.3463-1.1049 3.00015 3.00015 0 00-.373-3.78804A3.00023 3.00023 0 0012 9zm1.3101 5L12 13l-1.3 1 .5-1.53-1.2-.83h1.47L12 10l.5401 1.64H14l-1.1999.83.51 1.53z" fill="#007ACC"/><path fill-rule="evenodd" clip-rule="evenodd" d="M11.1708 8.08474C9.85081 8.35911 8.77687 9.27684 8.28696 10.5H6.40867v2.2012c0 .0811.02853.15.09021.2115.0617.0614.13119.0901.21317.0901h1.41282a3.9713 3.9713 0 00.39572.9823c-.06597.01-.13344.0149-.20236.0149H6.71205c-.17982 0-.34982-.0337-.50899-.1016-.15742-.0673-.29553-.1596-.41345-.2771-.11793-.1175-.21066-.2552-.2782-.4122-.0683-.1588-.10214-.3284-.10214-.5079v-1.6003c0-.4789-.09155-.9214-.27374-1.32881-.1787-.40873-.43721-.78053-.776-1.11403-.43485-.42903-.77057-.90803-1.00592-1.43672C3.11756 6.69107 3 6.11672 3 5.49953c0-.41289.05342-.81151.16048-1.19556.1068-.38308.25859-.74111.45547-1.07379.19662-.33641.43182-.64107.70551-.91377.27357-.27258.57712-.50688.91049-.70277.33784-.196.69951-.34744 1.08383-.45381C6.70106 1.0532 7.10094 1 7.51514 1s.81409.0532 1.19937.15983c.38432.10637.74352.25756 1.07732.45368.33757.19587.64327.43019.91697.7029.2737.27269.5089.57735.7055.91375.1969.33269.3487.69072.4555 1.07381.1071.38405.1605.78267.1605 1.19556 0 .61719-.1176 1.19154-.3536 1.72181-.1355.30428-.3042.5921-.5059.8634z" fill="#007ACC"/></svg>