<svg viewBox="0 0 16 16" fill="none" xmlns="http://www.w3.org/2000/svg"><path d="M8 .75c.17188 0 .33333.03385.48438.10156.15104.0625.28385.15104.39843.26563.11459.11458.20313.24739.26563.39843.06771.15105.10156.3125.10156.48438 0 .17188-.03385.33333-.10156.48438-.0625.15104-.15104.28385-.26563.39843-.11458.11459-.24739.20573-.39843.27344C8.33333 3.21875 8.17188 3.25 8 3.25c-.17188 0-.33333-.03125-.48438-.09375-.15104-.06771-.28385-.15885-.39843-.27344-.11459-.11458-.20573-.24739-.27344-.39843C6.78125 2.33333 6.75 2.17188 6.75 2c0-.17188.03125-.33333.09375-.48438.06771-.15104.15885-.28385.27344-.39843.11458-.11459.24739-.20313.39843-.26563C7.66667.78386 7.82812.75 8 .75zM2.63281 3.75781c0-.15625.02865-.30208.08594-.4375.05729-.13541.13542-.2526.23437-.35156.10417-.10417.22396-.1849.35938-.24219.14062-.0625.28906-.09375.44531-.09375s.30209.03125.4375.09375c.13542.05729.25261.13802.35157.24219.10416.09896.18489.21615.24218.35156.0625.13542.09375.28125.09375.4375s-.03125.30469-.09375.44531c-.05729.13542-.13802.25521-.24218.35938-.09896.09896-.21615.17708-.35157.23438-.13541.05729-.28125.08593-.4375.08593s-.30469-.02864-.44531-.08593c-.13542-.0573-.25521-.13542-.35938-.23438-.09895-.10417-.17708-.22396-.23437-.35938-.05729-.14062-.08594-.28906-.08594-.44531zM2 7c.14062 0 .27083.02604.39062.07812.1198.05209.22396.125.3125.21876.09376.08854.16667.1927.21876.3125C2.97396 7.72917 3 7.85938 3 8c0 .14062-.02604.27083-.07812.39062-.05209.1198-.125.22657-.21876.32032-.08854.08854-.1927.15885-.3125.21094C2.27083 8.97396 2.14062 9 2 9c-.14062 0-.27083-.02604-.39062-.07812-.1198-.05209-.22657-.1224-.32032-.21094-.08854-.09375-.15885-.20052-.21094-.32032C1.02604 8.27083 1 8.14062 1 8c0-.14062.02604-.27083.07812-.39062.05209-.1198.1224-.22396.21094-.3125.09375-.09376.20052-.16667.32032-.21876C1.72917 7.02604 1.85938 7 2 7zm.88281 5.2422c0-.1198.02344-.2318.07031-.336.04688-.1093.10938-.2031.1875-.2812.07813-.0781.16928-.1406.27344-.1875.10938-.0469.22396-.0703.34375-.0703.11979 0 .23177.0234.33594.0703.10937.0469.20313.1094.28125.1875s.14062.1719.1875.2812c.04688.1042.07031.2162.07031.336 0 .1198-.02343.2344-.07031.3437-.04688.1042-.10938.1953-.1875.2735-.07812.0781-.17188.1406-.28125.1875-.10417.0469-.21615.0703-.33594.0703-.11979 0-.23437-.0234-.34375-.0703-.10416-.0469-.19531-.1094-.27344-.1875-.07812-.0782-.14062-.1693-.1875-.2735-.04687-.1093-.07031-.2239-.07031-.3437zM8 13.25c.20833 0 .38542.0729.53125.2188.14583.1458.21875.3229.21875.5312 0 .2083-.07292.3854-.21875.5312-.14583.1459-.32292.2188-.53125.2188-.20833 0-.38542-.0729-.53125-.2188C7.32292 14.3854 7.25 14.2083 7.25 14c0-.2083.07292-.3854.21875-.5312.14583-.1459.32292-.2188.53125-.2188zm3.6172-1.0078c0-.1771.0599-.3255.1797-.4453.1198-.1198.2682-.1797.4453-.1797.1771 0 .3255.0599.4453.1797.1198.1198.1797.2682.1797.4453 0 .1771-.0599.3255-.1797.4453-.1198.1198-.2682.1797-.4453.1797-.1771 0-.3255-.0599-.4453-.1797-.1198-.1198-.1797-.2682-.1797-.4453zM14 7.5c.1354 0 .2526.04948.3516.14844.0989.09896.1484.21614.1484.35156 0 .13542-.0495.2526-.1484.35156-.099.09896-.2162.14844-.3516.14844-.1354 0-.2526-.04948-.3516-.14844C13.5495 8.2526 13.5 8.13542 13.5 8c0-.13542.0495-.2526.1484-.35156.099-.09896.2162-.14844.3516-.14844zm-1.7578-5.11719c.1875 0 .3646.03646.5312.10938.1667.07291.3125.17187.4375.29687.125.125.224.27084.2969.4375.0729.16667.1094.34375.1094.53125s-.0365.36459-.1094.53125c-.0729.16667-.1719.3125-.2969.4375s-.2708.22396-.4375.29688c-.1666.07291-.3437.10937-.5312.10937s-.3646-.03646-.5313-.10937c-.1666-.07292-.3125-.17188-.4375-.29688-.125-.125-.2239-.27083-.2968-.4375-.073-.16666-.1094-.34375-.1094-.53125s.0364-.36458.1094-.53125c.0729-.16666.1718-.3125.2968-.4375s.2709-.22396.4375-.29687c.1667-.07292.3438-.10938.5313-.10938z" fill="#424242"/></svg>