<svg viewBox="0 0 16 16" fill="none" xmlns="http://www.w3.org/2000/svg"><path fill-rule="evenodd" clip-rule="evenodd" d="M6 2.98361V2h-.08917c-.3134 0-.61676.06161-.90955.18473-.2931.12325-.55186.30001-.7755.53025-.22267.22924-.38786.48-.49296.75268l-.00049.00132c-.09851.26622-.16419.54303-.197.83019l-.00014.00136c-.02841.27997-.03649.56791-.02435.86375.01188.28951.01782.57901.01782.86851 0 .20277-.03892.39315-.11666.57228l-.0004.00094c-.07473.17695-.17737.33265-.30843.46758-.12673.13046-.27851.23696-.45645.31891-.17612.07704-.36175.1157-.55755.1157H2v.9836h.08917c.19548 0 .38084.04058.55684.12154l.00141.00062c.17715.07761.32835.18366.45479.31765l.00191.00191c.13016.13018.23247.28519.30717.4659l.00072.00166c.07785.17939.11665.36775.11665.56613 0 .28949-.00594.57899-.01782.86849-.01214.2959-.00407.5858.02432.8698l.00019.0017c.03284.2831.09852.5578.19697.8238l.00051.0013c.1051.2727.27028.5235.49295.7527.22364.2303.4824.407.7755.5303.29279.1231.59615.1847.90955.1847H6v-.9836h-.08917c-.19988 0-.38737-.0387-.5632-.1156-.17367-.0817-.32569-.1882-.45677-.319-.127-.1349-.22982-.2907-.30863-.4681-.07385-.1791-.11089-.3697-.11089-.5727 0-.2283.00396-.4525.01187-.6724.00804-.2275.00806-.4491.00003-.6647-.0041-.22144-.0224-.43507-.05501-.64078-.0331-.21288-.08902-.41555-.16784-.60776-.07948-.19379-.18781-.3779-.32423-.55238-.11271-.14417-.25078-.27836-.41333-.40298.16255-.12462.30062-.25881.41333-.40298.13642-.17448.24475-.35859.32423-.55238.07874-.19201.13474-.39289.16787-.60179.03256-.20955.05088-.42312.05498-.64066a9.16755 9.16755 0 00-.00003-.6647 19.23223 19.23223 0 01-.01187-.67847c0-.19883.03699-.3875.11104-.56697.07897-.18171.18183-.3373.30848-.46768.13107-.13495.28375-.24162.45716-.31924.17578-.08086.36311-.12152.56281-.12152H6zm4 10.03279V14h.0892c.3134 0 .6167-.0616.9095-.1847.2931-.1233.5519-.3.7755-.5303.2227-.2292.3879-.48.493-.7527l.0005-.0013c.0985-.2662.1642-.543.197-.8302l.0001-.0013c.0284-.28.0365-.5679.0244-.8638a21.1442 21.1442 0 01-.0179-.86849c0-.20277.039-.39315.1167-.57228l.0004-.00094c.0747-.17695.1774-.33265.3084-.46757.1268-.13047.2785-.23697.4565-.31892.1761-.07704.3617-.1157.5575-.1157H14v-.9836h-.0892c-.1955 0-.3808-.04058-.5568-.12154l-.0014-.00062c-.1772-.0776-.3284-.18366-.4548-.31765l-.0019-.00191c-.1302-.13018-.2325-.28519-.3072-.4659l-.0007-.00166c-.0779-.17939-.1167-.36775-.1167-.56613 0-.2895.006-.579.0179-.86851.0121-.29586.004-.5858-.0244-.86974l-.0002-.00169c-.0328-.28314-.0985-.55783-.1969-.82388l-.0005-.00131c-.1051-.27267-.2703-.52344-.493-.75268-.2236-.23024-.4824-.407-.7755-.53025C10.7059 2.06161 10.4026 2 10.0892 2H10V2.98361h.0892c.1999 0 .3873.03869.5632.11556.1736.08175.3257.18819.4567.31906.127.13482.2299.29066.3087.46805.0738.17912.1109.36968.1109.57274 0 .22825-.004.45243-.0119.6724-.008.22752-.0081.44907 0 .66463.0041.22149.0224.43512.055.64083.0331.21288.089.41555.1678.60776.0795.19379.1878.3779.3242.55238.1127.14417.2508.27836.4134.40298-.1626.12462-.3007.25881-.4134.40298-.1364.17448-.2447.35859-.3242.55238-.0787.19201-.1347.39289-.1679.60179-.0325.20955-.0508.42312-.0549.64065a9.09392 9.09392 0 000 .6647c.0079.2241.0119.4503.0119.6785 0 .1988-.037.3875-.1111.5669-.079.1818-.1818.3373-.3085.4677-.131.135-.2837.2417-.4571.3193-.1758.0808-.3631.1215-.5628.1215H10z" fill="#424242"/></svg>