<svg viewBox="0 0 16 16" fill="none" xmlns="http://www.w3.org/2000/svg"><path fill-rule="evenodd" clip-rule="evenodd" d="M2.33329 5.50559a3.00005 3.00005 0 013.78803.37309 3 3 0 01.37309 3.78803 2.99921 2.99921 0 01-1.34636 1.10489 3.00018 3.00018 0 01-1.73332.1708 3.00014 3.00014 0 01-2.35708-2.35713 2.99999 2.99999 0 011.27564-3.07968zM5.01 6.283A1.986 1.986 0 004 6a1.988 1.988 0 00-1.717 3.01L5.01 6.283zM2.99 9.717A1.98603 1.98603 0 004 10a1.988 1.988 0 001.717-3.01L2.99 9.717zM13.9998 5v1.98404a.49984.49984 0 01-.1464.35356.50003.50003 0 01-.3536.14644H9.36684l1.63296-1.633-.707-.707-2.12096 2.121-.42269.4227v.5686L10.2928 10.8l.707-.707-1.60896-1.60896h4.10896a1.49993 1.49993 0 001.5-1.5V5h-1z" fill="#424242"/></svg>