<svg viewBox="0 0 16 16" fill="none" xmlns="http://www.w3.org/2000/svg"><path fill-rule="evenodd" clip-rule="evenodd" d="M2.87289 1.10023a1.371 1.371 0 01.74513.72965 1.33811 1.33811 0 01.107.537 1.33921 1.33921 0 01-.107.533 1.35904 1.35904 0 01-1.256.825 1.3381 1.3381 0 01-.532-.107 1.35498 1.35498 0 01-.83-1.256 1.35495 1.35495 0 01.106-.532 1.35493 1.35493 0 01.724-.724 1.37098 1.37098 0 011.04287-.00565zm-.29787 1.76465a.55101.55101 0 00.29-.29.54002.54002 0 00.042-.21.54802.54802 0 00-.84971-.4636.54797.54797 0 00-.24379.50937.54797.54797 0 00.3355.45423.56101.56101 0 00.426 0zM6.42995 1.1095L1.10967 6.42977l.6859.6859L7.11584 1.7954l-.68589-.6859zM11.5 8.99999h1V11.5H15v1h-2.5V15h-1v-2.5H9v-1h2.5V8.99999zm-5.73223.5251l.7071.70711L4.70711 12l1.76776 1.7677-.7071.7071L4 12.7071l-1.76777 1.7677-.7071-.7071L3.29289 12l-1.76776-1.7678.7071-.70711L4 11.2929l1.76777-1.76781zm1.35025-4.19521a1.35299 1.35299 0 00-1.256-.83 1.35495 1.35495 0 00-.532.106 1.35493 1.35493 0 00-.724.724 1.36195 1.36195 0 00.724 1.788 1.379 1.379 0 001.065 0 1.35805 1.35805 0 00.831-1.256 1.34512 1.34512 0 00-.108-.532zm-.753.745a.55318.55318 0 01-.116.173.56797.56797 0 01-.173.117.54705.54705 0 01-.213.042.54015.54015 0 01-.213-.042.54992.54992 0 01-.173-.117.5289.5289 0 01-.117-.173.56101.56101 0 010-.426.54398.54398 0 01.29-.289.53991.53991 0 01.213-.043.54792.54792 0 01.213.043.56497.56497 0 01.173.116.57691.57691 0 01.116.173.54901.54901 0 010 .426zM14 3h-4v1h4V3z" fill="#424242"/></svg>