<svg viewBox="0 0 16 16" fill="none" xmlns="http://www.w3.org/2000/svg"><path d="M14.5406 11.8111l-1.14-3.12013v-.05994L8.4906 3.721V2.48101a1.65988 1.65988 0 00-.10998-.57996 1.48014 1.48014 0 00-.33393-.48413A1.48003 1.48003 0 007.5506 1.101a1.42006 1.42006 0 00-.58002-.09997 1.37995 1.37995 0 00-.57001.10998 1.4701 1.4701 0 00-.48004.31995 1.47006 1.47006 0 00-.31994.4801 1.37976 1.37976 0 00-.10999.56995v3.26001l-3.06 3A1.52012 1.52012 0 002 9.80107c0 .39593.15449.77613.4306 1.05993l3.63001 3.63a1.5103 1.5103 0 00.48999.33c.36581.1468.7742.1468 1.14001 0a1.5103 1.5103 0 00.48999-.33l4.93-4.92003-.66 2.20003a1.1907 1.1907 0 000 .46c.0321.1521.0969.2955.19.4201.0969.1209.2156.2226.35.2999.1403.07.2934.1108.45.12.165.0101.3299-.0208.48-.09.1493-.0675.2824-.1665.39-.29a1.001 1.001 0 00.22-.44c.0314-.1447.0348-.294.01-.4399zM6.54059 2.48101a.45972.45972 0 010-.19995.52018.52018 0 01.11999-.17005.63986.63986 0 01.18-.09997.49995.49995 0 01.21002 0 .50004.50004 0 01.32001.15002.4999.4999 0 01.11999.32996v1.26001l-1 1 .04999-2.27002zm1 11.34999a.36078.36078 0 01-.15997.11.4709.4709 0 01-.19001.0401.47088.47088 0 01-.19-.0401.36096.36096 0 01-.16003-.11l-3.63001-3.62a.57045.57045 0 01-.10998-.1599.5005.5005 0 01-.03955-.19509c0-.067.01342-.13326.03955-.19495a.56992.56992 0 01.10998-.16003l4.35004-4.34998v2.84998a.73992.73992 0 00-.23999.55005.7498.7498 0 00.0661.38403.74996.74996 0 001.29724.11218.75016.75016 0 00.13104-.36706.75023.75023 0 00-.07086-.3833.74983.74983 0 00-.25354-.2959V5.17107l3.85 3.87L7.54059 13.831z" fill="#424242"/></svg>