<svg viewBox="0 0 16 16" fill="none" xmlns="http://www.w3.org/2000/svg"><path d="M9.84003 1l-.91004.35999V3.5L5.51001 5.96997a3.0802 3.0802 0 00-1.66003-.28003A2.99991 2.99991 0 002.31 6.32996v.7301l2.84002 2.75989L.96002 14h1.51996l3.44-3.4399L8.40997 12.99h.76001a2.80994 2.80994 0 00.64997-1.4954 2.81023 2.81023 0 00-.28992-1.60459L12.08 6.56995h2.2l.37-.88001L9.84003 1zM11.84 5.53003l-.43.20996-2.87002 3.75-.06.51001a2.6 2.6 0 01.23004 1.79l-2-1.99996-.76001-.73999-2.35003-2.29004A2.85008 2.85008 0 015.44 6.98999l.53003-.05994 3.85999-2.79004.20998-.41003V2.57996l3 2.92004-1.2.03003z" fill="#424242"/></svg>