<svg viewBox="0 0 16 16" fill="none" xmlns="http://www.w3.org/2000/svg"><path d="M2.80723 14.9754a1.74935 1.74935 0 01-1.25565-.5568 1.68436 1.68436 0 01-.54383-1.0997 1.71963 1.71963 0 01.35358-1.2176c1.20646-1.2724 3.58597-3.6519 5.31678-5.34651a4.25695 4.25695 0 01.04826-3.0774 4.09453 4.09453 0 011.66492-1.96932 4.2588 4.2588 0 014.03981-.35915l.6171.26728-2.8658 2.95118 1.2547 1.25844 2.9438-2.87695.2673.61901a4.29511 4.29511 0 01.3515 1.65173 4.2939 4.2939 0 01-.3125 1.65954 4.19842 4.19842 0 01-.9225 1.39207 4.2692 4.2692 0 01-.7425.58096 4.21703 4.21703 0 01-3.81238.44546c-1.09788 1.11366-3.8384 3.87276-5.31863 5.25456a1.6291 1.6291 0 01-1.08396.4232zM10.7448 1.92802a3.31951 3.31951 0 00-1.84866.55683 3.36255 3.36255 0 00-.59116.45845 3.3215 3.3215 0 00-.65706 3.73261l.1355.29697-.23294.22737C5.81224 8.89672 3.28146 11.4201 2.06479 12.7045a.80467.80467 0 00.13178 1.0487.9111.9111 0 00.29884.2199.81752.81752 0 00.31832.0724.69444.69444 0 00.4501-.1809c1.57304-1.4682 4.61239-4.53819 5.50424-5.44025l.22923-.23109.29512.13457a3.286 3.286 0 001.64578.29762 3.28648 3.28648 0 001.5792-.55098 3.32998 3.32998 0 00.5911-.46402 3.27938 3.27938 0 00.7201-1.08171c.1654-.40499.2481-.839.2433-1.27646 0-.21566-.0214-.4308-.0641-.64221l-2.5772 2.51501-2.55116-2.54749 2.51496-2.58925a3.2865 3.2865 0 00-.6496-.06032z" fill="#424242"/></svg>