<svg viewBox="0 0 16 16" fill="none" xmlns="http://www.w3.org/2000/svg"><path fill-rule="evenodd" clip-rule="evenodd" d="M2.24998 6.93a3.29995 3.29995 0 011.75-2.99l-.54-.94a4.70994 4.70994 0 00-2.46 4.29c0 1.4.53 2.17 1.47 2.17a1.20002 1.20002 0 001.22-1.33 1.19018 1.19018 0 00-.34443-.87841A1.19004 1.19004 0 002.46998 6.9a.58006.58006 0 00-.22.03zm3.44 0a3.28004 3.28004 0 011.77-3l-.56-.93a4.70994 4.70994 0 00-2.46 4.29c0 1.4.53 2.17 1.46 2.17a1.21003 1.21003 0 001.17327-.8252 1.2101 1.2101 0 00.05673-.5048 1.1999 1.1999 0 00-.35109-.87891 1.2001 1.2001 0 00-.40338-.26586A1.2001 1.2001 0 005.89998 6.9a.50996.50996 0 00-.21.03zM13.75 8.77a3.28105 3.28105 0 01-.4539 1.7544c-.313.5305-.7691.9622-1.3161 1.2456l.56.94a4.70006 4.70006 0 001.8452-1.8039A4.70002 4.70002 0 0015 8.4c0-1.39-.53-2.17-1.47-2.17a1.20028 1.20028 0 00-.4977.09581c-.1572.067-.2982.1668-.4137.29271a1.19976 1.19976 0 00-.256.43741A1.19955 1.19955 0 0012.31 7.56a1.19067 1.19067 0 00.0814.4748 1.189 1.189 0 00.263.40361A1.19025 1.19025 0 0013.53 8.79a.85987.85987 0 00.22-.02zm-3.44 0a3.26063 3.26063 0 01-.45076 1.7562A3.26002 3.26002 0 018.53998 11.77l.56.94a4.69998 4.69998 0 001.84522-1.8039A4.70002 4.70002 0 0011.56 8.4c0-1.4-.56-2.17-1.46-2.17a1.21008 1.21008 0 00-.91436.38817 1.20988 1.20988 0 00-.31566.94183 1.20006 1.20006 0 00.35108.87891 1.2001 1.2001 0 00.40338.26586A1.20018 1.20018 0 0010.1 8.79a.74983.74983 0 00.21-.02z" fill="#424242"/></svg>