<svg viewBox="0 0 16 16" fill="none" xmlns="http://www.w3.org/2000/svg"><path fill-rule="evenodd" clip-rule="evenodd" d="M7.16 3.49997c-2.43 1.56-3.61 3.17-3.61 5.86.16-.05.3-.05.44-.05 1.27 0 2.5.86003 2.5 2.41003 0 1.61-1.03 2.61-2.5 2.61-1.9 0-2.99-1.52-2.99-4.25 0-3.80003 1.75-6.53003 5.02-8.42003l1.14 1.84zm7 0c-2.43 1.56-3.61 3.17-3.61 5.86.16-.05.3-.05.44-.05 1.27 0 2.5.86003 2.5 2.41003 0 1.61-1.03 2.61-2.5 2.61-1.89 0-2.98-1.52-2.98-4.25 0-3.80003 1.75-6.53003 5.02-8.42003l1.14 1.84h-.01z" fill="#424242"/></svg>