<svg viewBox="0 0 16 16" fill="none" xmlns="http://www.w3.org/2000/svg"><path fill-rule="evenodd" clip-rule="evenodd" d="M14 3H3a.99989.99989 0 00-.70709.29285A1.00008 1.00008 0 002 4v7c0 .2652.10537.5196.29291.7072A1 1 0 003 12h11c.2652 0 .5196-.1053.7071-.2928.1875-.1876.2929-.442.2929-.7072V4c0-.26522-.1054-.51962-.2929-.70715A.9999.9999 0 0014 3zm0 8H3V4h11v7zm-3-6h-1v1h1V5zm-1 2H9v1h1V7zm2-2h1v1h-1V5zm1 4h-1v1h1V9zM6 9h5v1H6V9zm7-2h-2v1h2V7zM8 5h1v1H8V5zm0 2H7v1h1V7zM4 9h1v1H4V9zm0-4h1v1H4V5zm3 0H6v1h1V5zM4 7h2v1H4V7z" fill="#424242"/></svg>