<svg viewBox="0 0 16 16" fill="none" xmlns="http://www.w3.org/2000/svg"><path fill-rule="evenodd" clip-rule="evenodd" d="M11.6009 2.67683c.1465-.30975.355-.46463.6254-.46463.2479 0 .4388.11767.5728.35302.1339.23534.2009.55721.2009.9656 0 .44301-.0782.79862-.2347 1.06684C12.6088 4.86589 12.3997 5 12.138 5c-.2366 0-.4156-.12459-.5371-.37378h-.0075v.30889H11V1h.5934v1.67683h.0075zm-.0169 1.10059c0 .17131.0357.31321.1071.42569.0713.11249.1627.16873.2742.16873.1352 0 .2397-.07182.3136-.21545.0751-.14536.1126-.35042.1126-.61518 0-.21977-.0344-.39109-.1032-.51395-.0676-.1246-.1647-.1869-.2911-.1869-.119 0-.2179.06144-.2967.1843-.0777.12286-.1165.28293-.1165.48021v.27255zM4.11969 7.695L2 5.56781l.66188-.66187 1.00593 1.00031V4.39594a1.38966 1.38966 0 01.10369-.53328 1.3895 1.3895 0 01.75118-.75574A1.38932 1.38932 0 015.05531 3h2.34375v.90469H5.05531a.49033.49033 0 00-.46875.49312l.0075 1.5.94875-.94406.65625.65625-2.07937 2.085zM9.3556 4.93017H10v-1.7095C10 2.40689 9.68534 2 9.05603 2c-.13505 0-.2852.02421-.45043.07263-.16379.04841-.2931.10428-.38793.16759v.66481c.23707-.20298.48707-.30447.75-.30447.2615 0 .39224.15642.39224.46927l-.59913.10335C8.25359 3.25885 8 3.57914 8 4.13408c0 .26257.06106.473.18319.63128.12356.15643.29238.23464.50647.23464.29023 0 .50933-.16015.65732-.48045h.00862v.41062zm.00431-1.35475v.19274c0 .17504-.04023.32029-.12069.43575-.08046.11359-.18462.17039-.3125.17039-.09195 0-.16523-.03166-.21982-.09497-.05316-.06518-.07974-.14805-.07974-.2486 0-.22161.11063-.35103.33189-.38827l.40086-.06704zM7 12.9302h-.6444v-.4106h-.00862c-.14799.3203-.36709.4804-.65732.4804-.21409 0-.38291-.0782-.50647-.2346C5.06106 12.6071 5 12.3966 5 12.1341c0-.555.25359-.8753.76078-.9609l.59913-.1034c0-.3128-.13074-.4692-.39224-.4692-.26293 0-.51293.1014-.75.3044v-.6648c.09483-.0633.22414-.1192.38793-.1676.16523-.0484.31538-.0726.45043-.0726C6.68534 10 7 10.4069 7 11.2207v1.7095zm-.64009-1.162v-.1928l-.40086.0671c-.22126.0372-.33189.1666-.33189.3882 0 .1006.02658.1835.07974.2486.05459.0633.12787.095.21982.095.12788 0 .23204-.0568.3125-.1704.08046-.1154.12069-.2607.12069-.4357zM9.26165 13c.32178 0 .5679-.0577.73835-.1732v-.7095c-.18001.1378-.364.2067-.55197.2067-.21187 0-.37834-.0717-.4994-.2151-.12107-.1452-.18161-.3445-.18161-.5977 0-.2607.06293-.4646.18877-.6118.12744-.1489.29949-.2234.51613-.2234.19435 0 .37037.0689.52808.2067v-.7486C9.87097 10.0447 9.66229 10 9.37395 10c-.41736 0-.75109.1406-1.00119.4218-.24851.2793-.37276.662-.37276 1.148 0 .4209.11629.7645.34887 1.0308.23257.2663.53683.3994.91278.3994zM2 9l1-1h9l1 1v5l-1 1H3l-1-1V9zm1 0v5h9V9H3zm3-2l1-1h7l1 1v5l-1 1V7H6z" fill="#424242"/></svg>