<svg viewBox="0 0 16 16" fill="none" xmlns="http://www.w3.org/2000/svg"><path fill-rule="evenodd" clip-rule="evenodd" d="M13.5 1H3.74003A1.73994 1.73994 0 002.1296 2.08106a1.73982 1.73982 0 00-.12957.66894v9.5a1.73955 1.73955 0 00.12957.6689c.08685.2123.21481.4053.37651.5679.16171.1627.35397.2917.56573.3798.21176.0881.43884.1334.66819.1334h3.26v-1h-3.26a.74043.74043 0 01-.28552-.0573.7396.7396 0 01-.24131-.163.7393.7393 0 01-.15974-.2434.74047.74047 0 01-.05343-.2863v-.5a.74047.74047 0 01.05343-.2863.7393.7393 0 01.15974-.2434.7396.7396 0 01.24131-.163A.73983.73983 0 013.7399 11h3.26013v-1h-3V2H13v8h-3v1h3v2h-3v1h3.5l.5-.5v-12l-.5-.5zM3.00003 2.72987a.75044.75044 0 000 .02013v7.42-7.44013zm3 .27013h-1v1h1V3zm-.61999 5.64995l.71.7 1.92-1.92001V15h1V7.32814L11.04 9.34995l.7-.7-2.81996-2.83h-.71l-2.83 2.83zM5.00003 5h1v1h-1V5z" fill="#424242"/></svg>