<svg viewBox="0 0 16 16" fill="none" xmlns="http://www.w3.org/2000/svg"><path fill-rule="evenodd" clip-rule="evenodd" d="M3.74003 1H13.5l.5.5v12l-.5.5H10v-1h3v-2h-3v-1h3V2H4.00003v8h3v1H3.7399a.73983.73983 0 00-.28539.0573.7396.7396 0 00-.24131.163.7393.7393 0 00-.15974.2434.74047.74047 0 00-.05343.2863v.5a.74047.74047 0 00.05343.2863.7393.7393 0 00.15974.2434.7396.7396 0 00.24131.163.74043.74043 0 00.28552.0573h3.26v1h-3.26a1.73946 1.73946 0 01-.66819-.1334 1.73964 1.73964 0 01-.56573-.3798 1.73928 1.73928 0 01-.37651-.5679 1.73955 1.73955 0 01-.12957-.6689v-9.5a1.74012 1.74012 0 01.50608-1.23684A1.74016 1.74016 0 013.74003 1zm1.6 4.83l.71.7 1.95-1.95v1.45l-2.62 2.62.71.7 1.92-1.92V15h1V7.32819L11.04 9.35l.7-.7-2.73997-2.74972V4.53806L11 6.53l.7-.7L8.88003 3h-.71l-2.83 2.83z" fill="#424242"/></svg>