<svg viewBox="0 0 16 16" fill="none" xmlns="http://www.w3.org/2000/svg"><path fill-rule="evenodd" clip-rule="evenodd" d="M14.0001 10V1.5l-.5-.5H3.74009a1.90003 1.90003 0 00-.67.13 1.77013 1.77013 0 00-.57087.40518 1.77017 1.77017 0 00-.36913.59482 1.70024 1.70024 0 00-.13.62v9.5c-.0024.2298.04182.4578.13.67.17715.4273.51456.7683.94.95.21366.0834.44065.1275.67.13h.26v-1h-.26a.71984.71984 0 01-.29-.06.74018.74018 0 01-.4-.4.9301.9301 0 01-.05-.29v-.5a.9301.9301 0 01.05-.29.74018.74018 0 01.4-.4.71959.71959 0 01.28552-.06h9.26449v2H9.00009v1h4.50001l.5-.5V10zM4.00009 10V2h9.00001v8H4.00009zm1-7h1v1h-1V3zm0 2h1v1h-1V5zm1 2h-1v1h1V7zm.5 6.49l-1.22 1.51h-.28v-3h3v3h-.28l-1.22-1.51z" fill="#424242"/></svg>