<svg viewBox="0 0 16 16" fill="none" xmlns="http://www.w3.org/2000/svg"><path fill-rule="evenodd" clip-rule="evenodd" d="M11.04 1.32996L12.71 3l.29.70996v.33008h-.5l-.5.5v-.83008l-1.67-1.66992H10v4H4v-4H2V12.04h3l-.5 1H2l-1-1V2.04004l1-1h8.33l.71.28992zM7 5h2V2H7v3zm6.5 0L15 6.5l-.02.68994-5.50002 5.49996-.13.1202-.37.37L8.88 13.27l-3 1.5-.67004-.67 1.5-3 .09009-.1.36999-.37.12-.13L12.79 5h.71zm-6.21997 7.24l-.52002 1 1.04004-.48-.52002-.52zm.68994-1.03l.79004.79L13.91 6.84998l-.79-.78992L7.96997 11.21z" fill="#424242"/></svg>