<svg viewBox="0 0 24 24" fill="none" xmlns="http://www.w3.org/2000/svg"><path d="M15.25 0a8.24994 8.24994 0 00-7.52625 4.8617 8.24996 8.24996 0 00-.63415 4.6278A8.24996 8.24996 0 009.06995 13.72L1 22.88l1.12 1 8.05-9.12a8.2511 8.2511 0 003.5403 1.605 8.25104 8.25104 0 003.8824-.1943 8.25092 8.25092 0 003.3623-1.9506 8.2494 8.2494 0 002.0959-3.2736 8.25004 8.25004 0 00.3644-3.87008 8.2501 8.2501 0 00-1.4483-3.60718A8.24932 8.24932 0 0019.0278.92542 8.24977 8.24977 0 0015.25.01002V0zm0 15a6.75 6.75 0 01-3.7501-1.1376 6.75006 6.75006 0 01-2.87026-6.92929 6.7497 6.7497 0 011.84746-3.45606 6.7497 6.7497 0 013.456-1.84741A6.7501 6.7501 0 0122 8.25c0 1.7902-.7112 3.5071-1.9771 4.773C18.7571 14.2888 17.0402 15 15.25 15z" fill="#424242"/></svg>