<svg viewBox="0 0 16 16" fill="none" xmlns="http://www.w3.org/2000/svg"><path fill-rule="evenodd" clip-rule="evenodd" d="M5.73804 3.31803a4.50004 4.50004 0 00-1.318 3.18201 4.47984 4.47984 0 00.44117 1.94141A4.47938 4.47938 0 006.09998 10 4.62016 4.62016 0 006 11v.1701c-.16-.11-.31997-.2201-.46997-.3401L1.75 14.5 1 13.84l3.80005-3.6899a5.50065 5.50065 0 01-1.22107-2.33072 5.50011 5.50011 0 01.00134-2.63111 5.49972 5.49972 0 013.38855-3.82409 5.50041 5.50041 0 012.61194-.31788 5.5003 5.5003 0 014.20689 2.89978 5.49938 5.49938 0 01.6323 2.55396 5.29053 5.29053 0 01-.06.80005 5.23173 5.23173 0 00-.94-.68006v-.11999c0-1.19347-.4742-2.33809-1.3181-3.18201a4.4997 4.4997 0 00-3.18186-1.31799 4.50003 4.50003 0 00-3.182 1.31799zm3.03965 4.35604A4.00013 4.00013 0 0111 7c1.0608 0 2.0782.42149 2.8283 1.17163a3.99976 3.99976 0 01.4976 5.05067 4.00046 4.00046 0 01-1.7952 1.4733 4.00075 4.00075 0 01-2.3111.2275 3.99946 3.99946 0 01-2.04799-1.0947 4.00019 4.00019 0 01-.86719-4.35916 4.0001 4.0001 0 011.47327-1.79517zm.10095 5.44723A3.00006 3.00006 0 0011 14a3.00052 3.00052 0 001.74-.55L8.55003 9.26001A3.00008 3.00008 0 007.99998 11a3 3 0 00.87866 2.1213zm.38135-4.57125L13.4499 12.74A2.9999 2.9999 0 0014 11a3 3 0 00-3-3 2.9999 2.9999 0 00-1.74001.55005z" fill="#424242"/></svg>