<svg viewBox="0 0 16 16" fill="none" xmlns="http://www.w3.org/2000/svg"><path fill-rule="evenodd" clip-rule="evenodd" d="M8.24606 14.7126c-.504-.2966-1.00567-.6143-1.505-.953a16.29325 16.29325 0 01-1.444-1.1 13.14136 13.14136 0 01-1.288-1.274 8.69826 8.69826 0 01-1.051-1.47795 7.79994 7.79994 0 01-.7-1.69 7.04105 7.04105 0 01-.258-1.917v-3.2l.5-.5c.333 0 .656-.011.969-.036a6.54362 6.54362 0 00.883-.128 5.13494 5.13494 0 00.832-.256 5.16602 5.16602 0 00.816-.427 4.8308 4.8308 0 011.184-.565 4.79988 4.79988 0 012-.142 3.90517 3.90517 0 01.637.143 4.01818 4.01818 0 01.60004.24 6.2641 6.2641 0 01.579.322 5.1482 5.1482 0 00.822.428c.2691.10913.5471.19479.831.256.2914.06277.5867.10587.884.129.311.024.634.035.967.035l.5.5v3.201a7.04258 7.04258 0 01-.256 1.918 7.80364 7.80364 0 01-.7 1.69 8.7514 8.7514 0 01-1.05 1.47795c-.3992.4526-.8289.8772-1.286 1.271-.4616.3937-.9451.7609-1.448 1.1-.50204.3394-1.00538.6577-1.51004.955h-.508zm-5.246-11.12195v2.71a5.99394 5.99394 0 00.219 1.645 6.70002 6.70002 0 00.61 1.473 7.74585 7.74585 0 00.931 1.30795c.36928.4175.76617.8097 1.188 1.174.43154.3681.88288.7123 1.352 1.031.4.2667.8.5227 1.2.768.4-.242.8-.498 1.2-.768a15.35467 15.35467 0 001.35504-1.031c.4209-.3638.8171-.7554 1.186-1.172a7.8002 7.8002 0 00.93-1.30795 6.70272 6.70272 0 00.61-1.473 5.99472 5.99472 0 00.219-1.647v-2.71c-.1576 0-.3116-.01161-.4638-.02309l-.0792-.00591a7.95012 7.95012 0 01-1.018-.147 6.2984 6.2984 0 01-.994-.307 6.11186 6.11186 0 01-.982-.507 5.16573 5.16573 0 00-.48204-.269 3.12267 3.12267 0 00-.46-.183 2.8462 2.8462 0 00-.483-.108 3.6859 3.6859 0 00-1.558.106 3.91188 3.91188 0 00-.941.452 6.13838 6.13838 0 01-.982.513 6.40054 6.40054 0 01-1 .307 7.83358 7.83358 0 01-1.017.146c-.174.01-.355.02-.54.026zm6.06492 4.2993c.5484-.22313.93501-.76139.93501-1.38995 0-.82843-.67157-1.5-1.5-1.5-.82842 0-1.5.67157-1.5 1.5 0 .62856.38661 1.16682.93501 1.38995L7.49999 10.5h2l-.43501-2.61005z" fill="#424242"/></svg>