<svg viewBox="0 0 16 16" fill="none" xmlns="http://www.w3.org/2000/svg"><path fill-rule="evenodd" clip-rule="evenodd" d="M4.11101 2.17969A6.99995 6.99995 0 017.99999 1c1.85652 0 3.63701.73754 4.94981 2.05029C14.2625 4.36305 15 6.14348 15 8a6.99967 6.99967 0 01-1.1797 3.889 7.00086 7.00086 0 01-3.1415 2.5782 7.00028 7.00028 0 01-4.04447.3983 6.99985 6.99985 0 01-3.58411-1.9158 6.99997 6.99997 0 01-1.91571-3.5841 6.99994 6.99994 0 012.9765-7.18591zm.55555 10.80911A5.99994 5.99994 0 007.99999 14c1.5913 0 3.11741-.6321 4.24261-1.7573S14 9.5913 14 8a5.99974 5.99974 0 00-1.0112-3.33337 6.00047 6.00047 0 00-2.6927-2.20996 6 6 0 00-3.46664-.34144 6.00004 6.00004 0 00-4.71417 4.71424 5.9999 5.9999 0 002.55127 6.15933zM6.5 7c0 .55228-.44772 1-1 1s-1-.44772-1-1 .44772-1 1-1 1 .44772 1 1zm5 0c0 .55228-.4477 1-1 1-.55229 0-1-.44772-1-1s.44771-1 1-1c.5523 0 1 .44772 1 1zM8 11a3.00014 3.00014 0 01-1.5437-.4232 3.00009 3.00009 0 01-1.10632-1.15676l-.87.47998A4.00016 4.00016 0 005.9892 11.4568a3.99916 3.99916 0 002.09973.5405 3.99973 3.99973 0 002.07337-.6343c.6195-.3983 1.117-.96 1.4377-1.62301l-.9-.42993A3.0004 3.0004 0 019.59283 10.543 3.00076 3.00076 0 018 11z" fill="#424242"/></svg>