<svg viewBox="0 0 24 24" fill="none" xmlns="http://www.w3.org/2000/svg"><path d="M21.0067 8.22168a3.73724 3.73724 0 00-.5478-1.96683 3.73812 3.73812 0 00-1.4999-1.38528 3.7373 3.7373 0 00-2.0042-.39016 3.73699 3.73699 0 00-1.91.72144 3.73691 3.73691 0 00-1.2457 1.61765 3.7374 3.7374 0 00-.2096 2.03094 3.7371 3.7371 0 00.8892 1.83796 3.7374 3.7374 0 001.7225 1.0962 2.98917 2.98917 0 01-1.0965 1.2143 2.98922 2.98922 0 01-1.5716.4553h-2.9894a4.45576 4.45576 0 00-2.98943 1.1659V7.39809a3.73689 3.73689 0 002.26241-1.44658 3.73728 3.73728 0 00.70812-2.5903 3.7368 3.7368 0 10-4.46525 4.03688v9.11781a3.7758 3.7758 0 00-2.27986 1.4017 3.776 3.776 0 00-.77796 2.5609 3.77534 3.77534 0 001.11483 2.433 3.7756 3.7756 0 002.44747 1.0829 3.7752 3.7752 0 002.55037-.8114 3.77542 3.77542 0 001.3718-2.298 3.77556 3.77556 0 00-.49597-2.63 3.77563 3.77563 0 00-2.11459-1.6405 2.98941 2.98941 0 011.09708-1.2126 2.98871 2.98871 0 011.57098-.454h2.9894a4.4842 4.4842 0 002.598-.844 4.48425 4.48425 0 001.6261-2.1948c.8959-.1177 1.7188-.5563 2.3163-1.2343.5975-.678.929-1.54947.9332-2.45312zM4.56483 3.73752A2.24205 2.24205 0 015.9489 1.66611a2.2421 2.2421 0 012.10364 3.93564 2.2421 2.2421 0 01-3.48771-1.86423zM9.04899 20.1794c0 .4435-.1315.8769-.37786 1.2456a2.24225 2.24225 0 01-1.00621.8258 2.24215 2.24215 0 01-1.29541.1276 2.24098 2.24098 0 01-1.14799-.6136 2.24254 2.24254 0 01-.61361-1.1479 2.24197 2.24197 0 01.12759-1.2954c.1697-.4098.45708-.76.82578-1.0063a2.24262 2.24262 0 011.24563-.3779c.59464 0 1.16492.2363 1.58539.6567.42047.4205.65669.9908.65669 1.5854zm8.22091-9.7156a2.2426 2.2426 0 01-1.2456-.3779 2.24196 2.24196 0 01-.8257-1.00622 2.24216 2.24216 0 01-.1277-1.29541c.0865-.43492.3-.83442.6136-1.14798a2.24205 2.24205 0 012.4434-.48602c.4098.1697.7599.45707 1.0062.82578a2.2418 2.2418 0 01.3779 1.24563 2.24234 2.24234 0 01-.6567 1.58538 2.2424 2.2424 0 01-1.5854.65674z" fill="#424242"/></svg>