<svg viewBox="0 0 16 16" fill="none" xmlns="http://www.w3.org/2000/svg"><path fill-rule="evenodd" clip-rule="evenodd" d="M14.7725 3.48501l-.7788-.18377-2.1087 2.09564-1.1944-1.21626 2.0563-2.1569-.1794-.79185a4.41932 4.41932 0 00-1.3475-.22751 3.63114 3.63114 0 00-1.45686.28001 3.82389 3.82389 0 00-1.18566.83996 3.73636 3.73636 0 00-.875 1.26439 3.93751 3.93751 0 000 2.96626c-1.78937 1.75-4.74249 4.73812-6.17312 6.23442a1.4085 1.4085 0 00-.28433.9624c.0093.1838.05539.3638.1356.5294.07965.166.19114.3146.32812.4375.1241.1357.27248.247.4375.3282.17007.0749.35248.1179.53812.1268a1.31253 1.31253 0 00.85316-.3368c1.54875-1.4569 4.51496-4.4494 6.19934-6.2038a3.68825 3.68825 0 001.44373.29315 3.73603 3.73603 0 002.6775-1.13317 3.88464 3.88464 0 001.1113-2.72999 4.21122 4.21122 0 00-.1969-1.37808zM2.93377 13.9281a.31024.31024 0 01-.13565.07.43693.43693 0 01-.14873 0 .34558.34558 0 01-.14441-.0569.33596.33596 0 01-.1137-.1094c-.14-.1443-.27128-.4156-.14003-.5687 1.36937-1.4569 4.19124-4.30501 5.95437-6.04626a3.8085 3.8085 0 00.32812.37624 3.53138 3.53138 0 00.38062.34127c-1.70625 1.75-4.48871 4.56315-5.98059 5.99375zM14.0506 4.86309a2.91372 2.91372 0 01-.8312 2.04752 2.86123 2.86123 0 01-4.00751 0 2.99256 2.99256 0 01-.63441-3.13689 2.74752 2.74752 0 011.56192-1.59251 2.74313 2.74313 0 011.0718-.21437h.2538L9.64939 3.83935v.69561l1.89431 1.88565h.6607l1.8462-1.81563v.25811zM3.23998 6.68751h1.53125l.70437.7175.67815-.67376-.66501-.6781v-.04379l.05688-1.64933-.21875-.4375L2.4656 2.04126l-.59062.06564-.83126.84872-.06563.59937 1.83753 2.91815.42436.21437zm-.94501-3.63127l2.31439 1.52254L4.57 5.70313H3.49371L2.00188 3.34062l.29309-.28438zm7.105 6.96066l.67373-.67376L13.18 12.5282c.2616.2749.4075.6399.4075 1.0194 0 .3795-.1459.7444-.4075 1.0193a1.40406 1.40406 0 01-1.5487.315 1.31066 1.31066 0 01-.4375-.315l-3.14131-3.2025.67815-.6781L11.8631 13.88a.40237.40237 0 00.1532.1051.4767.4767 0 00.3587 0 .40278.40278 0 00.1531-.1051.43623.43623 0 00.1006-.1531.5252.5252 0 00.0351-.1837.5475.5475 0 00-.0351-.1838.43623.43623 0 00-.1006-.1531l-3.12813-3.1894z" fill="#424242"/></svg>