<svg viewBox="0 0 16 16" fill="none" xmlns="http://www.w3.org/2000/svg"><path fill-rule="evenodd" clip-rule="evenodd" d="M2 5h2V4H1.5l-.5.5v8l.5.5H4v-1H2V5zm12.5-1H12v1h2v7h-2v1h2.5l.5-.5v-8l-.5-.5zm-2.74 2.56995L12 7v2.51001l-.3.44995L7.19995 11.96h-.45996l-2.5-1.5L4 10.03V7.53003l.30005-.46008 4.5-2h.45996l2.49999 1.5zM5 9.70996l1.5.90004V9.28003L5 8.38v1.32996zm.57996-2.1499l1.45007.86999 3.38997-1.5-1.45003-.86999-3.39001 1.5zM7.53003 10.73L11.03 9.17004V7.77002L7.53003 9.31995V10.73z" fill="#007ACC"/></svg>