<svg viewBox="0 0 16 16" fill="none" xmlns="http://www.w3.org/2000/svg"><path fill-rule="evenodd" clip-rule="evenodd" d="M1.5 2h13l.5.5v5.50305a5.00609 5.00609 0 00-1-.5835V3H2v9h5a4.99983 4.99983 0 001 3H4v-1h3v-1H1.5l-.5-.5v-10l.5-.5z" fill="#424242"/><path fill-rule="evenodd" clip-rule="evenodd" d="M11.9994 9a3.00013 3.00013 0 00-2.77104 1.8519 3.00022 3.00022 0 00-.17071 1.7334 2.99973 2.99973 0 00.82103 1.536 3.00005 3.00005 0 001.53602.8211c.582.1157 1.1852.0563 1.7334-.1708a2.99922 2.99922 0 001.3463-1.1049A2.9995 2.9995 0 0015 12.0005a3.00533 3.00533 0 00-.8801-2.12038A3.00507 3.00507 0 0011.9994 9zM12 8a3.9999 3.9999 0 00-3.69552 2.4693 3.99985 3.99985 0 00.86709 4.3591 3.99974 3.99974 0 002.04803 1.0947c.776.1544 1.5802.0752 2.3111-.2276a3.9996 3.9996 0 001.7952-1.4732A4.00031 4.00031 0 0016 12a4.00468 4.00468 0 00-1.173-2.82699A4.00496 4.00496 0 0012 8z" fill="#424242"/></svg>