<svg viewBox="0 0 16 16" fill="none" xmlns="http://www.w3.org/2000/svg"><path fill-rule="evenodd" clip-rule="evenodd" d="M12.0275 6.14861a5.52001 5.52001 0 01-1.27 3.90889l4.26 4.2601-.6999.7099-4.2601-4.27a5.51998 5.51998 0 01-7.61189-.5133C1.48684 9.19523.96949 7.81691 1.00139 6.39617c.0319-1.42075.61049-2.77455 1.61536-3.77942s2.35867-1.58346 3.77942-1.61536c1.42074-.0319 2.79906.48545 3.84803 1.44422a5.51998 5.51998 0 011.7833 3.703zM6.57756 11.0375A4.50962 4.50962 0 009.7575 9.71758l-.03992.02002a4.50984 4.50984 0 001.00072-1.46375 4.5098 4.5098 0 00.3593-1.73633c0-.89001-.264-1.75997-.7585-2.5a4.49988 4.49988 0 00-4.61947-1.91357 4.49995 4.49995 0 00-2.30407 1.23157 4.49995 4.49995 0 00-.97547 4.90405 4.49989 4.49989 0 004.15747 2.77793zm-2.54008-4.98h5v1h-5v-1z" fill="#424242"/></svg>