<svg viewBox="0 0 16 16" fill="none" xmlns="http://www.w3.org/2000/svg"><path d="M13.4 10.6c-.3-.8-.4-1.6-.4-2.4v-2c0-1.3-.4-2.5-1.3-3.4-.8-1-2-1.6-3.2-1.7-.7-.1-1.4-.1-2.1.2-.7.3-1.3.5-1.8 1s-.9 1-1.2 1.7c-.3.6-.4 1.3-.4 2v2.2c0 .8-.2 1.6-.4 2.4L2 12.3l.5.7H6c0 .5.2 1 .6 1.4.3.4.8.6 1.4.6.6 0 1-.2 1.4-.6.4-.4.6-.9.6-1.4h3.5l.5-.7-.6-1.7zm-4.7 3.1c-.2.2-.5.3-.7.3-.2 0-.5-.1-.7-.3-.2-.2-.3-.4-.3-.7h2c0 .3-.1.5-.3.7zm.7-1.7H3.2l.4-1.1c.2-.9.4-1.8.4-2.7V6c0-.6.1-1.1.3-1.6.2-.5.6-1 1-1.3.4-.4.9-.7 1.4-.8C7.3 2 7.8 2 8.4 2c1 .1 1.9.6 2.6 1.4.7.8 1 1.8 1 2.8v2c0 .9.1 1.8.4 2.7l.4 1.1H9.4z" fill="#C5C5C5"/></svg>