<svg viewBox="0 0 16 16" fill="none" xmlns="http://www.w3.org/2000/svg"><path fill-rule="evenodd" clip-rule="evenodd" d="M8 1a6.99992 6.99992 0 014.4406 1.58924 7.00036 7.00036 0 012.4245 4.04559 7.0004 7.0004 0 01-.6924 4.66537 6.9997 6.9997 0 01-3.4948 3.1671 6.99984 6.99984 0 01-8.49891-2.5786A7.00007 7.00007 0 013.05 3.05 7 7 0 018 1zM2 8a5.99991 5.99991 0 001.42 3.87l8.45-8.45A6.00011 6.00011 0 008.8 2.05a5.99996 5.99996 0 00-4.75103 1.43097A5.99996 5.99996 0 002 8zm12 0a6.00004 6.00004 0 00-1.42-3.87l-8.45 8.45A5.99951 5.99951 0 007.2 14a6.00046 6.00046 0 002.5424-.2049 5.99877 5.99877 0 002.2276-1.2425 5.99863 5.99863 0 001.5101-2.0555A5.99896 5.99896 0 0014 8z" fill="#C5C5C5"/></svg>