<svg viewBox="0 0 16 16" fill="none" xmlns="http://www.w3.org/2000/svg"><path fill-rule="evenodd" clip-rule="evenodd" d="M1 3.5l.5-.5h13l.5.5v9l-.5.5h-13l-.5-.5v-9zM14 4H8v3.49297l-.10207-.00012L7.5 7.49225v.00012l-3.57386-.0043 2.09024-2.09023-.70711-.70711-2.95571 2.95572v.7071l2.95571 2.95575.70711-.7071-2.1141-2.11413 3.99532.00478L8 8.493v-.98598l3.9073.0052-2.11441-2.11438.70711-.70711 2.9557 2.95572v.7071L10.5 11.3093l-.70711-.7071 2.08991-2.08998L8 8.50702V12h6V4z" fill="#C5C5C5"/></svg>