<svg viewBox="0 0 16 16" fill="none" xmlns="http://www.w3.org/2000/svg"><path fill-rule="evenodd" clip-rule="evenodd" d="M5.77772 4.67407a4 4 0 015.05068.49756A3.99967 3.99967 0 0112 8a4.00027 4.00027 0 01-.6741 2.2223 4.00065 4.00065 0 01-1.79513 1.4733 4.00073 4.00073 0 01-2.3111.2275 3.99984 3.99984 0 01-2.04809-1.0947 3.9998 3.9998 0 01-.86707-4.35916 3.99998 3.99998 0 011.47321-1.79517zm.69446 5.61243A2.74995 2.74995 0 0010.75 8c0-.5439-.1613-1.0756-.4634-1.52783a2.75028 2.75028 0 00-1.23422-1.01282 2.74998 2.74998 0 00-1.58887-.15649A2.74985 2.74985 0 005.30286 7.4635a2.74998 2.74998 0 001.16932 2.823zM9.5 6.5h-3v1h3v-1zm0 2h-3v1h3v-1z" fill="#848484"/></svg>