<svg viewBox="0 0 16 16" fill="none" xmlns="http://www.w3.org/2000/svg"><path fill-rule="evenodd" clip-rule="evenodd" d="M12.5108 4.66879v5.78381l.0081-.0081c.4761.1218.8912.4133 1.1676.8195.2764.4063.3951.8995.3337 1.3871a2.0174 2.0174 0 01-.6671 1.2609 2.0179 2.0179 0 01-1.3345.5044c-.4913 0-.9659-.1794-1.3345-.5044a2.0174 2.0174 0 01-.6671-1.2609 2.0174 2.0174 0 01.3337-1.3871 2.01701 2.01701 0 011.1676-.8195V4.66879a.65885.65885 0 00-.0488-.25222.65075.65075 0 00-.1465-.21956.57723.57723 0 00-.2195-.14647.65955.65955 0 00-.2522-.04886H8.04478l1.30155 1.34227-.72401.69144-2.11503-2.18822v-.69958L8.67922.9837l.69968.70773-1.30979 1.30969h2.77399a1.62743 1.62743 0 01.6427.13018c.2005.08341.3828.20492.5369.35789.1548.15743.2788.34228.366.54507.0811.2017.1225.41715.1221.63453zm-1.0716 8.57751c.1683.1107.3658.169.5672.1674v.0163c.1343-.0011.2669-.0287.3904-.0813.1235-.0526.2354-.1291.3292-.2251a1.0186 1.0186 0 00.2172-.3345c.0497-.1247.0741-.258.0719-.3922 0-.2015-.0599-.3985-.172-.5659a1.01613 1.01613 0 00-.4576-.3743 1.01693 1.01693 0 00-.5886-.0565 1.01658 1.01658 0 00-.5205.2806c-.1419.143-.2381.3249-.2764.5227a1.01694 1.01694 0 00.4392 1.0428zm-4.46013-1.2562l-1.30155-1.3422.71587-.72406 2.11503 2.18836v.6995l-2.17203 2.1558-.69958-.7077 1.30969-1.3017H4.1726a1.68382 1.68382 0 01-1.1658-.4756 1.68432 1.68432 0 01-.51001-1.1514V5.48227a2.00939 2.00939 0 01-1.16184-.81706 2.00915 2.00915 0 01-.33127-1.38109 2.00928 2.00928 0 01.66473-1.25517 2.00925 2.00925 0 011.32866-.50197 2.0094 2.0094 0 011.99348 1.75714 2.00915 2.00915 0 01-.33137 1.38109 2.00937 2.00937 0 01-1.16183.81706V11.323a.66725.66725 0 00.05154.2572.66772.66772 0 00.14677.2175.66841.66841 0 00.21916.144.6674.6674 0 00.25778.0484h2.80647zM2.16859 2.96189a1.01708 1.01708 0 00-.16802.56801 1.01684 1.01684 0 00.29781.7109 1.01679 1.01679 0 00.7109.2978 1.01683 1.01683 0 00.56801-.16792 1.01678 1.01678 0 00.43782-1.04525 1.01675 1.01675 0 00-.27864-.52262 1.0168 1.0168 0 00-1.11198-.21886 1.01647 1.01647 0 00-.4559.37794z" fill="#C5C5C5"/></svg>