<svg viewBox="0 0 16 16" fill="none" xmlns="http://www.w3.org/2000/svg"><path d="M9.99999 8a2.00021 2.00021 0 01-1.23462 1.84778 2.0001 2.0001 0 01-2.17957-.4336 2.00005 2.00005 0 01-.43359-2.17956A2.00021 2.00021 0 017.99999 6a1.99992 1.99992 0 011.41418.58582A1.99992 1.99992 0 019.99999 8z" fill="#E51400"/><path d="M14.5 7.15002l-4.26-4.73999L9.31006 2H4.25L3 3.25v9.48l1.25 1.25h5.06006l.92994-.4199 4.26-4.74015V7.15002zM9.31006 12.73H4.25V3.25h5.06006l4.25984 4.72998L9.31006 12.73z" fill="#FC0"/></svg>