<svg viewBox="0 0 16 16" fill="none" xmlns="http://www.w3.org/2000/svg"><path d="M4 8a1.00002 1.00002 0 01-1.70711.70711 1.00001 1.00001 0 011.41422-1.41422A1.00003 1.00003 0 014 8zM9 8a1.00002 1.00002 0 01-1.70711.70711 1.00001 1.00001 0 011.41422-1.41422A1.00003 1.00003 0 019 8zM14 8a.99983.99983 0 01-.6173.92388 1.00008 1.00008 0 01-.5778.05691.99973.99973 0 01-.512-.27368.99984.99984 0 01-.2737-.51202.99976.99976 0 01.0569-.57777 1.00036 1.00036 0 01.3683-.44879A1.00018 1.00018 0 0113 7a.99997.99997 0 011 1z" fill="#C5C5C5"/></svg>