<svg viewBox="0 0 16 16" fill="none" xmlns="http://www.w3.org/2000/svg"><path fill-rule="evenodd" clip-rule="evenodd" d="M8 2c-1.5 0-2.8.4-3.9 1.2l.8.7C5.8 3.3 6.8 3 8 3c3.3 0 6 2.7 6 6h1c0-3.9-3.1-7-7-7zM1 3.00005l1.6 1.5c-1 1.2-1.6 2.8-1.6 4.5h1c0-1.5.5-2.8 1.4-3.8l2.2 2c-.4.5-.6 1.1-.6 1.8C5 10.7 6.3 12 8 12c.8 0 1.5-.3 2-.8l3 2.8.7-.7-12-10.99995-.7.7zm5.3 4.9L9.2 10.6c-.3.2-.7.4-1.2.4-1.1 0-2-.9-2-1.99995 0-.4.1-.8.3-1.1zM11 9.5l-1-.9c-.2-.8-.9-1.5-1.8-1.6l-1-.9c.3-.1.5-.1.8-.1 1.7 0 3 1.3 3 3v.5z" fill="#C5C5C5"/></svg>