<svg viewBox="0 0 16 16" fill="none" xmlns="http://www.w3.org/2000/svg"><path d="M9.13 15l-.53-.77a1.84997 1.84997 0 00-.28-2.54 3.50989 3.50989 0 01-1.19-2c-1.56 2.23-.75 3.46 0 4.55l-.55.76a4.39984 4.39984 0 01-2.64035-1.5995A4.39983 4.39983 0 013 10.46S2.79 8.3 5.28 6.19c0 0 2.82-2.61 1.84-4.54L7.83 1a6.57038 6.57038 0 012.3776 3.06664A6.57034 6.57034 0 0110.44 7.94a2.57038 2.57038 0 00.56-.81l.87-.07c.07.12 1.84 2.93.89 5.3a4.72048 4.72048 0 01-1.4811 1.7791A4.71938 4.71938 0 019.13 15zm-2-6.95l.87.39a2.99998 2.99998 0 00.92 2.48c.42863.3123.75328.7464.93165 1.2458A2.64055 2.64055 0 019.92 13.72a3.24136 3.24136 0 001.1162-.6674c.3231-.2957.583-.6537.7638-1.0526a4.87011 4.87011 0 00-.41-3.63 1.8502 1.8502 0 01-.7914.70509A1.85021 1.85021 0 019.55 9.23l-.35-.68a5.30996 5.30996 0 00-.89-5.8C8.17 4.87 6 6.83 5.93 6.94 3.86 8.7 4 10.33 4 10.4a3.46985 3.46985 0 00.36735 1.7865A3.4698 3.4698 0 005.59 13.54C5 12.14 5 10.46 7.16 8.05h-.03z" fill="#C5C5C5"/></svg>