<svg viewBox="0 0 16 16" fill="none" xmlns="http://www.w3.org/2000/svg"><path d="M5.03894 2.49055a1.49986 1.49986 0 00-.25-.82996 1.5502 1.5502 0 00-.67999-.56006 1.49006 1.49006 0 00-.86002-.07995 1.48995 1.48995 0 00-1.17999 1.17993 1.4899 1.4899 0 00.07999.85998 1.55022 1.55022 0 00.56002.68006 1.5 1.5 0 00.75956.2489 1.49997 1.49997 0 00.77954-.17651 1.50012 1.50012 0 00.79089-1.32239z" fill="#C5C5C5"/><path d="M6.11891 10.7205l1.27002 1.2701h-1.85a1.50008 1.50008 0 01-1.5-1.5V4.99056a2.44015 2.44015 0 00.45999-.14002 2.49987 2.49987 0 001.12014-.92151 2.49995 2.49995 0 00.41987-1.38842 2.44991 2.44991 0 00-.19001-1 2.48031 2.48031 0 00-.53988-.81019 2.48019 2.48019 0 00-.81012-.53991 2.44995 2.44995 0 00-1-.18994 2.49999 2.49999 0 00-1.3884.41992 2.50005 2.50005 0 00-.9216 1.12012 2.51995 2.51995 0 00.54001 2.72998 2.58995 2.58995 0 001.26999.67993v5.55008a2.48972 2.48972 0 00.18762.9582c.12517.3039.30925.5801.54166.8125.23241.2324.50855.4165.81247.5416a2.4898 2.4898 0 00.95825.1877h1.85l-1.26999 1.27.71.7099 2.13-2.13v-.6999l-2.13-2.13-.67002.6999zM3.53893 3.99056a1.49999 1.49999 0 01-.82999-.25 1.55018 1.55018 0 01-.56003-.68006 1.48999 1.48999 0 01-.07999-.85998 1.48978 1.48978 0 01.40931-.77063 1.48995 1.48995 0 01.77069-.4093 1.49 1.49 0 01.86001.07995 1.55015 1.55015 0 01.68.56006 1.49992 1.49992 0 01.07235 1.53906 1.49996 1.49996 0 01-1.32235.7909zM14.309 10.7206a2.51091 2.51091 0 00-1.2701-.68v-5.55a2.48788 2.48788 0 00-.1876-.95825 2.4894 2.4894 0 00-.5417-.8125 2.49004 2.49004 0 00-1.7707-.72925H8.68896L9.95892.72058 9.24896.01062l-2.13003 2.13v.69996l2.13003 2.13.70996-.70996L8.68896 2.9906h1.84994c.3979 0 .7794.15803 1.0607.43933.2813.28131.4393.66285.4393 1.06067v5.55c-.3185.0622-.6212.188-.89.37a2.57152 2.57152 0 00-.92 1.12 2.50052 2.50052 0 00-.1454 1.4473c.096.4862.3344.9329.6848 1.2833a2.499 2.499 0 001.2833.6848c.4862.0961.99.0455 1.4474-.1453.4562-.1898.846-.5105 1.1201-.9217.2741-.4111.4202-.8943.4198-1.3884a2.51004 2.51004 0 00-.7299-1.77zm-.7101 2.8301a1.49956 1.49956 0 01-.911.4322 1.50058 1.50058 0 01-.979-.2423 1.55004 1.55004 0 01-.56-.6801 1.48894 1.48894 0 01-.0799-.8599c.0564-.292.199-.5604.4093-.7707a1.4902 1.4902 0 01.7707-.4093 1.4898 1.4898 0 01.8599.08c.2761.117.5123.3115.68.56.1914.2886.277.6344.2423.9789a1.49966 1.49966 0 01-.4323.9112z" fill="#C5C5C5"/></svg>