<svg viewBox="0 0 16 16" fill="none" xmlns="http://www.w3.org/2000/svg"><path fill-rule="evenodd" clip-rule="evenodd" d="M3.88999 2.10001A6.50012 6.50012 0 019.0698 1.215a6.5006 6.5006 0 012.4122 1.18003 6.49986 6.49986 0 011.7293 2.05439 6.50013 6.50013 0 01.7514 2.5781 6.50259 6.50259 0 01-.3549 2.6618 6.50088 6.50088 0 01-1.4006 2.29118 6.50026 6.50026 0 01-6.89745 1.664 6.50048 6.50048 0 01-3.55871-3.0582 6.49996 6.49996 0 012.13895-8.48629zm.55 9.99999a5.50078 5.50078 0 002.10354.7886 5.50156 5.50156 0 002.24337-.1183 5.50016 5.50016 0 002.0089-1.0055 5.49764 5.49764 0 001.4394-1.7248 5.50034 5.50034 0 00.6296-2.15645 5.49865 5.49865 0 00-.2852-2.22832 5.4992 5.4992 0 00-1.1523-1.92842 5.5001 5.5001 0 00-1.82731-1.3068 5.38007 5.38007 0 00-3.17-.31 5.47005 5.47005 0 00-4.32 4.32 5.5 5.5 0 002.33 5.63999v.03zm3.97-8.09999a2.26007 2.26007 0 00-.85-.17 2.09021 2.09021 0 00-.85.17 2.33008 2.33008 0 00-.7.47 2.13992 2.13992 0 00-.46.69 1.92982 1.92982 0 00-.17.84h.87a1.29995 1.29995 0 01.8-1.21 1.30011 1.30011 0 01.51-.11 1.35017 1.35017 0 01.52.11 1.33004 1.33004 0 01.7.7 1.45022 1.45022 0 01.1.51 1.18022 1.18022 0 01-.13.52 2.34013 2.34013 0 01-.33.43l-.42.37a4.47018 4.47018 0 00-.42.45 2.14017 2.14017 0 00-.32.55 1.56983 1.56983 0 00-.13.68v.44h.87v-.44a1.06 1.06 0 01.13-.52 2.23984 2.23984 0 01.33-.43 5.42203 5.42203 0 01.42-.4 4.47033 4.47033 0 00.42-.45 2.14012 2.14012 0 00.32-.55 1.72017 1.72017 0 00.13-.65 2.26007 2.26007 0 00-.17-.85 2.30007 2.30007 0 00-1.17-1.15zm-.41 7.21999v-.88h-.87v.88h.87z" fill="#C5C5C5"/></svg>