<svg viewBox="0 0 16 16" fill="none" xmlns="http://www.w3.org/2000/svg"><path fill-rule="evenodd" clip-rule="evenodd" d="M13.5072 12.3239A6.99949 6.99949 0 0015 8.00045a7.00011 7.00011 0 00-1.4277-4.23717A7.00005 7.00005 0 002 4.39445v-2.394H1v3.5l.5.5H5v-1H2.811a6.00797 6.00797 0 016.82576-2.77632 6.00832 6.00832 0 013.20574 2.21174 6.0076 6.0076 0 011.1757 3.71292 6.00784 6.00784 0 01-1.3481 3.65381 6.00836 6.00836 0 01-3.30567 2.0594 6.00748 6.00748 0 01-3.874-.4005 6.00794 6.00794 0 01-2.81443-2.692l-.887.462a7.00017 7.00017 0 003.31976 3.1464 7.00018 7.00018 0 004.55421.4246 6.99952 6.99952 0 003.84423-2.4786zm-3.3612-.9694l.708-.708L8 7.79349v-3.793H7v4l.146.354 3 3.00001z" fill="#C5C5C5"/></svg>