<svg viewBox="0 0 16 16" fill="none" xmlns="http://www.w3.org/2000/svg"><path fill-rule="evenodd" clip-rule="evenodd" d="M8.56838 1.03128A6.79993 6.79993 0 0112.76 3.04996c1.2163 1.23559 1.9355 2.87556 2.0203 4.6073.0848 1.73173-.4705 3.43404-1.5602 4.78254a6.84997 6.84997 0 01-3.97581 2.4196 6.85006 6.85006 0 01-4.60425-.6794 7.0005 7.0005 0 01-3.12-3.5 7.12038 7.12038 0 01-.23001-4.71012 6.99976 6.99976 0 012.76999-3.78992 6.80002 6.80002 0 014.50836-1.14868zm.47168 12.84862A5.89002 5.89002 0 0012.45 11.81a6.07072 6.07072 0 001.3334-4.10624c-.0737-1.48584-.6906-2.89283-1.7334-3.95385A5.81987 5.81987 0 008.46932 2.0314a5.81994 5.81994 0 00-3.8493.97852 6.05991 6.05991 0 00-1.99311 2.30273 6.06006 6.06006 0 00.28614 5.88865A6.0604 6.0604 0 005.12002 13.3a5.8103 5.8103 0 003.92004.5799zm-.53004-6.87993h-1V11h1V6.99997zm0-2h-1v1h1v-1z" fill="#75BEFF"/></svg>