<svg viewBox="0 0 16 16" fill="none" xmlns="http://www.w3.org/2000/svg"><path d="M9.00098 13.5928l-.09668.3252H4l.12305-.3252c.49218-.0117.81738-.0528.97558-.1231.25782-.0996.44825-.2373.57129-.4131.19336-.2754.39258-.7675.59766-1.4765L8.3418 4.39062c.17578-.59765.26367-1.04882.26367-1.35351 0-.15234-.03809-.28125-.11426-.38672-.07617-.10547-.19336-.18457-.35156-.2373-.15235-.0586-.4541-.08789-.90527-.08789L7.33984 2h4.60546l-.0967.3252c-.375-.00586-.6533.03515-.8349.12304-.2637.11719-.4658.28418-.6065.50098-.1347.2168-.3105.69726-.52732 1.4414L7.81445 11.5801c-.1875.6621-.28125 1.084-.28125 1.2656 0 .1465.03516.2725.10547.3779.07617.0996.19336.1787.35156.2373.16407.0528.50098.0967 1.01075.1319z" fill="#C5C5C5"/></svg>