<svg viewBox="0 0 16 16" fill="none" xmlns="http://www.w3.org/2000/svg"><path fill-rule="evenodd" clip-rule="evenodd" d="M7.44443 13.8315A.99983.99983 0 008 14a.99997.99997 0 001-1c0-.1978-.05865-.3911-.16853-.5556a1.00036 1.00036 0 00-.44879-.3683.99976.99976 0 00-.57777-.0569.99984.99984 0 00-.51202.2737.99964.99964 0 00-.27367.512.99999.99999 0 00.42521 1.0266zM8 9a1.00002 1.00002 0 01-.70711-1.70711A1 1 0 118 9zm0-5a1.00002 1.00002 0 01-.98078-1.19509A.99999.99999 0 019 3a.99999.99999 0 01-1 1z" fill="#C5C5C5"/></svg>