<svg viewBox="0 0 16 16" fill="none" xmlns="http://www.w3.org/2000/svg"><path fill-rule="evenodd" clip-rule="evenodd" d="M11.351 1.09104a4.52806 4.52806 0 012.303 1.23984 4.57266 4.57266 0 011.1371 1.92025 4.57398 4.57398 0 01.0929 2.22975 4.58322 4.58322 0 01-1.5888 2.57608 4.58294 4.58294 0 01-2.8482 1.02394 4.46863 4.46863 0 01-1.293-.18902l-.8.93702-.379.175H7v1.5l-.5.5H5v1.5l-.5.5h-3l-.5-.5v-2.307l.146-.353L6.12 6.87088a4.4641 4.4641 0 01-.2-1.405 4.52805 4.52805 0 015.431-4.37484zm1.3183 7.19957a3.56797 3.56797 0 001.2387-2.00473l.004.005a3.54347 3.54347 0 00-.0657-1.74194 3.54403 3.54403 0 00-.8885-1.49975A3.5428 3.5428 0 009.72 2.08188a3.576 3.576 0 00-2.8 3.4 3.375 3.375 0 00.239 1.33l-.11.542L2 12.4039v1.6h2v-1.5l.5-.5H6v-1.5l.5-.5h1.245l.876-1.01602.561-.14a3.47002 3.47002 0 001.269.238 3.5679 3.5679 0 002.2183-.79527zm-.8378-2.73113A.99983.99983 0 0012 5.00391c0-.26522-.1054-.51957-.2929-.70711A.99993.99993 0 0011 4.00391c-.1978 0-.3911.05865-.5556.16853a1.00039 1.00039 0 00-.3683.44878 1.00005 1.00005 0 00-.0569.57778.99977.99977 0 00.2737.51201 1.00007 1.00007 0 001.5386-.15153z" fill="#C5C5C5"/></svg>