<svg viewBox="0 0 16 16" fill="none" xmlns="http://www.w3.org/2000/svg"><path fill-rule="evenodd" clip-rule="evenodd" d="M11.6708 8.65806c-.3389.33354-.5992.70472-.7822 1.11366-.1781.40748-.2676.85018-.2676 1.32918v1.6003c0 .1795-.0338.3491-.1021.5079-.0676.157-.1603.2947-.2782.4122s-.25606.2098-.41347.2771c-.15917.0679-.32917.1016-.509.1016H7.71205c-.17982 0-.34982-.0337-.50899-.1016-.15742-.0673-.29553-.1596-.41345-.2771-.11793-.1175-.21066-.2552-.2782-.4122-.0683-.1588-.10214-.3284-.10214-.5079v-1.6003c0-.4789-.09155-.9214-.27374-1.32881-.1787-.40873-.43721-.78053-.776-1.11403-.43485-.42903-.77057-.90803-1.00592-1.43672C4.11756 6.69107 4 6.11672 4 5.49953c0-.41289.05342-.81151.16048-1.19556.1068-.38308.25859-.74111.45547-1.07379.19662-.33641.43182-.64107.70551-.91377.27357-.27258.57712-.50688.91049-.70277.33784-.196.69951-.34744 1.08383-.45381C7.70106 1.0532 8.10094 1 8.51514 1s.81409.0532 1.19937.15983c.38429.10637.74349.25756 1.07729.45368.3376.19587.6433.43019.917.7029.2737.27269.5089.57735.7055.91375.1969.33269.3487.69072.4555 1.07381.1071.38405.1605.78267.1605 1.19556 0 .61719-.1176 1.19154-.3536 1.72181-.2354.52869-.5711 1.00769-1.0059 1.43672zM9.62162 10.5H7.40867v2.2012c0 .0811.02853.15.09021.2115.0617.0614.13119.0901.21317.0901h1.60618c.08199 0 .15148-.0287.21317-.0901.06169-.0615.09022-.1304.09022-.2115V10.5z" fill="#FC0"/></svg>