<svg viewBox="0 0 16 16" fill="none" xmlns="http://www.w3.org/2000/svg"><path d="M10.4653 12.36a5.5156 5.5156 0 01-3.05304.736 4.26205 4.26205 0 01-1.79536-.2515 4.26006 4.26006 0 01-1.52821-.9753 4.26009 4.26009 0 01-1.24643-3.31625 5.381 5.381 0 015.391-5.571c2.37704 0 4.41304 1.375 4.41304 4.006 0 2.182-1.292 3.66005-2.90004 3.66005-.676 0-1.1-.274-1.126-.91705a2.01212 2.01212 0 01-1.756.91305c-.969 0-1.629-.64505-1.629-1.92305 0-1.763 1.148-3.4 2.62-3.4a1.314 1.314 0 011.427.93l.211-.809h.90004l-.79304 3.204c-.226.916-.13 1.215.342 1.215.98404 0 1.83304-1.21 1.83304-2.825 0-2.068-1.445-3.265-3.61104-3.265-2.642 0-4.373 2.132-4.381 4.786a3.4428 3.4428 0 00.19635 1.46205c.17031.4675.43991.8925.79022 1.2457a3.4438 3.4438 0 001.23904.8007 3.44342 3.44342 0 001.46039.2086 5.50197 5.50197 0 002.80004-.634l.196.72zM6.21726 8.63895c0 .788.307 1.206.913 1.206.758 0 1.38-.6 1.683-1.831.323-1.268.036-1.914-.873-1.914-1.04 0-1.723 1.339-1.723 2.539z" fill="#C5C5C5"/></svg>