<svg viewBox="0 0 16 16" fill="none" xmlns="http://www.w3.org/2000/svg"><path fill-rule="evenodd" clip-rule="evenodd" d="M10.2322 10.7071L8.5 12.4393V9.00001h-1v3.43929l-1.73223-1.7322-.70711.7071L7.64645 14h.7071l2.58575-2.5858-.7071-.7071zM5.76777 4.29289L7.5 2.56066v3.43933h1V2.56066l1.7322 1.73223.7071-.7071L8.35355 1h-.7071L5.06066 3.58579l.70711.7071zm-2.70711 3.7071l1.73223 1.73223-.7071.70708L1.5 7.85355v-.70711l2.58578-2.58579.70711.70711-1.73223 1.73223h3.43933v1H3.06066zm6.43935-1h3.43929l-1.7322-1.73223.7071-.70711L14.5 7.14644v.7071l-2.5858 2.58576-.7071-.70708 1.7322-1.73223H9.50001v-1z" fill="#C5C5C5"/></svg>