<svg viewBox="0 0 16 16" fill="none" xmlns="http://www.w3.org/2000/svg"><path fill-rule="evenodd" clip-rule="evenodd" d="M13.8625 5.67248c.1137-.28.4813-1.39125-.1138-2.89625 0 0-.9187-.28875-3.0099 1.1375-.87505-.245-1.8113-.28-2.7388-.28s-1.86375.035-2.73875.28c-2.09125-1.435-3.01-1.1375-3.01-1.1375-.595 1.505-.2275 2.61625-.11375 2.89625C1.42875 6.43373 1 7.41373 1 8.60373 1 13.11 3.91375 14.125 7.9825 14.125 12.0513 14.125 15 13.11 15 8.60373c0-1.19-.4288-2.17-1.1375-2.93125zM8 13.2675c-2.8875 0-5.2325-.1313-5.2325-2.9313 0-.66497.3325-1.29497.8925-1.81122.93625-.8575 2.5375-.4025 4.34-.4025 1.81125 0 3.395-.455 4.34.4025.5687.51625.8925 1.1375.8925 1.81122 0 2.7913-2.345 2.9313-5.2325 2.9313zM5.80375 8.88373c-.5775 0-1.05.7-1.05 1.55747 0 .8575.4725 1.5663 1.05 1.5663.5775 0 1.05-.7 1.05-1.5663 0-.86622-.4725-1.55747-1.05-1.55747zm4.39245 0c-.57745 0-1.04995.69125-1.04995 1.55747 0 .8663.4725 1.5663 1.04995 1.5663.5776 0 1.0501-.7 1.0501-1.5663 0-.86622-.4638-1.55747-1.0501-1.55747z" fill="#C5C5C5"/></svg>