<svg viewBox="0 0 16 16" fill="none" xmlns="http://www.w3.org/2000/svg"><path d="M14.5406 11.8111l-1.14-3.12013v-.05994L8.49062 3.721V2.48101a1.65967 1.65967 0 00-.10999-.57996 1.48011 1.48011 0 00-.33392-.48413 1.48007 1.48007 0 00-.4961-.31592 1.42 1.42 0 00-.58001-.09997 1.37992 1.37992 0 00-.57001.10998 1.47 1.47 0 00-.79999.80005 1.3796 1.3796 0 00-.10998.56995v3.26001l-3.06 3a1.52012 1.52012 0 00-.4306 1.06005c0 .39593.15449.77613.4306 1.05993l3.63 3.63c.14002.1412.30653.2533.48999.33a1.53058 1.53058 0 001.14002 0 1.5103 1.5103 0 00.48999-.33l4.92998-4.92003-.66 2.20003a1.1907 1.1907 0 000 .46c.0321.1521.0969.2955.19.4201.0969.1209.2156.2226.35.2999.1404.07.2935.1108.45.12.165.0101.3299-.0208.48-.09.1493-.0675.2824-.1665.39-.29a.99995.99995 0 00.22-.44c.0314-.1447.0348-.294.01-.4399zm-8-9.33009a.46002.46002 0 010-.19995.52006.52006 0 01.12-.17005.63994.63994 0 01.17999-.09997.49995.49995 0 01.21002 0 .50004.50004 0 01.32001.15002.49991.49991 0 01.12.32996v1.26001l-1 1 .04998-2.27002zm1 11.34999a.36078.36078 0 01-.15997.11.47088.47088 0 01-.19.0401.47084.47084 0 01-.19-.0401.36093.36093 0 01-.16004-.11l-3.63-3.62a.57069.57069 0 01-.10999-.1599.5005.5005 0 01-.03955-.19509c0-.067.01342-.13326.03955-.19495a.57017.57017 0 01.10999-.16003l4.35003-4.34998v2.84998a.73993.73993 0 00-.23999.55005.75012.75012 0 00.31598.6831.75003.75003 0 00.36621.1333.75009.75009 0 00.68116-.32019.75016.75016 0 00.13104-.36706.75034.75034 0 00-.07086-.3833.74983.74983 0 00-.25354-.2959V5.17107l3.84998 3.87-4.8 4.78993z" fill="#C5C5C5"/></svg>