<svg viewBox="0 0 16 16" fill="none" xmlns="http://www.w3.org/2000/svg"><path fill-rule="evenodd" clip-rule="evenodd" d="M11 6h-1v-.5c0-.27614-.22386-.5-.5-.5H8.479v5.5c0 .2761.22386.5.5.5h.5v1h-3v-1h.5c.27615 0 .5-.2239.5-.5V5H6.5c-.27614 0-.5.22386-.5.5V6H5V4h6v2zm2.9142 2.0481l-1.4623-1.46229.7071-.7071 1.8159 1.81583v.70711l-1.7678 1.76775-.7071-.70709 1.4142-1.41421zM3.54809 9.4623l-1.4623-1.46228L3.5 6.58581l-.7071-.70711-1.76777 1.76777v.7071l1.81585 1.81583.70711-.7071z" fill="#C5C5C5"/></svg>