<svg viewBox="0 0 16 16" fill="none" xmlns="http://www.w3.org/2000/svg"><path fill-rule="evenodd" clip-rule="evenodd" d="M5.56253 2.5158C3.46348 3.45013 2 5.55417 2 8.00002 2 11.3137 4.68629 14 8 14c3.3137 0 6-2.6863 6-5.99998 0-2.6748-1.7503-4.9408-4.16801-5.71517l-.30231.9535C11.5429 3.88457 13 5.77213 13 8.00002 13 10.7614 10.7614 13 8 13c-2.76142 0-5-2.2386-5-4.99998 0-1.68895.83742-3.18232 2.11969-4.08754l.44284-1.39668z" fill="#C5C5C5"/><path fill-rule="evenodd" clip-rule="evenodd" d="M5 3H2V2h3.5l.5.5V6H5V3z" fill="#C5C5C5"/></svg>