<svg viewBox="0 0 16 16" fill="none" xmlns="http://www.w3.org/2000/svg"><path d="M14 4.00002a2.00075 2.00075 0 00-.303-1.06237 1.9997 1.9997 0 00-.8208-.73945 1.99993 1.99993 0 00-2.1116.22498 1.99997 1.99997 0 00-.6465.89578 2.00037 2.00037 0 00-.0724 1.10237c.0799.36696.2615.70402.524.97261.2625.26858.5953.45783.9603.54608v1.06a.48017.48017 0 01-.0708.25939.48012.48012 0 01-.1992.18061l-2.77 1.44-2.76-1.4a.49004.49004 0 01-.27-.48v-1.06a1.99997 1.99997 0 001.48406-2.1885 2.00002 2.00002 0 00-3.30618-1.24866A2 2 0 004.46 5.94002v1.06a1.50997 1.50997 0 00.82 1.34l2.72 1.4V11.06a2 2 0 00-1.48406 2.1885A1.99994 1.99994 0 008.5 14.9965c.48678 0 .95686-.1775 1.32211-.4993a2.00031 2.00031 0 00.66199-1.2487 2.00029 2.00029 0 00-.3288-1.3745A1.99997 1.99997 0 009 11.06V9.74002l2.7-1.36a1.49015 1.49015 0 00.82-1.38v-1.08a1.9995 1.9995 0 001.064-.71021A2.00005 2.00005 0 0014 4.00002zm-10 0a1.00002 1.00002 0 011.19509-.98078.99988.99988 0 01.51201.27368 1.00005 1.00005 0 01.21678 1.08979 1.00002 1.00002 0 01-1.63099.32442A.99999.99999 0 014 4.00002zM9.47 13c0 .1978-.05865.3911-.16853.5556a1.00041 1.00041 0 01-.44879.3683.99976.99976 0 01-.57777.0569.99976.99976 0 01-.51202-.2737.99973.99973 0 01-.27368-.512 1.00016 1.00016 0 01.05691-.5778.99943.99943 0 01.36831-.4487.9999.9999 0 01.93825-.0925c.12133.0503.23156.124.32442.2168a1.0007 1.0007 0 01.21678.3244c.05025.1214.07612.2514.07612.3827zM12 5.00002c-.1978 0-.3911-.05865-.5556-.16853a1.00039 1.00039 0 01-.3683-.44878.9998.9998 0 01-.0569-.57778.99977.99977 0 01.2737-.51201 1.00007 1.00007 0 011.5386.15153c.1098.16445.1685.35779.1685.55557 0 .26522-.1054.51957-.2929.70711A.99993.99993 0 0112 5.00002z" fill="#C5C5C5"/></svg>