<svg viewBox="0 0 16 16" fill="none" xmlns="http://www.w3.org/2000/svg"><path fill-rule="evenodd" clip-rule="evenodd" d="M13 10H3.99997V2h4V1H3.73996a1.9001 1.9001 0 00-.66998.13 1.66019 1.66019 0 00-.57001.41004 1.72979 1.72979 0 00-.36999.58996 1.68011 1.68011 0 00-.13001.62v9.5c-.0024.2298.04183.4578.13001.67.17531.4286.51332.7702.94.95.21365.0834.44063.1275.66998.13h.26001v-1h-.26001a.71984.71984 0 01-.28998-.0601.77949.77949 0 01-.40002-.3999.92966.92966 0 010-.29v-.5a.92966.92966 0 010-.29.77949.77949 0 01.40002-.3999A.71984.71984 0 013.73996 11H13v2H8.99997v1H13.5l.5-.5V9h-1v1zM6 3H5v1h1V3zM5 5h1v1H5V5zm0 2h1v1H5V7zm.28 8H5v-3h3v3h-.28L6.5 13.49 5.28 15zM10 1h4.5l.5.5v6l-.5.5H12v1h-1V8h-1a.99989.99989 0 01-.70709-.29285A1.00008 1.00008 0 019 7V2c0-.26522.10537-.51962.29291-.70715A.99989.99989 0 0110 1zm.5 6h.5V6h-.5a.50024.50024 0 00-.3536.14648A.50016.50016 0 0010 6.5c0 .13261.0527.25975.1464.35352A.50024.50024 0 0010.5 7zM12 7h2V6h-2v1zm-1-2h3V2h-3v3z" fill="#C5C5C5"/></svg>