<svg viewBox="0 0 16 16" fill="none" xmlns="http://www.w3.org/2000/svg"><path fill-rule="evenodd" clip-rule="evenodd" d="M14.491 1c-3.5984.0045-6.65368 1.98269-8.83465 4H1.5l-.5.5v3l.147.354.99096.99096.00103.00904 4 4 .00901.001.999.999L7.5 15h3l.5-.5v-4.154c2.019-2.17761 3.996-5.23299 3.992-8.846l-.501-.5zM2 6h2.64307C3.59247 7.10401 2.8317 8.11996 2.41843 8.71094L2 8.293V6zm5.7 8l-.41951-.4234c.59212-.4111 1.60946-1.1681 2.71451-2.2155V14H7.7zm-1.14301-1.144l-3.421-3.419C4.12799 8 8.37899 2.355 13.978 2.016c-.326 5.612-5.98701 9.853-7.42101 10.84zM4 15v-1H2v-2H1v3h3zm6.7475-7.66716A1.49923 1.49923 0 0011 6.50001a1.4999 1.4999 0 00-.1147-.57518 1.50015 1.50015 0 00-.3264-.48725 1.50032 1.50032 0 00-.4883-.32483 1.50003 1.50003 0 00-1.95785.81669 1.50006 1.50006 0 00-.08332.86626 1.50004 1.50004 0 002.04577 1.08964 1.4997 1.4997 0 00.6723-.5525z" fill="#C5C5C5"/></svg>