<svg viewBox="0 0 16 16" fill="none" xmlns="http://www.w3.org/2000/svg"><path fill-rule="evenodd" clip-rule="evenodd" d="M7.70996 3H14.5l.51.5v10l-.5.5H8.74284a5.50672 5.50672 0 00.65745-1H13.99v-1.51L14 7.48999v-1.5H7.68994l-.01698.01698a5.49417 5.49417 0 00-.88152-.50837l.34857-.34858L7.48999 5H13.99l.01-.98999H7.5l-.35999-.15002-.84997-.84998H2v2.5897a5.5066 5.5066 0 00-.98999.64921V2.5l.5-.5h5l.34998.15002L7.70996 3z" fill="#C5C5C5"/><path d="M6 10.5c0 .8284-.67157 1.5-1.5 1.5S3 11.3284 3 10.5C3 9.67157 3.67157 9 4.5 9S6 9.67157 6 10.5z" fill="#C4C4C4"/><path fill-rule="evenodd" clip-rule="evenodd" d="M8 10.5C8 12.433 6.433 14 4.5 14S1 12.433 1 10.5 2.567 7 4.5 7 8 8.567 8 10.5zM4.5 13C5.88071 13 7 11.8807 7 10.5 7 9.11929 5.88071 8 4.5 8S2 9.11929 2 10.5C2 11.8807 3.11929 13 4.5 13z" fill="#C4C4C4"/></svg>