<svg viewBox="0 0 16 16" fill="none" xmlns="http://www.w3.org/2000/svg"><path fill-rule="evenodd" clip-rule="evenodd" d="M5.55808 2.64202a3.69788 3.69788 0 00-.12353-.00985 1.47006 1.47006 0 00-1.43581-1.11212v1.30734a4.89786 4.89786 0 00-2.99287 3.58616v.38984c.45889.83681 1.90595 1.13094 2.15383 1.18132.02749.00559.04024.00818.03525.00818-2.41899.31987-2.18908 2.24901-2.18908 2.24901a.99937.99937 0 00.3164.662.99967.99967 0 00.68318.2677 2.58134 2.58134 0 00.78966-.18h2.05914a2.99997 2.99997 0 00-.35985.9996h-.31986a2.54954 2.54954 0 00-1.55493.861 2.54907 2.54907 0 00-.61416 1.668.4197.4197 0 00.01062.1721.41994.41994 0 00.07895.1533.42037.42037 0 00.13394.1087.42023.42023 0 00.16632.0457h6.6772a3.75995 3.75995 0 001.59072-.2652 3.7573 3.7573 0 001.3331-.9074c.3735-.3953.6568-.867.8302-1.3825a3.75844 3.75844 0 00.1743-1.6032 3.64865 3.64865 0 00-.7496-2.08913l-.11-.13994c-.4298-.54977-.6797-.90962-.5498-1.28946.13-.37984.3646-.39983.3646-.39983s.1852-.02999.4551.08996c.2203.12802.46.21918.7097.26989.2344.04431.4757.03495.706-.02737a1.5788 1.5788 0 00.6234-.33248 1.59809 1.59809 0 00.4064-.54496A1.59851 1.59851 0 0015 5.71385c.0059-.71822-.3305-1.4545-.7249-2.08755a4.99802 4.99802 0 00-1.5541-1.57092 3.9984 3.9984 0 00-2.6389-.39983 3.04874 3.04874 0 00-1.66934.88962 3.5686 3.5686 0 00-.77967 1.35943 4.35848 4.35848 0 00-.63561-.74667V2.9994a1.46936 1.46936 0 00-1.4394-1.47938v1.122zm5.30382 8.73878c.1114.7416.2194 1.8215-.86665 2.4419a3.00222 3.00222 0 01-.92277.1677H3.21494a.99963.99963 0 01.26395-.68.99947.99947 0 01.65566-.3196h1.27947v-.4998a1.7891 1.7891 0 01.49565-1.277 1.78802 1.78802 0 01.57187-.4008 1.78591 1.78591 0 01.58569-.1467l-.6258-.88795c-.23622.06718-.46338.1532-.5776.23345H2.65517c-.08624 0-.17557.0354-.26435.0706-.13758.0544-.27386.1084-.39537.0294-.19992-.12994.10995-1.11953 1.00958-1.11953h.99958c.48979 0 .56976-.53977.56976-.53977l.27988-1.12953a3.38857 3.38857 0 01-2.8488-.92961 3.38856 3.38856 0 013.13868-2.65888 15.3247 15.3247 0 00.08368.00269c.2605.00791.43489.0132.77596.16723.92961.41983 2.1491 2.46897 2.1491 2.46897l.05997.08996h.16993v-.06997c-.05989-.44281-.02007-1.46317.11655-1.88861a2.9988 2.9988 0 01.67312-1.14012 2.34899 2.34899 0 011.29946-.65972 2.63876 2.63876 0 011.8592.28988c.4606.284.8503.66929 1.1396 1.12657.2892.45727.4759.83625.5352 1.37407-.0011.01964.0003.04764.002.08144.0072.14291.0196.38957-.128.5466-.1268.13495-.4478.23071-.6692.17993a1.5706 1.5706 0 01-.4498-.17993 1.32936 1.32936 0 00-1.1395-.12994 1.41955 1.41955 0 00-.5986.37873 1.41978 1.41978 0 00-.341.62085 2.31816 2.31816 0 00.0185 1.20565 2.3183 2.3183 0 00.6212 1.03341l.11.13994c.346.43336.5455.96539.5698 1.51939.0133.3963-.0521.7913-.1925 1.1622-.0339.0895-.072.1772-.1141.2627a2.72996 2.72996 0 00-.0307-.239 2.70843 2.70843 0 00-.4336-1.0654l-.3685.3686zM4.24 5a.50001.50001 0 100 1.00002A.50001.50001 0 004.24 5z" fill="#C5C5C5"/></svg>