<svg viewBox="0 0 16 16" fill="none" xmlns="http://www.w3.org/2000/svg"><path fill-rule="evenodd" clip-rule="evenodd" d="M13.2 2H8.017l-.353.146L1 8.81v.707L6.183 14.7h.707l2.21507-2.2147a4.48094 4.48094 0 001.78913.507 4.4792 4.4792 0 002.2218-.4229 4.48103 4.48103 0 001.7321-1.4543A4.48075 4.48075 0 0015.649 9a4.32167 4.32167 0 00.051-.5 4.50462 4.50462 0 00-1.3195-3.18052 4.50387 4.50387 0 00-.6805-.55884V2.5l-.5-.5zm-.5 2.25881A4.50397 4.50397 0 0011.2 4a.49977.49977 0 00-.3535.14645.4999.4999 0 000 .7071A.49977.49977 0 0011.2 5c.5238 0 1.0356.11743 1.5.33771V7.476l-3.92519 3.9245a.50567.50567 0 00-.05056.0299.50052.50052 0 00-.14052.1427.51514.51514 0 00-.02542.0439L6.536 13.639 2.061 9.163 8.224 3H12.7v1.25881zm1 1.79169c.6407.65385 1 1.53315 1 2.4495a3.4376 3.4376 0 01-.051.5 3.48736 3.48736 0 01-.6598 1.6019c-.3512.47-.8152.8438-1.3492 1.0869a3.48766 3.48766 0 01-1.7056.3037 3.48629 3.48629 0 01-1.07876-.2577L13.554 8.037l.146-.354V6.0505z" fill="#C5C5C5"/></svg>