<svg viewBox="0 0 16 16" fill="none" xmlns="http://www.w3.org/2000/svg"><path d="M10.54 1.99999c.2888.00139.5707.08839.81.25a1.37992 1.37992 0 01.45 1.68999l-.97 2.17 2.79.00001c.2291-.00427.4555.0494.6583.15605a1.3599 1.3599 0 01.5017.45395c.127.1938.202.41703.2178.64821a1.35011 1.35011 0 01-.1278.67179C14.2 9.48999 13 12.11 12.6 13.21a1.3809 1.3809 0 01-.5042.6518 1.38061 1.38061 0 01-.7858.2482H2.38A1.40004 1.40004 0 011 12.71V9.19998a1.38003 1.38003 0 01.85189-1.27495A1.38005 1.38005 0 012.38 7.81998h1.38l5.84-5.46a1.40991 1.40991 0 01.94-.35999zM11.31 13.11a.38985.38985 0 00.2184-.0697.39003.39003 0 00.1416-.1803c.4-1.09 1.47-3.45001 2.33-5.24001a.39024.39024 0 000-.36.36976.36976 0 00-.1674-.13221.37006.37006 0 00-.2126-.01779l-3.3-.00001-.52-.67999v-.46001l1.09-2.43999a.37024.37024 0 00.0193-.25382.36993.36993 0 00-.1493-.20618.38008.38008 0 00-.24-.08539.38013.38013 0 00-.24.08538l-6.06 5.59-.47.13H2.38a.38.38 0 00-.38.41V12.71a.40004.40004 0 00.11.276.40056.40056 0 00.27.124h8.93z" fill="#C5C5C5"/></svg>