<svg viewBox="0 0 16 16" fill="none" xmlns="http://www.w3.org/2000/svg"><g clip-path="url(#clip0)" fill-rule="evenodd" clip-rule="evenodd"><path d="M1.5 2h13l.5.5v5.50305a5.00609 5.00609 0 00-1-.5835V3H2v9h5a4.99983 4.99983 0 001 3H4v-1h3v-1H1.5l-.5-.5v-10l.5-.5z" fill="#C5C5C5"/><path d="M9.77772 8.67412A4.00006 4.00006 0 0112 8a4.00496 4.00496 0 012.827 1.17301A4.00468 4.00468 0 0116 12c0 .7911-.2346 1.5645-.6741 2.2223a3.9996 3.9996 0 01-1.7952 1.4732 3.99904 3.99904 0 01-2.3111.2276 3.99974 3.99974 0 01-2.04803-1.0947 3.99985 3.99985 0 01-.86709-4.3591 3.9999 3.9999 0 011.47324-1.79518zm2.13098 4.98958l2.3863-3.1819-.8-.59996-2.0768 2.76916-1.3017-1.0414-.62471.7809 1.70451 1.3636.7124-.0904z" fill="#388A34"/></g><defs><clipPath id="clip0"><path fill="#fff" d="M0 0h16v16H0z"/></clipPath></defs></svg>