<svg viewBox="0 0 16 16" fill="none" xmlns="http://www.w3.org/2000/svg"><path fill-rule="evenodd" clip-rule="evenodd" d="M1.5 2.00012h13l.5.5v5.50305a5.00657 5.00657 0 00-1-.5835V3.00012H2v8.99998h5a4.99983 4.99983 0 001 3H4v-1h3v-1H1.5l-.5-.5V2.50012l.5-.5z" fill="#C5C5C5"/><path d="M12 8.00012c.3672 0 .7214.04688 1.0625.14063.3411.09375.6589.22916.9531.40625.2943.17708.5638.38541.8086.625.2448.23958.4544.50911.6289.80859.1745.29951.3086.61851.4024.95701.0937.3386.1419.6927.1445 1.0625 0 .3672-.0469.7214-.1406 1.0625-.0938.3412-.2292.6589-.4063.9531-.1771.2943-.3854.5638-.625.8086-.2396.2448-.5091.4545-.8086.6289-.2994.1745-.6185.3086-.957.4024-.3385.0937-.6927.1419-1.0625.1445-.3672 0-.7214-.0469-1.0625-.1406-.3411-.0938-.6589-.2292-.95312-.4063-.29428-.177-.56381-.3854-.8086-.625-.24479-.2395-.45443-.5091-.6289-.8085-.17448-.2995-.3086-.6185-.40235-.9571-.09375-.3385-.14193-.6927-.14453-1.0625 0-.3672.04688-.7213.14062-1.0625.09376-.3411.22917-.6588.40626-.9531.17708-.29427.38541-.56381.625-.8086.23958-.24479.50911-.45442.80859-.6289.29943-.17448.61853-.3086.95703-.40235s.6927-.14192 1.0625-.14453zm0 6.08598c.2005 0 .3945-.0274.582-.0821.1875-.0547.3646-.1354.5313-.2422.1666-.1067.3151-.2317.4453-.375.1302-.1432.2396-.3073.3281-.4921l-.6094-.2891c-.0599.1224-.1341.2331-.2226.332-.0886.099-.1888.1836-.3008.2539-.112.0703-.2318.125-.3594.1641-.1276.0391-.2591.0586-.3945.0586-.1875 0-.3659-.0365-.5352-.1094-.1692-.0729-.3216-.1745-.457-.3047H11.5v-.5H10v1.5h.5v-.5547c.1953.2032.4232.3607.6836.4727.2604.112.5325.168.8164.168zm2-2.586v-1.5h-.5v.5547c-.1953-.2031-.4232-.3607-.6836-.4726-.2604-.11203-.5325-.16802-.8164-.16802-.2005 0-.3945.02735-.582.08204-.1875.05468-.3646.13538-.5313.24218-.1666.1068-.3151.2318-.4453.375-.1302.1432-.2396.3073-.3281.4922l.6094.2891c.0572-.1224.1302-.2331.2187-.3321.0885-.0989.1901-.1836.3047-.2539.1146-.0703.2344-.125.3594-.164.125-.0391.2565-.0586.3945-.0586.1875 0 .3659.0364.5352.1093.1692.073.3216.1745.457.3047H12.5v.5H14z" fill="#C5C5C5"/></svg>