<svg viewBox="0 0 16 16" fill="none" xmlns="http://www.w3.org/2000/svg"><path d="M4.66658 2.01118A5.99999 5.99999 0 018 1c1.59075.00178 3.1158.63449 4.2407 1.75932C13.3655 3.88416 13.9982 5.40925 14 7a5.99982 5.99982 0 01-1.0112 3.3334 6.00033 6.00033 0 01-2.6927 2.2099c-.0966.04-.1941.0774-.2924.1122v-.0446a1.4799 1.4799 0 00.48-1.091v-.1368c.3914-.222.7547-.4972 1.0784-.821A5.04536 5.04536 0 0013.04 7a5.04 5.04 0 00-.8494-2.80007 5.03997 5.03997 0 00-7.75442-.76375 5.04004 5.04004 0 00.76375 7.75442c.09805.0655.19814.1274.30007.1857v.1436c0 .3925.15592.7689.43348 1.0465.01521.0152.03072.0301.04652.0445v.0388a5.99886 5.99886 0 01-2.22264-1.4071 5.99984 5.99984 0 01-1.30063-6.5387 5.99998 5.99998 0 012.20985-2.69272z" fill="#C5C5C5"/><path d="M9.34313 11.8593a.4801.4801 0 01-.33941.1406v2.52a.47994.47994 0 01-.14059.3394.4801.4801 0 01-.33941.1406H7.46c.01148 0-.0041-.0042-.03429-.0122-.07519-.0201-.24091-.0642-.30512-.1284a.47994.47994 0 01-.14059-.3394v-2.52a.4801.4801 0 01-.34759-.149.47988.47988 0 01-.13241-.331V9.5a.9996.9996 0 01.04491-.29722C6.67148 8.79563 7.05121 8.5 7.5 8.5h.98372c.45176 0 .83356.29957.95757.7109a1.00015 1.00015 0 01.04243.2891v2.0199a.48.48 0 01-.13663.3354l-.00396.004z" fill="#C5C5C5"/><path d="M10.64 6.99995a2.64152 2.64152 0 01-.4447 1.46492c.1831.30197.2884.65624.2884 1.03513v.10589A3.59635 3.59635 0 0010.9932 9 3.59985 3.59985 0 0011.6 6.99995a3.60482 3.60482 0 00-1.0559-2.54418 3.60465 3.60465 0 00-2.54415-1.05582 3.60003 3.60003 0 00-3.32596 2.22234A3.59994 3.59994 0 005.5 9.59036V9.5c0-.38392.10818-.74258.29571-1.04715a2.63996 2.63996 0 01.33748-3.31966 2.63995 2.63995 0 012.87705-.57228 2.63975 2.63975 0 011.18476.97234c.2901.43414.445.94456.445 1.4667z" fill="#C5C5C5"/><path d="M9 7c0 .55228-.44771 1-1 1-.55228 0-1-.44772-1-1s.44772-1 1-1c.55229 0 1 .44772 1 1z" fill="#C5C5C5"/></svg>