<svg viewBox="0 0 16 16" fill="none" xmlns="http://www.w3.org/2000/svg"><path fill-rule="evenodd" clip-rule="evenodd" d="M10.8775 4.5v-.58167C10.8775 2.30658 9.57092 1 7.95917 1S5.04084 2.30658 5.04084 3.91833V4.5h-.83249L2.54527 2.8285l-.59311.59012 1.61087 1.61902-.01856.04919c-.32235.85372-.50363 1.81476-.50363 2.8315 0 .1957.00671.38933.01986.58053l.003.04364H1v.83666h2.16882l.00612.03349c.17224.94185.50356 1.80255.95424 2.53155l.03399.055-1.96322 1.9632.59162.5916 1.87169-1.8717.05749.0657c.86806.9921 2.00176 1.5887 3.23842 1.5887 1.2178 0 2.33573-.5785 3.19843-1.5435l.0577-.0645 1.9098 1.9194.5931-.5901-1.9964-2.0065.0347-.0551c.4674-.74.8105-1.6193.9869-2.58375l.0061-.03349H14.92V8.5425h-2.0654l.003-.04364a8.42928 8.42928 0 00.0199-.58053c0-1.03018-.1861-2.00318-.5165-2.8653l-.0189-.04949 1.5698-1.56983-.5916-.59161L11.6624 4.5h-.7849zm-4.99999 0v-.58167c0-1.14967.93199-2.08166 2.08166-2.08166s2.08163.93199 2.08163 2.08166V4.5H5.87751zm5.69639.83667l.0199.0529c.2834.75312.447 1.61054.447 2.52876 0 1.60993-.5029 3.03387-1.274 4.03627C9.99644 12.9561 8.99584 13.5 7.95917 13.5s-2.03727-.5439-2.80764-1.5454C4.38048 10.9522 3.8775 9.52826 3.8775 7.91833c0-.91822.1636-1.77563.44701-2.52876l.0199-.0529h7.22949z" fill="#C5C5C5"/></svg>