<svg viewBox="0 0 16 16" fill="none" xmlns="http://www.w3.org/2000/svg"><path d="M8 1a7.00016 7.00016 0 013.889 1.17971 7.0009 7.0009 0 012.5782 3.14151 7.00004 7.00004 0 01.3983 4.04441 6.99946 6.99946 0 01-1.9158 3.58407 6.99946 6.99946 0 01-3.58407 1.9158 7.00009 7.00009 0 01-4.04442-.3983 7.00092 7.00092 0 01-3.1415-2.5782A7.00016 7.00016 0 011 8c.00211-1.85587.74029-3.63511 2.05259-4.94741C4.36488 1.7403 6.14413 1.00212 8 1zM2 8a5.96493 5.96493 0 001.423 3.87l8.447-8.447a5.99305 5.99305 0 00-6.39823-.86686A5.99295 5.99295 0 002 8zm12 0a5.96483 5.96483 0 00-1.423-3.87L4.13 12.577a5.99264 5.99264 0 003.07239 1.3687 5.9924 5.9924 0 003.32581-.5018A5.99326 5.99326 0 0014 8z" fill="#C5C5C5"/></svg>