<svg viewBox="0 0 16 16" fill="none" xmlns="http://www.w3.org/2000/svg"><path fill-rule="evenodd" clip-rule="evenodd" d="M11.9565 6h.0499c.794 0 1.5554.31607 2.1168.87868C14.6846 7.44129 15 8.20435 15 9s-.3154 1.5587-.8768 2.1213c-.5614.5626-1.3228.8787-2.1168.8787v-1c.5293 0 1.037-.2107 1.4112-.5858.3743-.3751.5845-.88376.5845-1.4142 0-.53043-.2102-1.03914-.5845-1.41421C13.0434 7.21072 12.5357 7 12.0064 7h-.914l-.1237-.857c-.0749-.53759-.3231-1.03589-.7069-1.41893-.38379-.38304-.88203-.6298-1.41877-.70264a2.47816 2.47816 0 00-1.55413.29917c-.47161.26694-.84317.68113-1.05803 1.1794l-.33328.762-.80826-.189A2.48977 2.48977 0 004.52255 6c-.66162 0-1.29614.2634-1.76397.73224-.46783.46884-.73066 1.10472-.73066 1.76776 0 .66304.26283 1.29893.73066 1.7678.46783.4688 1.10235.7322 1.76397.7322h.49893v1h-.49893a3.48562 3.48562 0 01-1.43852-.2971 3.49386 3.49386 0 01-1.18942-.8635 3.5022 3.5022 0 01-.72996-1.27729 3.50714 3.50714 0 01-.14141-1.46507 3.50503 3.50503 0 01.47216-1.39378 3.49678 3.49678 0 011.00222-1.07599 3.48833 3.48833 0 011.35502-.5679A3.4853 3.4853 0 015.32083 5.1c.30327-.69499.82428-1.27201 1.48413-1.64365a3.47517 3.47517 0 012.17264-.41591c.75008.10173 1.4466.44566 1.9842.9797.5375.53404.8867 1.22909.9947 1.97986zm-5.24931 5.1214l1.31401 1.314V7h.99386v5.3992l1.27784-1.2778.7071.7071-2.14644 2.1464h-.70711l-2.14637-2.1464.70711-.7071z" fill="#C5C5C5"/></svg>