<svg viewBox="0 0 16 16" fill="none" xmlns="http://www.w3.org/2000/svg"><path fill-rule="evenodd" clip-rule="evenodd" d="M8 1.00305c-1.85652 0-3.63701.73754-4.94977 2.05029C1.73748 4.3661 1 6.14654 1 8.00305v.43006c.09 1.51 1.91 1.78999 3 .69995a1.87003 1.87003 0 012.56451.07544 1.87007 1.87007 0 01.54688 1.2673 1.87016 1.87016 0 01-.47138 1.2973c-1.1 1.16-.79001 3.0699.79999 3.1999h.59998c1.85651 0 3.63702-.7374 4.94972-2.0501 1.3128-1.3128 2.0503-3.09336 2.0503-4.94988 0-1.85651-.7375-3.63695-2.0503-4.9497C11.677 1.71056 9.89649.97302 8.03998.97302L8 1.00305zM8 14.0031h-.52002A.57983.57983 0 017.12 13.863a.55959.55959 0 01-.15003-.2999 1.24031 1.24031 0 01.35004-1.0801 2.86987 2.86987 0 00.81164-2 2.87001 2.87001 0 00-.81164-1.99997 2.8702 2.8702 0 00-3.12873-.62256 2.87002 2.87002 0 00-.93127.62256 1.00013 1.00013 0 01-.40643.2854 1.00005 1.00005 0 01-.49359.05457.40998.40998 0 01-.21998-.12.41985.41985 0 01-.10003-.28991v-.37a6.0003 6.0003 0 011.01123-3.3335 5.99998 5.99998 0 016.15936-2.55126 6.00024 6.00024 0 013.07213 1.64209 6 6 0 011.642 3.07214 5.99995 5.99995 0 01-.3414 3.46654 6.00059 6.00059 0 01-2.2099 2.6928 6.00073 6.00073 0 01-3.33342 1.0112L8 14.0031zM9 3.99683c0 .55228-.44772 1-1 1-.55229 0-1-.44772-1-1 0-.55229.44771-1 1-1 .55228 0 1 .44771 1 1zm3 7.00687c0 .5522-.4477 1-1 1s-1-.4478-1-1c0-.5523.4477-1 1-1s1 .4477 1 1zM5 6.00415c.55229 0 1-.44771 1-1 0-.55228-.44771-1-1-1-.55228 0-1 .44772-1 1 0 .55229.44772 1 1 1zm7-1c0 .55229-.4477 1-1 1s-1-.44771-1-1c0-.55228.4477-1 1-1s1 .44772 1 1zm1.0001 2.99524c0 .55228-.4477 1-1 1s-1-.44772-1-1c0-.55229.4477-1 1-1s1 .44771 1 1z" fill="#C5C5C5"/></svg>