<svg viewBox="0 0 24 24" fill="none" xmlns="http://www.w3.org/2000/svg"><path d="M3.46279 12.86l-.00464-.07c.00149.0234.00304.0467.00464.07zM10.7275 13.5509L7.69304 10.501l1.01419-1.0142 3.20867 3.2249 3.163-3.16295 1.0142 1.01415-3.0342 3.0343 3.0345 3.0498-1.0142 1.0142-3.2087-3.225-3.16302 3.1631-1.01419-1.0142 3.03421-3.0342z" fill="#fff"/><path fill-rule="evenodd" clip-rule="evenodd" d="M16.9329 5.00286V6h1.3455l2.8421-2.84212 1.0142 1.01419-2.6912 2.69114.0325.08484c.5664 1.47792.8854 3.14595.8854 4.91195 0 .3355-.0115.6674-.034.9952l-.0052.0748h3.5407v1.4343H20.142l-.0105.0574c-.3023 1.6533-.8906 3.1608-1.6917 4.4293l-.0596.0944 3.4225 3.4398-1.0168 1.0116-3.2739-3.2905-.0989.1106c-1.4791 1.6543-3.3954 2.646-5.4831 2.646-2.11999 0-4.06347-1.0227-5.55158-2.7234l-.09854-.1127-3.20863 3.2087-1.01419-1.0142 3.36552-3.3655-.05827-.0943c-.77259-1.2497-1.34058-2.7252-1.63584-4.3398l-.0105-.0574H0V12.93h3.53777l-.00515-.0748a14.51338 14.51338 0 01-.03404-.9952c0-1.743.31077-3.39049.86336-4.85401l.03183-.08431-2.76149-2.77547 1.01676-1.01164L5.50003 6h1.42712v-.99714C6.92715 2.23986 9.16701 0 11.93 0c2.763 0 5.0029 2.23986 5.0029 5.00286zm-8.57146 0V6h7.13716v-.99714c0-1.97087-1.5977-3.56857-3.5686-3.56857-1.97086 0-3.56856 1.5977-3.56856 3.56857zm9.79946 2.52212l-.0342-.09069H5.73328l-.03413.09069c-.48584 1.29107-.76629 2.76092-.76629 4.33502 0 2.7599.86224 5.201 2.18405 6.9193 1.32064 1.7169 3.03599 2.6493 4.81309 2.6493 1.7772 0 3.4925-.9324 4.8131-2.6493 1.3218-1.7183 2.184-4.1594 2.184-6.9193 0-1.5741-.2804-3.04395-.7662-4.33502z" fill="#fff"/></svg>