<svg viewBox="0 0 16 16" fill="none" xmlns="http://www.w3.org/2000/svg"><path fill-rule="evenodd" clip-rule="evenodd" d="M10.57 1.14l3.28 3.3.15.36v9.7l-.5.5h-11l-.5-.5v-13l.5-.5h7.72l.35.14zM3 2v12h10V5l-3-3H3zm1.45947 4.05176c0 1.28727.45834 1.93091 1.375 1.93091.45655 0 .80656-.17367 1.05005-.521.24528-.34733.36792-.84684.36792-1.49854C7.25244 4.65438 6.80485 4 5.90967 4c-.47087 0-.83073.17546-1.07959.52637-.24707.34912-.37061.85758-.37061 1.52539zm.86206-.02149c0-.92203.18352-1.38305.55054-1.38305.34375 0 .51563.44759.51563 1.34277 0 .89518-.17546 1.34277-.52637 1.34277-.35987 0-.5398-.43416-.5398-1.30249zm3.18701 1.88526h2.43576v-.67139h-.7922V4l-1.66504.33569v.6875l.81909-.17724v2.39819h-.79761v.67139zM7.17188 12.9155h-2.4358v-.6714h.79761V9.84595l-.81909.17725v-.68751L6.37964 9v3.2441h.79224v.6714zm1.03515-1.9309c0 1.2873.45833 1.9309 1.375 1.9309.45657 0 .80657-.1736 1.05007-.521.2453-.3473.3679-.8468.3679-1.4985 0-1.30876-.4476-1.96314-1.34277-1.96314-.47087 0-.83073.17546-1.07959.52637-.24707.34912-.37061.85757-.37061 1.52537zm.86206-.0215c0-.922.18351-1.38302.55054-1.38302.34375 0 .51567.44762.51567 1.34282 0 .8951-.1755 1.3427-.52641 1.3427-.35987 0-.5398-.4341-.5398-1.3025z" fill="#C5C5C5"/></svg>