<svg viewBox="0 0 16 16" fill="none" xmlns="http://www.w3.org/2000/svg"><path fill-rule="evenodd" clip-rule="evenodd" d="M7.71002 3H14.5l.51.5v10l-.5.5H1.51001l-.5-.5v-11l.5-.5h5l.34998.15002L7.71002 3zM13.99 13v-1.51L14 7.48999v-1.5H7.70001l-.85998.85999L6.48999 7H2V13h11.99zM7.48999 5H13.99l.01-.98999H7.5l-.35999-.15002-.85003-.84998H2v3h4.28003l.85998-.85999L7.48999 5zm2.29006 4.06995l-1.36004-1.37.73999-.68994 2.22 2.21997v.70996L9.09005 12.15l-.70001-.7199L9.79 10.08H8.42001a1.99986 1.99986 0 00-1.34998.6099 1.79965 1.79965 0 00-.39893.6009A1.80013 1.80013 0 006.54 12h-1a2.7605 2.7605 0 01.81-2 3.00006 3.00006 0 012-.93005h1.43005z" fill="#C5C5C5"/></svg>