<svg viewBox="0 0 16 16" fill="none" xmlns="http://www.w3.org/2000/svg"><path fill-rule="evenodd" clip-rule="evenodd" d="M3 14h4v.91l.09003.09H2.5l-.5-.5v-13l.5-.5h7.72l.35.14001 3.28 3.29993.15.36011v2.53992a3.09945 3.09945 0 00-1-.93995V6H9.5L9 5.5V2H3v12zm10-9l-3-3v3h3zm.5 4v1h1l.5.5v4l-.5.5h-6l-.5-.5v-4l.5-.5h1V9a2.00008 2.00008 0 012-2 2.00008 2.00008 0 012 2zm-2.7071-.70715A1.00024 1.00024 0 0010.5 9v1h2V9c0-.26522-.1054-.51962-.2929-.70715A.9999.9999 0 0011.5 8a.9999.9999 0 00-.7071.29285zM9 11v3h5v-3H9z" fill="#C5C5C5"/></svg>