<svg viewBox="0 0 16 16" fill="none" xmlns="http://www.w3.org/2000/svg"><path fill-rule="evenodd" clip-rule="evenodd" d="M6.43236 10h.82267V4h-.82267v2.6109H3.82267V4H3v6h.82267V7.39371h2.60969V10zm5.66724 0H13l-1.2797-2.62932c.131-.05832.2605-.13507.3885-.23023.1279-.09517.2422-.20875.3428-.34076.1005-.132.1812-.28396.2422-.45587.064-.17191.096-.36531.096-.5802 0-.20568-.0275-.3914-.0823-.55717-.0548-.16884-.128-.31773-.2194-.44666-.0883-.13201-.1919-.24559-.3108-.34076-.1158-.09516-.2361-.17344-.361-.23484-.125-.0614-.2499-.10744-.3748-.13814C11.3166 4.01535 11.2023 4 11.0987 4H8.63985v6h.82267V7.51804h1.46708L12.0996 10zm-.681-3.32003c-.1035.03684-.201.05526-.2925.05526H9.46252V4.78741h1.66358c.0915 0 .189.01996.2925.05987.1036.0399.1981.09977.2834.17958.0884.07982.1615.18112.2194.30392.0579.12279.0868.26707.0868.43284 0 .16884-.0289.31466-.0868.43745-.0579.1228-.131.2241-.2194.30392-.0853.07674-.1798.13507-.2834.17498zM13 12H3v1h10v-1z" fill="#C5C5C5"/></svg>