<svg viewBox="0 0 16 16" fill="none" xmlns="http://www.w3.org/2000/svg"><path fill-rule="evenodd" clip-rule="evenodd" d="M8.48 4h4l.5.5v2.03h.52l.5.5V8l-.5.5h-.52v3l-.5.5H9.36l-2.5 2.76L6 14.4V12H3.5l-.5-.64V8.5h-.5L2 8v-.97l.5-.5H3V4.36L3.53 4h4V2.86A1.00002 1.00002 0 017 2a1.00003 1.00003 0 011-1 1.00003 1.00003 0 011 1 .99999.99999 0 01-.52.83V4zM12 8V5H4V10.86l2.5.14H7v2.19l1.8-2.04.35-.15H12V8zm-2.11999.51a2.71 2.71 0 01-1.37.74v-.01a2.7099 2.7099 0 01-2.42-.74l-.7.71a3.6401 3.6401 0 001.19.79 3.76146 3.76146 0 001.42.29A3.69992 3.69992 0 0010.58 9.22l-.69999-.71zM6.48999 6.5h-1v1h1v-1zm3 0H10.49v1H9.48999v-1z" fill="#C5C5C5"/></svg>