<svg viewBox="0 0 16 16" fill="none" xmlns="http://www.w3.org/2000/svg"><path fill-rule="evenodd" clip-rule="evenodd" d="M7.5 13c2.9887 0 5.4206-2.3838 5.4981-5.35382l.9524-.95239A6.5603 6.5603 0 0114 7.5c0 3.5899-2.9101 6.5-6.5 6.5C3.91015 14 1 11.0899 1 7.5 1 3.91015 3.91015 1 7.5 1c2.15167 0 4.0592 1.04548 5.2422 2.65615l-.7161.71817C11.0335 2.93976 9.37651 2 7.5 2 4.46243 2 2 4.46243 2 7.5 2 10.5376 4.46243 13 7.5 13zm6.197-7.46705L15 4.23002l-.71-.71-3.41 3.41991-1.37999-1.38007-.71.71L10.52 7.99993h.71l1.6497-1.6496v.00007l.8174-.81739c0-.00002 0-.00004-.0001-.00006zM7 7v2h1V4H7v3zm0 4v-1h1v1H7z" fill="#C5C5C5"/></svg>