<svg viewBox="0 0 16 16" fill="none" xmlns="http://www.w3.org/2000/svg"><path d="M14.63 7L13 3h1V2H9V1H8v1H3v1h1L2.38 7H2v1h.15a2.37002 2.37002 0 00.9 1.23 2.46998 2.46998 0 002.9 0A2.44002 2.44002 0 006.86 8H7V7h-.45L4.88 3H8v8H6l-.39.18-2 2.51.39.81h9l.39-.81-2-2.51L11 11H9V3h3.13l-1.67 4H10v1h.15c.1636.49544.4792.92668.902 1.23236a2.48005 2.48005 0 002.906 0A2.48037 2.48037 0 0014.86 8H15V7h-.37zM5.22 8.51a1.52004 1.52004 0 01-.72.19 1.45003 1.45003 0 01-.71-.19A1.47004 1.47004 0 013.25 8h2.5a1.52001 1.52001 0 01-.53.51zM5.47 7h-2l1-2.4 1 2.4zm5.29 5L12 13.5H5L6.24 12h4.52zm1.78-7.38l1 2.4h-2l1-2.4zm.68 3.91a1.40986 1.40986 0 01-.72.19 1.34985 1.34985 0 01-.71-.19 1.5506 1.5506 0 01-.54-.53h2.5a1.3702 1.3702 0 01-.53.53z" fill="#C5C5C5"/></svg>