<svg viewBox="0 0 16 16" fill="none" xmlns="http://www.w3.org/2000/svg"><path fill-rule="evenodd" clip-rule="evenodd" d="M4.4 3h3.085a3.39996 3.39996 0 012.40416.99584A3.39991 3.39991 0 0110.885 6.4v.205A3.40002 3.40002 0 017.485 10H7V9h.485A2.4 2.4 0 009.88 6.61V6.4A2.4 2.4 0 007.49 4H4.4a2.40004 2.40004 0 00-2.21731 1.48156A2.40003 2.40003 0 002 6.4v.205A2.394 2.394 0 004 8.96v1a3.4 3.4 0 01-3-3.35V6.4a3.40496 3.40496 0 01.9973-2.4027A3.40496 3.40496 0 014.4 3zm7.6001 4.04v-1a3.39977 3.39977 0 012.1362 1.11194A3.39984 3.39984 0 0115.0001 9.4v.205a3.40486 3.40486 0 01-.9973 2.3977A3.40486 3.40486 0 0111.6051 13H8.51512a3.39963 3.39963 0 01-2.39741-.9941A3.39995 3.39995 0 015.12012 9.61V9.4a3.39998 3.39998 0 013.395-3.4h.485v1h-.485a2.4 2.4 0 00-2.395 2.4v.205a2.4001 2.4001 0 00.70294 1.6921A2.40013 2.40013 0 008.51512 12h3.08998a2.3999 2.3999 0 001.6903-.7012 2.3999 2.3999 0 00.7047-1.6888V9.4a2.39378 2.39378 0 00-.5676-1.54642A2.39402 2.39402 0 0012.0001 7.04z" fill="#C5C5C5"/></svg>