<svg viewBox="0 0 16 16" fill="none" xmlns="http://www.w3.org/2000/svg"><path fill-rule="evenodd" clip-rule="evenodd" d="M10.8325 2.68759A4.056 4.056 0 008.02009 1.5h-.04a4.05597 4.05597 0 00-3.99999 4 3.76597 3.76597 0 00.60599 2.117L7.73355 14h.53309l3.14746-6.383a3.76621 3.76621 0 00.606-2.117 4.0562 4.0562 0 00-1.1876-2.81241zM7.9241 2.5l.08199.01.07401-.01a3.07506 3.07506 0 012.0752.93293 3.07513 3.07513 0 01.8658 2.10407 2.7406 2.7406 0 01-.467 1.568l-.02.034-.017.035-2.517 5.105-2.517-5.1-.01701-.039-.01999-.034a2.7409 2.7409 0 01-.467-1.568A3.07399 3.07399 0 017.9241 2.5zm.61145 2.16853A1.00002 1.00002 0 006.97998 5.5a1.00002 1.00002 0 001.70711.70711 1 1 0 00-.15154-1.53858zm-1.66671-.83147a2.00003 2.00003 0 012.52536.24873 2 2 0 11-2.52536-.24873z" fill="#C5C5C5"/></svg>