<svg viewBox="0 0 16 16" fill="none" xmlns="http://www.w3.org/2000/svg"><path fill-rule="evenodd" clip-rule="evenodd" d="M1.99976 6.77002L14.3298 3.33997l.67.53V12.47l-.67.53-6.08831-1.5949a2.15976 2.15976 0 01-.20792.5172 2.16071 2.16071 0 01-.65462.7188c-.27.1868-.57902.3095-.90357.3589a2.15921 2.15921 0 01-.96945-.0737 2.16004 2.16004 0 01-1.37734-1.3009 2.16022 2.16022 0 01-.06606-1.315l-2.06277-.54038-.42-.53v-1.94l.42-.53zM5.0059 10.5575a1.12988 1.12988 0 00-.03929.2416c0 .3103.12327.6079.34269.8274a1.17 1.17 0 00.82731.3426 1.17 1.17 0 00.82732-.3426 1.17033 1.17033 0 00.28996-.4801l-2.24799-.5889zM2.57976 8.82002L13.9998 11.83V4.49997L2.57976 7.72002v1.1z" fill="#C5C5C5"/></svg>