<svg viewBox="0 0 24 24" fill="none" xmlns="http://www.w3.org/2000/svg"><path d="M6 12c0 .2967-.08797.5867-.25279.8334a1.50017 1.50017 0 01-.67318.5524 1.49926 1.49926 0 01-.86666.0854 1.5007 1.5007 0 01-.76803-.4105 1.5002 1.5002 0 01-.41052-.7681 1.49986 1.49986 0 01.08536-.8666 1.49984 1.49984 0 01.55247-.6732A1.50016 1.50016 0 014.5 10.5 1.49996 1.49996 0 016 12zM13.5 12c0 .2967-.088.5867-.2528.8334a1.50002 1.50002 0 01-.6732.5524 1.49913 1.49913 0 01-.8666.0854 1.50091 1.50091 0 01-.7681-.4105 1.50091 1.50091 0 01-.4105-.7681 1.49913 1.49913 0 01.0854-.8666c.1135-.2741.3058-.5084.5524-.6732a1.5001 1.5001 0 011.8941.1865c.2813.2813.4393.6629.4393 1.0607zM21 12c0 .2967-.088.5867-.2528.8334a1.50002 1.50002 0 01-.6732.5524 1.49913 1.49913 0 01-.8666.0854 1.50091 1.50091 0 01-.7681-.4105 1.50091 1.50091 0 01-.4105-.7681 1.49913 1.49913 0 01.0854-.8666c.1135-.2741.3058-.5084.5524-.6732a1.5001 1.5001 0 011.8941.1865C20.842 11.2206 21 11.6022 21 12z" fill="#fff"/></svg>