<svg viewBox="0 0 16 16" fill="none" xmlns="http://www.w3.org/2000/svg"><path fill-rule="evenodd" clip-rule="evenodd" d="M9.11115 4.66295a1.99996 1.99996 0 01-2.52533-.24878 1.99992 1.99992 0 01-.24878-2.52526 2.00021 2.00021 0 01.89758-.7367 2.00015 2.00015 0 011.15558-.11377 2.00006 2.00006 0 011.45758 2.72693 2.00013 2.00013 0 01-.73663.89758zm-.55561-2.49438a.99989.99989 0 00-1.26263.12427A1.00008 1.00008 0 007 2.99999a.9999.9999 0 00.61731.92383 1.00001 1.00001 0 00.57776.057.99999.99999 0 00.7857-.78576.99988.99988 0 00-.05688-.57776.99992.99992 0 00-.36835-.44873zm2.61106.03111c.2467-.16577.5367-.25425.8334-.25425.3978 0 .7794.15895 1.0607.44187.2813.28292.4393.66664.4393 1.06676 0 .29837-.088.59005-.2528.83814-.1648.24809-.3991.44146-.6732.55564a1.49194 1.49194 0 01-.8666.08585c-.291-.05821-.5583-.20189-.7681-.41288-.2097-.21098-.3526-.47979-.4105-.77244a1.51677 1.51677 0 01.0854-.87164c.1135-.27566.3058-.51128.5524-.67705zm.4798 1.60996A.49872.49872 0 0012 3.95693a.49872.49872 0 00.3536-.14729.50458.50458 0 00.1464-.35558c-.0026-.13257-.0561-.25899-.1493-.35274A.5085.5085 0 0012 2.95118a.49872.49872 0 00-.3536.14729.50459.50459 0 00-.1464.35559c0 .13337.0527.26127.1464.35558zM3.19002 12.4857h1.81v1.0057h-1.81c-.31652-.0026-.61919-.131-.84207-.357-.22289-.2261-.34794-.5315-.34793-.8499v-1.8103a.99685.99685 0 01-.38864-.0932.99994.99994 0 01-.32136-.2387 1.00687 1.00687 0 01-.21968-.33729 1.01085 1.01085 0 01-.07032-.39693V7.22561c.003-.47137.1897-.92275.52-1.25719.32884-.33159.77436-.51949 1.24-.52299h1.84a2.91169 2.91169 0 00-.55 1.00575h-1.29c-.20264.00552-.39564.08819-.54.23132-.14129.14503-.22029.34007-.22.54311v2.23275h1v2.82614a.20188.20188 0 00.00955.0806.20092.20092 0 00.04045.0703.23988.23988 0 00.14.0503zM10.49 5.96842c-.3313-.33404-.78087-.52214-1.24999-.52299h-2.48c-.46564.0035-.91116.1914-1.24.52299-.33029.33444-.51699.78582-.52 1.25719v3.17819c-.00141.2732.10253.5364.29.7342.09007.1005.19937.1817.32137.2387a.9968.9968 0 00.38863.0932v2.3232a1.20239 1.20239 0 00.08962.4628c.06008.1468.1486.2801.26038.3921.17982.1684.40671.2773.65.3118h2c.28096-.0349.53897-.1736.72381-.3893.18484-.2156.28328-.4927.27618-.7774v-2.3232a.99697.99697 0 00.3887-.0932c.1219-.057.2313-.1382.3213-.2387a1.0063 1.0063 0 00.2197-.3373c.0498-.1262.0738-.2612.0703-.3969V7.22561c.0007-.47016-.1824-.92174-.51-1.25719zM10 10.4541h-.99999v3.339a.20151.20151 0 01-.06.1408.16961.16961 0 01-.0629.0469.16992.16992 0 01-.0771.0135h-1.61a.20971.20971 0 01-.13872-.0616.21213.21213 0 01-.06128-.1396v-3.339h-.99V7.22561c-.00029-.20304.07872-.39808.22-.54311.14436-.14313.33737-.2258.54-.23132h2.48c.20308.00346.39681.08645.54.23132a.7445.7445 0 01.16543.24884A.7482.7482 0 0110 7.22561v3.22849zm2.81 3.0373H11v-1.0057h1.8a.23983.23983 0 00.14-.0503.20071.20071 0 00.0458-.0691.20068.20068 0 00.0142-.0818V9.45836h1V7.22561c.0003-.20304-.0787-.39808-.22-.54311-.1444-.14313-.3374-.2258-.54-.23132h-1.29a2.9107 2.9107 0 00-.55-1.00575h1.84c.4656.0035.9112.1914 1.24.52299.3303.33444.517.78582.52 1.25719v2.18247c.0004.27259-.103.535-.289.73332-.186.1982-.4404.3173-.711.3328v1.8103c0 .3184-.125.6238-.3479.8499-.2229.226-.5256.3544-.8421.357zM4 1.94543a1.49388 1.49388 0 00-.83335.25425c-.24668.16577-.43894.40139-.55247.67705a1.51667 1.51667 0 00-.08536.87164c.05788.29265.20074.56146.41052.77244.20978.21099.47705.35467.76803.41288a1.49208 1.49208 0 00.86666-.08585c.27408-.11418.50835-.30755.67317-.55564.16483-.24809.2528-.53977.2528-.83814 0-.40012-.15803-.78384-.43934-1.06676-.2813-.28292-.66283-.44187-1.06066-.44187zm0 2.0115a.49854.49854 0 01-.35355-.14729C3.55268 3.71533 3.5 3.58743 3.5 3.45406c0-.13338.05268-.26128.14645-.35559A.49854.49854 0 014 2.95118a.50857.50857 0 01.35072.15014c.09322.09375.14672.22017.14928.35274 0 .13337-.05268.26127-.14645.35558A.49852.49852 0 014 3.95693z" fill="#C5C5C5"/></svg>