<svg viewBox="0 0 16 16" fill="none" xmlns="http://www.w3.org/2000/svg"><path d="M8 2a1.00002 1.00002 0 01.98078 1.19509 1.00003 1.00003 0 01-1.36347.72879 1.00002 1.00002 0 01-.32442-1.63099A1.00003 1.00003 0 018 2zm0-1a1.99998 1.99998 0 00-1.96157 2.39018A2 2 0 108 1zm1.23 4.49H6.77A1.76999 1.76999 0 005 7.26V9.9a1.06004 1.06004 0 00.27484.7547c.18706.2058.4475.3298.72516.3453v2.33c0 .3183.12642.6235.35147.8485.22504.2251.53027.3515.84853.3515h1.6a1.19967 1.19967 0 00.86299-.3655 1.19957 1.19957 0 00.2574-.403A1.19925 1.19925 0 0010 13.29V11c.2777-.0155.5381-.1395.7252-.3453A1.0604 1.0604 0 0011 9.9V7.26c0-.46943-.1865-.91964-.5184-1.25158A1.77016 1.77016 0 009.23 5.49zM6 10V7.26a.7599.7599 0 01.22253-.54747A.76.76 0 016.77 6.49h2.46a.76005.76005 0 01.77.77V10H9v3.31a.20005.20005 0 01-.2.2H7.2a.20006.20006 0 01-.2-.2V10H6z" fill="#C5C5C5"/></svg>