<svg viewBox="0 0 16 16" fill="none" xmlns="http://www.w3.org/2000/svg"><path fill-rule="evenodd" clip-rule="evenodd" d="M2.99841 5.57996a5.55005 5.55005 0 011.62-3.88001L3.90839 1a6.44966 6.44966 0 00-1.41217 2.09912A6.44995 6.44995 0 002 5.57996a6.4499 6.4499 0 00.49622 2.48083 6.4494 6.4494 0 001.41217 2.09911l.71002-.69994a5.55002 5.55002 0 01-1.62-3.88zm1.05998 0a4.4198 4.4198 0 00.3396 1.71838A4.4204 4.4204 0 005.3784 8.75l.71002-.71008a3.2701 3.2701 0 01-.76001-1.12 3.44995 3.44995 0 01-.27002-1.33996A3.35979 3.35979 0 015.32841 4.25a3.22 3.22 0 01.76001-1.13l-.71002-.71009a4.46004 4.46004 0 00-1.32001 3.17005zm7.65001 3.20996l-.71-.70996a3.27007 3.27007 0 00.76-1.13001 3.44884 3.44884 0 00.27-1.33996 3.35912 3.35912 0 00-.27-1.33008 3.22037 3.22037 0 00-.76-1.13001l.71-.69995a4.4679 4.4679 0 01.9757 1.45337A4.46983 4.46983 0 0113.0269 5.62c0 .5892-.1165 1.17252-.3428 1.71655a4.468 4.468 0 01-.9757 1.45337zM13.0684 1l-.71.70996a5.43007 5.43007 0 011.1995 1.7721 5.43009 5.43009 0 01.4216 2.0979 5.43012 5.43012 0 01-.4216 2.0979 5.42992 5.42992 0 01-1.1995 1.77209l.71.70995a6.45072 6.45072 0 001.4123-2.09911 6.45071 6.45071 0 00.4961-2.48083c0-.8516-.1686-1.69475-.4961-2.48084A6.45097 6.45097 0 0013.0684 1zM9.99274 5.4303a1.49945 1.49945 0 01-.24433.97961 2.00063 2.00063 0 01-.27002.2301L12.9184 14.37l-.92.3999-.77-1.73H5.68842l-.77002 1.73-.91999-.3999 3.44001-7.72999a1.51998 1.51998 0 01-.40998-.77002 1.48999 1.48999 0 01.07996-.85998 1.55011 1.55011 0 01.56-.68006 1.50016 1.50016 0 01.97973-.24438c.345.03421.66746.18686.9126.43201a1.50026 1.50026 0 01.43201.91272zm-1.5943-.34034a.52008.52008 0 00-.25.14002.52008.52008 0 00-.11005.21997.48013.48013 0 000 .29004.58004.58004 0 00.17999.22998.54018.54018 0 00.28003.07996.50999.50999 0 00.35071-.1493.50997.50997 0 00.14929-.3507.5401.5401 0 00-.08001-.28003.57983.57983 0 00-.22998-.17994.47993.47993 0 00-.28998 0zm.22998 2.05005H8.3584l-.87 1.93994h2l-.85998-1.93994zM10.8284 12.08l-.88998-2H7.05841l-.89001 2h4.66z" fill="#C5C5C5"/></svg>