<svg viewBox="0 0 24 24" fill="none" xmlns="http://www.w3.org/2000/svg"><path fill-rule="evenodd" clip-rule="evenodd" d="M11.1052 4.5613L7.67505 7.98827 6.54072 6.86834l2.07026-2.07986H3.81131a2.39985 2.39985 0 100 4.79968h.88954v1.59994H3.8209a4.0001 4.0001 0 01-2.71194-1.23149 3.99972 3.99972 0 010-5.52858A3.99974 3.99974 0 013.8209 3.19659h4.79968L6.54072 1.13112 7.67505 0l3.43015 3.43177V4.5613zM16.6201 24H7.0207l-.79995-.8V10.4121l.79995-.79995h9.5994l.7999.79995V23.2l-.7999.8zm-8.79946-1.5999h7.99946V11.212H7.82064v11.1881zM13.4203 1.6015h9.5993l.8.79995V15.1878l-.8.7999h-3.9997v-1.5999h3.1998V3.20139h-7.9995v4.78689h-1.5999V2.40145l.8-.79995zm.7999 11.1864H9.42053v1.5999h4.79967v-1.5999zm-4.79967 3.1998h4.79967v1.5999H9.42053v-1.5999zm4.79967 3.1998H9.42053v1.5999h4.79967v-1.5999zm1.5999-14.39902h4.7997v1.5999h-4.7997v-1.5999zm4.7997 6.39952h-1.5999v1.5999h1.5999V11.188zm-3.3374-3.17572v-.024h3.3374v1.59989h-1.7615l-1.5759-1.57589z" fill="#fff"/></svg>