<svg viewBox="0 0 16 16" fill="none" xmlns="http://www.w3.org/2000/svg"><path fill-rule="evenodd" clip-rule="evenodd" d="M3.221 3.739l2.261 2.269L7.7 3.784l-.7-.7-1.012 1.007-.008-1.6a.523.523 0 01.5-.526H8V1H6.48A1.48201 1.48201 0 005 2.489V4.1L3.927 3.033l-.706.706zm6.66914 1.79377h.01127C10.0836 5.84426 10.3521 6 10.707 6c.3925 0 .7061-.16764.9409-.50292.2347-.33528.3521-.7798.3521-1.33355 0-.51049-.1005-.91283-.3014-1.20701-.2009-.29418-.4873-.44127-.8592-.44127-.4056 0-.7183.1936-.93799.58079h-.01127V1H9v4.91888h.89014v-.38611zm-.01408-1.061v-.34069c0-.24659.05821-.44668.17464-.60026.1183-.15358.2667-.23037.4451-.23037.1896 0 .3352.07788.4366.23362.1033.15358.1549.36773.1549.64244 0 .33095-.0563.58728-.169.76898-.1108.17954-.2676.26931-.4704.26931-.1671 0-.3042-.07031-.4113-.21091-.10702-.1406-.16054-.31797-.16054-.53212zM9 12.7691C8.74432 12.923 8.37515 13 7.89247 13c-.56392 0-1.02031-.1775-1.36917-.5326C6.17443 12.1124 6 11.6543 6 11.0931c0-.648.18638-1.15826.55914-1.5307.37515-.37493.87575-.56239 1.50179-.56239.4325 0 .74552.05959.93907.17877v.99812c-.23656-.18371-.5006-.27558-.79211-.27558-.32497 0-.58304.09928-.7742.29798-.18877.1961-.28315.468-.28315.8156 0 .3377.0908.6034.2724.797.1816.1912.4313.2868.7491.2868.28196 0 .55795-.0919.82796-.2756v.946zM4 7L3 8v6l1 1h7l1-1V8l-1-1H4zm0 1h7v6H4V8z" fill="#C5C5C5"/></svg>