<svg viewBox="0 0 16 16" fill="none" xmlns="http://www.w3.org/2000/svg"><path fill-rule="evenodd" clip-rule="evenodd" d="M13.5 1H3.74a1.73994 1.73994 0 00-1.61043 1.08106A1.73982 1.73982 0 002 2.75v9.5a1.73955 1.73955 0 00.12957.6689c.08685.2123.21481.4053.37651.5679.16171.1627.35397.2917.56573.3798.21176.0881.43884.1334.66819.1334H7v-1H3.74a.74043.74043 0 01-.28552-.0573.73949.73949 0 01-.24131-.163.7393.7393 0 01-.15974-.2434A.74047.74047 0 013 12.25v-.5a.74047.74047 0 01.05343-.2863.7393.7393 0 01.15974-.2434.73949.73949 0 01.24131-.163A.73983.73983 0 013.73987 11H7v-1H4V2h9v8h-3v1h3v2h-3v1h3.5l.5-.5v-12l-.5-.5zM3 2.72987A.75044.75044 0 003 2.75v7.42-7.44013zM6 3H5v1h1V3zm-.62 5.64995l.71.7 1.92001-1.92001V15h1V7.32814L11.04 9.34995l.7-.7-2.82-2.83h-.71l-2.83 2.83zM5 5h1v1H5V5z" fill="#C5C5C5"/></svg>