<svg viewBox="0 0 16 16" fill="none" xmlns="http://www.w3.org/2000/svg"><path fill-rule="evenodd" clip-rule="evenodd" d="M13 1.5V3h-1V2H3v8h10v3.5l-.5.5H7.99997v-1H12v-2H2.73548a.71954.71954 0 00-.28551.06.74018.74018 0 00-.4.4.9301.9301 0 00-.05.29v.5a.9301.9301 0 00.05.29.74018.74018 0 00.4.4.71984.71984 0 00.29.06h.26v1h-.26a1.89959 1.89959 0 01-.67-.13 1.77024 1.77024 0 01-.94-.95 1.6999 1.6999 0 01-.13-.67v-9.5a1.70002 1.70002 0 01.13-.62 1.77002 1.77002 0 01.94-1 1.90003 1.90003 0 01.67-.13H12.5l.5.5zM2 10.17V2.74777L1.99997 2.75v7.42H2zM5 3H4v1h1V3zm0 2H4v1h1V5zM4 7h1v1H4V7zm8.07-3.60999l-.7.71 1.92 1.92H7v1h6.39l-2.02 2.03.7.7 2.83-2.82v-.71l-2.83-2.83zM5.5 13.49L4.28 15H4v-3h3v3h-.28L5.5 13.49z" fill="#C5C5C5"/></svg>