<svg viewBox="0 0 16 16" fill="none" xmlns="http://www.w3.org/2000/svg"><path fill-rule="evenodd" clip-rule="evenodd" d="M0 7.33692V2.5L.5 2h5l.34998.15002L6.70996 3H12.5l.5.5V6h2.13l.48.63-2.63 7-.48.37H8.74284a5.50672 5.50672 0 00.65745-1H12.13l2.37-6H8.74284a5.53357 5.53357 0 00-.72022-.72405l.1274-.12593L8.5 6H12V4H6.5l-.34998-.15002L5.29004 3H1l.01314 3.24635A5.53129 5.53129 0 000 7.33692z" fill="#C5C5C5"/><path d="M6 10.5c0 .8284-.67157 1.5-1.5 1.5S3 11.3284 3 10.5C3 9.67157 3.67157 9 4.5 9S6 9.67157 6 10.5z" fill="#C4C4C4"/><path fill-rule="evenodd" clip-rule="evenodd" d="M8 10.5C8 12.433 6.433 14 4.5 14S1 12.433 1 10.5 2.567 7 4.5 7 8 8.567 8 10.5zM4.5 13C5.88071 13 7 11.8807 7 10.5 7 9.11929 5.88071 8 4.5 8S2 9.11929 2 10.5C2 11.8807 3.11929 13 4.5 13z" fill="#C4C4C4"/></svg>