<svg viewBox="0 0 24 24" fill="none" xmlns="http://www.w3.org/2000/svg"><path d="M21.0068 8.22168a3.73825 3.73825 0 00-.5479-1.96683 3.73747 3.73747 0 00-1.4999-1.38528 3.73713 3.73713 0 00-2.0041-.39016 3.73732 3.73732 0 00-1.9101.72144 3.73691 3.73691 0 00-1.2457 1.61765 3.73642 3.73642 0 00-.2095 2.03094c.12.6833.4279 1.31976.8891 1.83796a3.7374 3.7374 0 001.7225 1.0962 2.98847 2.98847 0 01-1.0965 1.2143 2.98914 2.98914 0 01-1.5715.4553h-2.9895a4.45574 4.45574 0 00-2.9894 1.1659V7.39809a3.73686 3.73686 0 002.26241-1.44658 3.7364 3.7364 0 00.70809-2.5903 3.7368 3.7368 0 10-4.46522 4.03688v9.11781a3.7758 3.7758 0 00-2.27986 1.4017 3.776 3.776 0 00-.77796 2.5609 3.77534 3.77534 0 001.11483 2.433 3.7756 3.7756 0 002.44747 1.0829 3.7752 3.7752 0 002.55037-.8114 3.77538 3.77538 0 001.37177-2.298 3.77518 3.77518 0 00-.49594-2.63 3.77563 3.77563 0 00-2.11459-1.6405 2.98941 2.98941 0 011.09708-1.2126 2.98869 2.98869 0 011.57095-.454h2.9895a4.48366 4.48366 0 002.5979-.844 4.48425 4.48425 0 001.6261-2.1948c.896-.1177 1.7189-.5563 2.3164-1.2343.5974-.678.929-1.54947.9332-2.45312zM4.56487 3.73752a2.24204 2.24204 0 012.67948-2.19898 2.24207 2.24207 0 11-2.67948 2.19898zM9.04902 20.1794c0 .4435-.1315.8769-.37786 1.2456a2.24225 2.24225 0 01-1.00621.8258 2.24215 2.24215 0 01-1.29541.1276 2.24098 2.24098 0 01-1.14799-.6136 2.24254 2.24254 0 01-.61361-1.1479 2.24239 2.24239 0 01.12759-1.2955 2.2417 2.2417 0 01.82578-1.0062 2.24262 2.24262 0 011.24563-.3779c.59464 0 1.16492.2363 1.58539.6567.42047.4205.65669.9908.65669 1.5854zM17.27 10.4638a2.2422 2.2422 0 01-2.0714-1.38411 2.2422 2.2422 0 01-.1277-1.29542 2.24185 2.24185 0 01.6137-1.14798 2.24207 2.24207 0 011.1479-.61361 2.24197 2.24197 0 011.2954.12759 2.2419 2.2419 0 011.0063.82578 2.2425 2.2425 0 01.3778 1.24563 2.24225 2.24225 0 01-.6566 1.58538c-.4206.42044-.9908.65674-1.5854.65674z" fill="#fff"/></svg>