<svg viewBox="0 0 16 16" fill="none" xmlns="http://www.w3.org/2000/svg"><path fill-rule="evenodd" clip-rule="evenodd" d="M2.00583 8.76691L.78 10 0 9.23003l2.09-2.07.76.01 2.09 2.12-.76.75997-1.16652-1.18005C3.2028 11.4586 5.363 13.5 8 13.5c1.91062 0 3.571-1.0717 4.4127-2.6467l.8133.5966C12.1959 13.2709 10.2415 14.5 8 14.5c-3.22427 0-5.85453-2.5432-5.99417-5.73309zm10.99027-.4664L11.76 7.05005l-.76.76 2.09 2.11.76.01 2.09-2.07-.75-.76-1.194 1.17999C13.8803 5.06823 11.2401 2.5 8 2.5c-2.16273 0-4.05821 1.14427-5.11403 2.86043l.80966.59393C4.56647 4.48506 6.1682 3.5 8 3.5c2.6946 0 4.8914 2.13157 4.9961 4.80051z" fill="#C5C5C5"/></svg>