<svg viewBox="0 0 16 16" fill="none" xmlns="http://www.w3.org/2000/svg"><path d="M5.46 14.11a1.46016 1.46016 0 01-.81-.25 1.38009 1.38009 0 01-.52689-.7646A1.38008 1.38008 0 014.2 12.17L5.17 10H2.38a1.36 1.36 0 01-1.16-.61 1.35005 1.35005 0 01-.09-1.32C1.8 6.62 3 4 3.4 2.9A1.38 1.38 0 014.69 2h8.93c.3678.00526.7188.15507.977.41706.2583.26198.403.61508.403.98294v3.51c0 .18122-.0357.36067-.105.5281a1.38012 1.38012 0 01-.2992.44771 1.37985 1.37985 0 01-.4477.29914A1.3798 1.3798 0 0113.62 8.29h-1.38L6.4 13.75a1.41 1.41 0 01-.94.36zM4.69 3a.38996.38996 0 00-.36.25C3.93 4.34 2.86 6.7 2 8.49a.39.39 0 000 .36.37.37 0 00.38.15h3.3l.52.68v.46l-1.09 2.44a.37002.37002 0 00.13.46.38018.38018 0 00.24.0854.38016.38016 0 00.24-.0854l6.06-5.59.47-.13h1.37a.38035.38035 0 00.1527-.03151.3796.3796 0 00.1272-.09018.38126.38126 0 00.0803-.13366A.37962.37962 0 0014 6.91V3.4a.40033.40033 0 00-.11-.276.39988.39988 0 00-.27-.124H4.69z" fill="#C5C5C5"/></svg>