<svg viewBox="0 0 16 16" fill="none" xmlns="http://www.w3.org/2000/svg"><path fill-rule="evenodd" clip-rule="evenodd" d="M1.5 4.83h2.79L8.15 1l.85.35v13l-.85.33-3.86-3.85H1.5l-.5-.5v-5l.5-.5zM4.85 10L8 13.14V2.56L4.85 5.68l-.35.15H2v4h2.5l.35.17zm10.1502-2.17c0 1.68007-.5918 3.2219-1.5785 4.4283l-.7112-.7112c.8076-1.0221 1.2897-2.3133 1.2897-3.7171 0-1.40031-.4797-2.68857-1.2837-3.70943l.7114-.71139c.9829 1.20533 1.5723 2.74424 1.5723 4.42082zm-2 0c0 1.12745-.3731 2.16774-1.0027 3.0041l-.7159-.7159c.4529-.64841.7186-1.43728.7186-2.2882 0-.84741-.2635-1.63327-.713-2.28011l.7162-.7162c.626.83503.9968 1.87236.9968 2.99631zm-2 0c0 .57394-.1611 1.11024-.4407 1.5661l-.73815-.73815c.11489-.2523.17885-.53265.17885-.82795 0-.29164-.06239-.56869-.17459-.81854l.73909-.73908c.2764.45403.4355.98723.4355 1.55762z" fill="#C5C5C5"/></svg>