<svg viewBox="0 0 16 16" fill="none" xmlns="http://www.w3.org/2000/svg"><path fill-rule="evenodd" clip-rule="evenodd" d="M7.67 14.72h.71L10.1 13h2.4l.5-.5v-2.42l1.74-1.71996v-.71l-1.71-1.72v-2.44l-.5-.49H10.1l-1.72-1.71h-.71L6 3.00004H3.53l-.53.5v2.43l-1.69 1.72v.71L3 10.08v2.42l.53.5H6l1.67 1.72zM6.16 12H4V9.87004l-.12-.35-1.51-1.52 1.48-1.51.15-.35v-2.14h2.16l.36-.14 1.48-1.51 1.54 1.51.35.14H12v2.14l.17.35 1.52 1.51-1.55 1.52-.14.35V12H9.89l-.38.15L8 13.66l-1.48-1.52-.36-.14zm.57004-1.5201h.71L11.21 6.71 10.5 6 7.09004 9.41991 5.71 8.03984l-.71.71 1.73004 1.73006z" fill="#C5C5C5"/></svg>