<svg viewBox="0 0 16 16" fill="none" xmlns="http://www.w3.org/2000/svg"><path fill-rule="evenodd" clip-rule="evenodd" d="M1.5 2h13l.5.5v5.50305a5.00609 5.00609 0 00-1-.5835V3H2v9h5a4.99983 4.99983 0 001 3H4v-1h3v-1H1.5l-.5-.5v-10l.5-.5z" fill="#C5C5C5"/><path d="M12 8c-.7911 0-1.5645.23455-2.22231.67407a4.00021 4.00021 0 00-1.47327 1.79513 4.00035 4.00035 0 00-.22754 2.3112 3.99988 3.99988 0 001.09473 2.048 3.99962 3.99962 0 002.04799 1.0947 4.00075 4.00075 0 002.3111-.2275 4.00046 4.00046 0 001.7952-1.4733A4.00031 4.00031 0 0016 12a3.9997 3.9997 0 00-1.1717-2.82837A3.99982 3.99982 0 0012 8zm0 7c-.5934 0-1.1734-.176-1.6668-.5056a3.0005 3.0005 0 01-1.10483-1.3463 3.00032 3.00032 0 01-.17077-1.7334 2.99963 2.99963 0 01.82104-1.53604 2.9999 2.9999 0 013.26936-.65027A2.99996 2.99996 0 0115 12a3.00008 3.00008 0 01-3 3z" fill="#C5C5C5"/></svg>