<svg viewBox="0 0 16 16" fill="none" xmlns="http://www.w3.org/2000/svg"><path fill-rule="evenodd" clip-rule="evenodd" d="M1.5 2h13l.5.5v5.50305a5.00609 5.00609 0 00-1-.5835V3H2v9h5a4.99983 4.99983 0 001 3H4v-1h3v-1H1.5l-.5-.5v-10l.5-.5z" fill="#C5C5C5"/><path d="M12 8c.3672 0 .7214.04688 1.0625.14062.3411.09376.6589.22917.9531.40626.2943.17708.5638.38541.8086.625.2448.23958.4544.50911.6289.80859.1745.29943.3086.61853.4024.95703.0937.3385.1419.6927.1445 1.0625 0 .3672-.0469.7214-.1406 1.0625-.0938.3411-.2292.6589-.4063.9531-.1771.2943-.3854.5638-.625.8086-.2396.2448-.5091.4544-.8086.6289-.2994.1745-.6185.3086-.957.4024-.3385.0937-.6927.1419-1.0625.1445-.3672 0-.7214-.0469-1.0625-.1406-.3411-.0938-.6589-.2292-.95312-.4063-.29428-.1771-.56381-.3854-.8086-.625-.24479-.2396-.45443-.5091-.6289-.8086-.17448-.2994-.3086-.6185-.40235-.957C8.05078 12.724 8.0026 12.3698 8 12c0-.3672.04688-.7214.14062-1.0625.09376-.3411.22917-.6589.40626-.95312.17708-.29428.38541-.56381.625-.8086.23958-.24479.50911-.45443.80859-.6289.29943-.17448.61853-.3086.95703-.40235S11.6302 8.0026 12 8zm2 3.9883L11 10v4l3-2.0117z" fill="#C5C5C5"/></svg>