<svg viewBox="0 0 16 16" fill="none" xmlns="http://www.w3.org/2000/svg"><path fill-rule="evenodd" clip-rule="evenodd" d="M3.86838 3.449a1.20996 1.20996 0 00-.473-.329c-.274-.111-.623-.15-1.055-.076a3.50037 3.50037 0 00-.711.208 1.50166 1.50166 0 00-.234.125l-.043.03v1.056l.168-.139c.149-.124.326-.225.527-.303.196-.074.399-.113.604-.113.188 0 .33.051.431.157.087.095.137.248.147.456l-.962.144c-.219.03-.41.086-.57.166a1.24508 1.24508 0 00-.398.311 1.23408 1.23408 0 00-.229.426 1.71403 1.71403 0 00.011 1.008 1.09612 1.09612 0 00.638.67c.155.063.328.093.528.093a1.24991 1.24991 0 00.978-.441v.345h1.007V4.65c0-.255-.03-.484-.089-.681a1.4229 1.4229 0 00-.275-.52zm-.636 1.896v.236c0 .119-.018.231-.055.341a.74501.74501 0 01-.377.447.69403.69403 0 01-.512.027.454.454 0 01-.156-.094.38903.38903 0 01-.094-.139.47416.47416 0 01-.035-.186c0-.077.009-.147.024-.212a.33003.33003 0 01.078-.141.43603.43603 0 01.161-.109 1.30032 1.30032 0 01.305-.073l.661-.097zm5.051-1.067a2.25287 2.25287 0 00-.244-.656 1.35406 1.35406 0 00-.436-.459 1.165 1.165 0 00-.642-.173 1.136 1.136 0 00-.69.223 1.31237 1.31237 0 00-.264.266V1h-.918v6.224h.918v-.281a1.0231 1.0231 0 00.472.328c.098.032.208.047.33.047.255 0 .483-.06.677-.177.192-.115.355-.278.486-.486a2.28997 2.28997 0 00.293-.718 3.86982 3.86982 0 00.096-.886 3.76027 3.76027 0 00-.078-.773zm-.861.758c0 .232-.02.439-.059.613-.036.172-.09.315-.159.424a.639.639 0 01-.233.237.582.582 0 01-.565.014.683.683 0 01-.211-.183.92502.92502 0 01-.141-.283 1.18708 1.18708 0 01-.054-.358v-.517c0-.164.02-.314.059-.447.037-.132.088-.242.157-.336a.66806.66806 0 01.228-.208.58393.58393 0 01.289-.071.55399.55399 0 01.497.279c.063.099.108.214.143.354.031.143.049.306.049.482zM2.40838 9.9a.91288.91288 0 01.316-.239c.218-.1.547-.105.766-.018.104.042.204.1.32.184l.329.26V8.945l-.096-.062a1.93196 1.93196 0 00-.905-.215c-.308 0-.593.057-.846.168-.25.11-.467.27-.647.475a2.0721 2.0721 0 00-.403.717c-.09.272-.137.57-.137.895 0 .289.043.561.129.808.087.249.212.471.374.652.161.185.361.333.597.441.232.104.493.155.778.155.233 0 .434-.028.613-.084a1.84897 1.84897 0 00.466-.217l.078-.061v-.889l-.2.095a.40012.40012 0 01-.076.026c-.05.017-.099.035-.128.049-.036.023-.227.09-.227.09-.06.024-.14.043-.218.059a.97723.97723 0 01-.599-.057.82688.82688 0 01-.306-.225 1.08767 1.08767 0 01-.205-.376 1.7281 1.7281 0 01-.076-.529c0-.21.028-.399.083-.56.054-.158.129-.294.22-.4zM14 6h-4V5h4.5l.5.5v6l-.5.5H7.87869l2.07107 2.0711-.70711.7071-2.88909-2.8891v-.7071l2.88909-2.8891L9.94976 9l-2.00001 2H14V6z" fill="#C5C5C5"/></svg>